  0
SECTION
  2
HEADER
  9
$ACADVER
  1
AC1006
  9
$EXTMIN
 10
0.000000
 20
0.000000
 30
0.000000
  9
$EXTMAX
 10
1754.000000
 20
2480.000000
 30
0.000000
  0
ENDSEC
  0
SECTION
  2
ENTITIES
  0
POLYLINE
  8
0
 66
1
 70
1
  0
VERTEX
  8
0
 10
749.315372
 20
2378.993020
 42
0.115515
  0
VERTEX
  8
0
 10
747.185566
 20
2377.494856
 42
0.106863
  0
VERTEX
  8
0
 10
745.868208
 20
2375.166282
 42
0.060795
  0
VERTEX
  8
0
 10
745.185710
 20
2371.425959
 42
0.014762
  0
VERTEX
  8
0
 10
745.000000
 20
2365.137170
 42
-0.008276
  0
VERTEX
  8
0
 10
744.925510
 20
2360.637118
 42
-0.028644
  0
VERTEX
  8
0
 10
744.662643
 20
2357.736414
 42
-0.045318
  0
VERTEX
  8
0
 10
744.191497
 20
2355.796199
 42
-0.114649
  0
VERTEX
  8
0
 10
743.428571
 20
2354.571429
 42
-0.192772
  0
VERTEX
  8
0
 10
741.100183
 20
2353.574554
 42
-0.002339
  0
VERTEX
  8
0
 10
724.382021
 20
2353.257254
 42
-0.003232
  0
VERTEX
  8
0
 10
697.105362
 20
2353.043547
 42
-0.000343
  0
VERTEX
  8
0
 10
633.539355
 20
2353.000000
 42
0.000269
  0
VERTEX
  8
0
 10
563.894533
 20
2352.962516
 42
0.004045
  0
VERTEX
  8
0
 10
539.636084
 20
2352.740143
 42
0.006082
  0
VERTEX
  8
0
 10
526.184027
 20
2352.344263
 42
0.161043
  0
VERTEX
  8
0
 10
522.860784
 20
2351.089862
 42
0.130092
  0
VERTEX
  8
0
 10
521.456684
 20
2349.171340
 42
0.068540
  0
VERTEX
  8
0
 10
520.760900
 20
2346.280541
 42
0.020533
  0
VERTEX
  8
0
 10
520.439533
 20
2340.771771
 42
0.001268
  0
VERTEX
  8
0
 10
520.198989
 20
2324.380861
 42
-0.003080
  0
VERTEX
  8
0
 10
520.004610
 20
2313.758318
 42
-0.007025
  0
VERTEX
  8
0
 10
519.695951
 20
2305.746413
 42
-0.003828
  0
VERTEX
  8
0
 10
519.321086
 20
2299.528109
 42
-0.157498
  0
VERTEX
  8
0
 10
518.826544
 20
2298.290998
 42
-0.221361
  0
VERTEX
  8
0
 10
517.193837
 20
2297.517607
 42
-0.000212
  0
VERTEX
  8
0
 10
474.842331
 20
2297.252681
 42
-0.001247
  0
VERTEX
  8
0
 10
413.861192
 20
2297.049144
 42
-0.000211
  0
VERTEX
  8
0
 10
297.433319
 20
2297.000000
 42
0.000000
  0
VERTEX
  8
0
 10
77.111527
 20
2297.000000
 42
0.000000
  0
VERTEX
  8
0
 10
74.305764
 20
2294.586601
 42
0.000000
  0
VERTEX
  8
0
 10
71.500000
 20
2292.173202
 42
0.000000
  0
VERTEX
  8
0
 10
71.225536
 20
1964.836601
 42
0.000158
  0
VERTEX
  8
0
 10
71.159850
 20
1839.163830
 42
0.000261
  0
VERTEX
  8
0
 10
71.193229
 20
1732.986717
 42
0.000012
  0
VERTEX
  8
0
 10
71.275579
 20
1637.109647
 42
0.059129
  0
VERTEX
  8
0
 10
71.500972
 20
1635.224564
 42
0.048613
  0
VERTEX
  8
0
 10
71.853164
 20
1634.210492
 42
0.026148
  0
VERTEX
  8
0
 10
72.469367
 20
1633.037509
 42
0.025788
  0
VERTEX
  8
0
 10
73.229051
 20
1631.896877
 42
0.036586
  0
VERTEX
  8
0
 10
74.025436
 20
1630.974564
 42
0.196461
  0
VERTEX
  8
0
 10
77.389118
 20
1629.562653
 42
0.000846
  0
VERTEX
  8
0
 10
117.620750
 20
1629.251083
 42
0.001423
  0
VERTEX
  8
0
 10
186.857594
 20
1629.028954
 42
0.000079
  0
VERTEX
  8
0
 10
402.750000
 20
1628.984687
 42
-0.000211
  0
VERTEX
  8
0
 10
528.117364
 20
1628.926000
 42
-0.000350
  0
VERTEX
  8
0
 10
633.839428
 20
1628.758058
 42
-0.000009
  0
VERTEX
  8
0
 10
729.605535
 20
1628.537280
 42
-0.148016
  0
VERTEX
  8
0
 10
730.596989
 20
1628.234687
 42
-0.086883
  0
VERTEX
  8
0
 10
731.358150
 20
1627.506224
 42
-0.000053
  0
VERTEX
  8
0
 10
749.235149
 20
1603.187689
 42
-0.000675
  0
VERTEX
  8
0
 10
769.111047
 20
1576.067356
 42
-0.000412
  0
VERTEX
  8
0
 10
792.505590
 20
1544.000000
 42
0.000383
  0
VERTEX
  8
0
 10
815.997879
 20
1511.794713
 42
0.000605
  0
VERTEX
  8
0
 10
836.193031
 20
1484.223970
 42
0.000129
  0
VERTEX
  8
0
 10
853.985624
 20
1460.007906
 42
0.027367
  0
VERTEX
  8
0
 10
855.833762
 20
1457.762453
 42
0.043863
  0
VERTEX
  8
0
 10
857.022504
 20
1456.677539
 42
0.031776
  0
VERTEX
  8
0
 10
858.514316
 20
1455.681790
 42
0.032338
  0
VERTEX
  8
0
 10
860.065196
 20
1454.912676
 42
0.058592
  0
VERTEX
  8
0
 10
861.425161
 20
1454.523561
 42
0.007981
  0
VERTEX
  8
0
 10
863.858398
 20
1454.166597
 42
0.000028
  0
VERTEX
  8
0
 10
893.265516
 20
1450.332503
 42
0.000150
  0
VERTEX
  8
0
 10
926.560571
 20
1446.003559
 42
0.000094
  0
VERTEX
  8
0
 10
965.500000
 20
1440.960143
 42
-0.000073
  0
VERTEX
  8
0
 10
1133.516651
 20
1419.205970
 42
-0.000362
  0
VERTEX
  8
0
 10
1228.099261
 20
1406.876038
 42
-0.000079
  0
VERTEX
  8
0
 10
1295.348479
 20
1398.049047
 42
-0.037293
  0
VERTEX
  8
0
 10
1299.649329
 20
1397.153821
 42
-0.058962
  0
VERTEX
  8
0
 10
1302.008716
 20
1396.163067
 42
-0.000237
  0
VERTEX
  8
0
 10
1326.945303
 20
1382.023318
 42
-0.001195
  0
VERTEX
  8
0
 10
1355.204036
 20
1365.892660
 42
-0.000752
  0
VERTEX
  8
0
 10
1388.149329
 20
1346.916333
 42
0.000886
  0
VERTEX
  8
0
 10
1427.404799
 20
1324.319422
 42
0.002711
  0
VERTEX
  8
0
 10
1454.139514
 20
1309.184930
 42
0.001419
  0
VERTEX
  8
0
 10
1474.044101
 20
1298.133062
 42
0.074788
  0
VERTEX
  8
0
 10
1478.134556
 20
1296.618004
 42
0.025945
  0
VERTEX
  8
0
 10
1480.887672
 20
1296.191921
 42
0.067159
  0
VERTEX
  8
0
 10
1482.891439
 20
1296.256964
 42
0.057645
  0
VERTEX
  8
0
 10
1484.978599
 20
1296.861043
 42
0.015352
  0
VERTEX
  8
0
 10
1488.134556
 20
1298.299241
 42
0.026964
  0
VERTEX
  8
0
 10
1490.412116
 20
1299.579822
 42
0.025235
  0
VERTEX
  8
0
 10
1492.591592
 20
1301.124545
 42
0.026505
  0
VERTEX
  8
0
 10
1494.433449
 20
1302.740099
 42
0.053936
  0
VERTEX
  8
0
 10
1495.657389
 20
1304.223072
 42
0.015105
  0
VERTEX
  8
0
 10
1501.137167
 20
1313.120431
 42
0.000043
  0
VERTEX
  8
0
 10
1570.637653
 20
1434.020759
 42
0.000021
  0
VERTEX
  8
0
 10
1641.352282
 20
1557.069294
 42
0.031164
  0
VERTEX
  8
0
 10
1643.651083
 20
1561.717881
 42
0.088019
  0
VERTEX
  8
0
 10
1644.781334
 20
1566.740220
 42
0.070344
  0
VERTEX
  8
0
 10
1644.255964
 20
1572.272196
 42
0.069613
  0
VERTEX
  8
0
 10
1642.204325
 20
1577.497457
 42
0.082505
  0
VERTEX
  8
0
 10
1638.881919
 20
1581.624675
 42
0.050130
  0
VERTEX
  8
0
 10
1636.836183
 20
1583.110623
 42
0.000115
  0
VERTEX
  8
0
 10
1604.446564
 20
1601.992432
 42
0.000763
  0
VERTEX
  8
0
 10
1567.916777
 20
1623.201988
 42
0.000474
  0
VERTEX
  8
0
 10
1525.000000
 20
1647.978134
 42
-0.000630
  0
VERTEX
  8
0
 10
1482.127042
 20
1672.746776
 42
-0.001020
  0
VERTEX
  8
0
 10
1445.739063
 20
1693.929364
 42
-0.000129
  0
VERTEX
  8
0
 10
1413.371066
 20
1712.871527
 42
-0.081189
  0
VERTEX
  8
0
 10
1411.750000
 20
1714.214243
 42
-0.179087
  0
VERTEX
  8
0
 10
1410.546967
 20
1717.385330
 42
-0.000603
  0
VERTEX
  8
0
 10
1410.253119
 20
1759.496656
 42
-0.001341
  0
VERTEX
  8
0
 10
1410.038236
 20
1829.065167
 42
-0.000101
  0
VERTEX
  8
0
 10
1410.000000
 20
2017.422223
 42
0.000000
  0
VERTEX
  8
0
 10
1410.000000
 20
2318.622877
 42
0.000000
  0
VERTEX
  8
0
 10
1407.961045
 20
2320.811439
 42
-0.000077
  0
VERTEX
  8
0
 10
1407.164523
 20
2321.666670
 42
-0.000111
  0
VERTEX
  8
0
 10
1406.459038
 20
2322.424725
 42
-0.000059
  0
VERTEX
  8
0
 10
1405.861591
 20
2323.067130
 42
-0.001744
  0
VERTEX
  8
0
 10
1405.711045
 20
2323.230179
 42
0.208411
  0
VERTEX
  8
0
 10
1405.496040
 20
2323.325627
 42
0.000006
  0
VERTEX
  8
0
 10
1373.396369
 20
2323.545440
 42
0.000326
  0
VERTEX
  8
0
 10
1338.002252
 20
2323.764312
 42
0.000196
  0
VERTEX
  8
0
 10
1296.000000
 20
2323.980179
 42
0.000000
  0
VERTEX
  8
0
 10
1186.500000
 20
2324.500000
 42
0.000000
  0
VERTEX
  8
0
 10
1186.000000
 20
2336.000000
 42
0.011546
  0
VERTEX
  8
0
 10
1185.499485
 20
2343.510597
 42
0.045407
  0
VERTEX
  8
0
 10
1184.667883
 20
2348.070613
 42
0.081864
  0
VERTEX
  8
0
 10
1183.376021
 20
2350.854317
 42
0.152804
  0
VERTEX
  8
0
 10
1181.445993
 20
2352.382351
 42
0.090350
  0
VERTEX
  8
0
 10
1180.101919
 20
2352.635547
 42
0.000086
  0
VERTEX
  8
0
 10
1148.629243
 20
2352.818566
 42
0.000875
  0
VERTEX
  8
0
 10
1113.453604
 20
2352.955534
 42
0.000536
  0
VERTEX
  8
0
 10
1071.989641
 20
2353.000000
 42
-0.000344
  0
VERTEX
  8
0
 10
1008.704396
 20
2353.043558
 42
-0.003246
  0
VERTEX
  8
0
 10
981.543015
 20
2353.257285
 42
-0.002358
  0
VERTEX
  8
0
 10
964.898738
 20
2353.574829
 42
-0.192736
  0
VERTEX
  8
0
 10
962.571429
 20
2354.571429
 42
-0.113945
  0
VERTEX
  8
0
 10
961.810547
 20
2355.789145
 42
-0.045498
  0
VERTEX
  8
0
 10
961.338814
 20
2357.711486
 42
-0.028934
  0
VERTEX
  8
0
 10
961.075060
 20
2360.574867
 42
-0.008500
  0
VERTEX
  8
0
 10
961.000000
 20
2364.989641
 42
0.006471
  0
VERTEX
  8
0
 10
960.954618
 20
2368.495924
 42
0.008350
  0
VERTEX
  8
0
 10
960.817528
 20
2371.713197
 42
0.006588
  0
VERTEX
  8
0
 10
960.622978
 20
2374.393410
 42
0.070308
  0
VERTEX
  8
0
 10
960.378819
 20
2375.455198
 42
0.265369
  0
VERTEX
  8
0
 10
956.833387
 20
2378.355287
 42
0.031309
  0
VERTEX
  8
0
 10
946.307033
 20
2379.456442
 42
0.010094
  0
VERTEX
  8
0
 10
924.983120
 20
2379.913809
 42
0.000471
  0
VERTEX
  8
0
 10
852.799660
 20
2379.936614
 42
0.000809
  0
VERTEX
  8
0
 10
813.741558
 20
2379.848992
 42
0.001314
  0
VERTEX
  8
0
 10
780.565529
 20
2379.633694
 42
0.000187
  0
VERTEX
  8
0
 10
751.130708
 20
2379.354283
 42
0.093558
  0
SEQEND
  0
POLYLINE
  8
0
 66
1
 70
1
  0
VERTEX
  8
0
 10
955.065741
 20
2374.964816
 42
-0.128575
  0
VERTEX
  8
0
 10
956.089884
 20
2374.016179
 42
-0.094268
  0
VERTEX
  8
0
 10
956.666755
 20
2372.571576
 42
-0.041845
  0
VERTEX
  8
0
 10
956.937470
 20
2370.081834
 42
-0.006166
  0
VERTEX
  8
0
 10
957.000000
 20
2365.011869
 42
0.016555
  0
VERTEX
  8
0
 10
957.214681
 20
2358.529727
 42
0.059246
  0
VERTEX
  8
0
 10
957.974177
 20
2354.461542
 42
0.097726
  0
VERTEX
  8
0
 10
959.400986
 20
2351.835783
 42
0.113150
  0
VERTEX
  8
0
 10
961.657325
 20
2350.110272
 42
0.104118
  0
VERTEX
  8
0
 10
964.233995
 20
2349.533976
 42
0.000622
  0
VERTEX
  8
0
 10
988.625924
 20
2349.258217
 42
0.001954
  0
VERTEX
  8
0
 10
1021.350644
 20
2349.056866
 42
0.000561
  0
VERTEX
  8
0
 10
1072.011869
 20
2349.000000
 42
-0.000256
  0
VERTEX
  8
0
 10
1142.201123
 20
2348.964058
 42
-0.004182
  0
VERTEX
  8
0
 10
1165.735106
 20
2348.743121
 42
-0.005193
  0
VERTEX
  8
0
 10
1178.874349
 20
2348.373333
 42
-0.266257
  0
VERTEX
  8
0
 10
1180.964816
 20
2347.065741
 42
-0.092929
  0
VERTEX
  8
0
 10
1181.370980
 20
2345.780418
 42
-0.009530
  0
VERTEX
  8
0
 10
1181.695915
 20
2342.595985
 42
-0.011625
  0
VERTEX
  8
0
 10
1181.924348
 20
2338.753321
 42
-0.009032
  0
VERTEX
  8
0
 10
1182.000000
 20
2334.565741
 42
0.005532
  0
VERTEX
  8
0
 10
1182.066464
 20
2328.559178
 42
0.033940
  0
VERTEX
  8
0
 10
1182.344646
 20
2325.476072
 42
0.068463
  0
VERTEX
  8
0
 10
1182.935487
 20
2323.528513
 42
0.088766
  0
VERTEX
  8
0
 10
1184.000000
 20
2322.000000
 42
0.187057
  0
VERTEX
  8
0
 10
1187.023407
 20
2320.665902
 42
0.006888
  0
VERTEX
  8
0
 10
1199.748964
 20
2320.259254
 42
0.004291
  0
VERTEX
  8
0
 10
1223.069031
 20
2320.035677
 42
0.000251
  0
VERTEX
  8
0
 10
1294.065741
 20
2320.000000
 42
-0.000607
  0
VERTEX
  8
0
 10
1342.308120
 20
2319.941388
 42
-0.001745
  0
VERTEX
  8
0
 10
1375.796116
 20
2319.743130
 42
-0.000377
  0
VERTEX
  8
0
 10
1402.073303
 20
2319.476027
 42
-0.120701
  0
VERTEX
  8
0
 10
1404.065741
 20
2318.964816
 42
-0.274075
  0
VERTEX
  8
0
 10
1405.448736
 20
2316.680421
 42
-0.000741
  0
VERTEX
  8
0
 10
1405.747530
 20
2278.833551
 42
-0.001516
  0
VERTEX
  8
0
 10
1405.965394
 20
2214.419825
 42
-0.000088
  0
VERTEX
  8
0
 10
1406.000000
 20
2017.365945
 42
0.000124
  0
VERTEX
  8
0
 10
1406.043339
 20
1842.112185
 42
0.001138
  0
VERTEX
  8
0
 10
1406.253961
 20
1766.070310
 42
0.000473
  0
VERTEX
  8
0
 10
1406.542580
 20
1717.898236
 42
0.109466
  0
VERTEX
  8
0
 10
1407.532662
 20
1713.572412
 42
0.133583
  0
VERTEX
  8
0
 10
1410.543889
 20
1710.059554
 42
0.014502
  0
VERTEX
  8
0
 10
1419.624295
 20
1704.270764
 42
0.003827
  0
VERTEX
  8
0
 10
1438.678546
 20
1693.083905
 42
0.000089
  0
VERTEX
  8
0
 10
1529.000000
 20
1641.002483
 42
-0.000657
  0
VERTEX
  8
0
 10
1569.256158
 20
1617.728840
 42
-0.001048
  0
VERTEX
  8
0
 10
1603.604147
 20
1597.714323
 42
-0.000194
  0
VERTEX
  8
0
 10
1633.880596
 20
1579.971360
 42
-0.055411
  0
VERTEX
  8
0
 10
1636.226885
 20
1578.220124
 42
-0.063903
  0
VERTEX
  8
0
 10
1638.425927
 20
1575.562591
 42
-0.057578
  0
VERTEX
  8
0
 10
1639.975557
 20
1572.343198
 42
-0.058776
  0
VERTEX
  8
0
 10
1640.726035
 20
1568.925673
 42
-0.073442
  0
VERTEX
  8
0
 10
1640.570772
 20
1565.684821
 42
-0.080316
  0
VERTEX
  8
0
 10
1639.680667
 20
1563.282085
 42
-0.000141
  0
VERTEX
  8
0
 10
1618.304442
 20
1525.541791
 42
-0.001063
  0
VERTEX
  8
0
 10
1594.178455
 20
1483.185017
 42
-0.000658
  0
VERTEX
  8
0
 10
1565.651467
 20
1433.500000
 42
-0.000253
  0
VERTEX
  8
0
 10
1517.038169
 20
1349.187030
 42
-0.004146
  0
VERTEX
  8
0
 10
1500.505866
 20
1321.088377
 42
-0.007746
  0
VERTEX
  8
0
 10
1491.194639
 20
1306.090690
 42
-0.131227
  0
VERTEX
  8
0
 10
1486.929758
 20
1302.206335
 42
-0.022999
  0
VERTEX
  8
0
 10
1484.632350
 20
1301.147729
 42
-0.044945
  0
VERTEX
  8
0
 10
1482.705536
 20
1300.560202
 42
-0.052007
  0
VERTEX
  8
0
 10
1480.902295
 20
1300.375237
 42
-0.044507
  0
VERTEX
  8
0
 10
1479.000000
 20
1300.548171
 42
-0.082817
  0
VERTEX
  8
0
 10
1476.416842
 20
1301.476113
 42
-0.000425
  0
VERTEX
  8
0
 10
1452.613497
 20
1314.821340
 42
-0.001891
  0
VERTEX
  8
0
 10
1425.528374
 20
1330.171782
 42
-0.001190
  0
VERTEX
  8
0
 10
1394.000000
 20
1348.298014
 42
0.000457
  0
VERTEX
  8
0
 10
1362.297868
 20
1366.586086
 42
0.000681
  0
VERTEX
  8
0
 10
1334.531250
 20
1382.519785
 42
0.000284
  0
VERTEX
  8
0
 10
1310.724333
 20
1396.120223
 42
0.014484
  0
VERTEX
  8
0
 10
1306.000000
 20
1398.637092
 42
0.000000
  0
VERTEX
  8
0
 10
1299.500000
 20
1401.861826
 42
0.000000
  0
VERTEX
  8
0
 10
1081.500000
 20
1430.001999
 42
-0.000069
  0
VERTEX
  8
0
 10
997.771242
 20
1440.821782
 42
-0.000114
  0
VERTEX
  8
0
 10
926.950000
 20
1449.999986
 42
-0.000007
  0
VERTEX
  8
0
 10
863.139400
 20
1458.285274
 42
-0.019718
  0
VERTEX
  8
0
 10
861.500000
 20
1458.564264
 42
-0.181665
  0
VERTEX
  8
0
 10
860.004367
 20
1459.517448
 42
-0.000413
  0
VERTEX
  8
0
 10
843.930247
 20
1480.964985
 42
-0.002288
  0
VERTEX
  8
0
 10
824.240027
 20
1507.535258
 42
-0.000914
  0
VERTEX
  8
0
 10
797.500000
 20
1544.105860
 42
0.000725
  0
VERTEX
  8
0
 10
773.560214
 20
1576.872683
 42
0.001161
  0
VERTEX
  8
0
 10
753.011948
 20
1604.775909
 42
0.000202
  0
VERTEX
  8
0
 10
734.775512
 20
1629.399025
 42
0.065961
  0
VERTEX
  8
0
 10
733.115141
 20
1631.112682
 42
0.166677
  0
VERTEX
  8
0
 10
729.352994
 20
1632.439861
 42
0.000773
  0
VERTEX
  8
0
 10
687.191500
 20
1632.746732
 42
0.001349
  0
VERTEX
  8
0
 10
615.517255
 20
1632.964277
 42
0.000084
  0
VERTEX
  8
0
 10
403.900325
 20
1633.000000
 42
-0.000081
  0
VERTEX
  8
0
 10
189.548756
 20
1633.034546
 42
-0.001394
  0
VERTEX
  8
0
 10
119.561431
 20
1633.252271
 42
-0.000629
  0
VERTEX
  8
0
 10
78.328469
 20
1633.547387
 42
-0.274333
  0
VERTEX
  8
0
 10
76.035184
 20
1634.934259
 42
-0.122624
  0
VERTEX
  8
0
 10
75.508402
 20
1637.020202
 42
-0.000046
  0
VERTEX
  8
0
 10
75.252274
 20
1715.963630
 42
-0.000596
  0
VERTEX
  8
0
 10
75.056805
 20
1815.664200
 42
-0.000192
  0
VERTEX
  8
0
 10
75.000000
 20
1963.362830
 42
-0.000108
  0
VERTEX
  8
0
 10
75.041798
 20
2157.000356
 42
-0.001090
  0
VERTEX
  8
0
 10
75.252407
 20
2237.667272
 42
-0.000287
  0
VERTEX
  8
0
 10
75.527410
 20
2288.929108
 42
-0.197369
  0
VERTEX
  8
0
 10
76.571429
 20
2291.428571
 42
-0.196435
  0
VERTEX
  8
0
 10
79.029209
 20
2292.460376
 42
-0.000615
  0
VERTEX
  8
0
 10
113.464707
 20
2292.746436
 42
-0.001607
  0
VERTEX
  8
0
 10
168.188297
 20
2292.957786
 42
-0.000162
  0
VERTEX
  8
0
 10
298.616883
 20
2293.000000
 42
0.000000
  0
VERTEX
  8
0
 10
519.090909
 20
2293.000000
 42
0.000000
  0
VERTEX
  8
0
 10
521.545455
 20
2295.454545
 42
0.000000
  0
VERTEX
  8
0
 10
524.000000
 20
2297.909091
 42
0.000000
  0
VERTEX
  8
0
 10
524.000000
 20
2321.520287
 42
-0.003444
  0
VERTEX
  8
0
 10
524.067856
 20
2331.370081
 42
-0.006681
  0
VERTEX
  8
0
 10
524.281441
 20
2339.238056
 42
-0.004132
  0
VERTEX
  8
0
 10
524.585433
 20
2345.466908
 42
-0.109021
  0
VERTEX
  8
0
 10
525.035184
 20
2347.065741
 42
-0.266342
  0
VERTEX
  8
0
 10
527.127333
 20
2348.373922
 42
-0.005138
  0
VERTEX
  8
0
 10
540.345563
 20
2348.743161
 42
-0.004158
  0
VERTEX
  8
0
 10
564.011964
 20
2348.964070
 42
-0.000254
  0
VERTEX
  8
0
 10
634.612107
 20
2349.000000
 42
0.000000
  0
VERTEX
  8
0
 10
743.153846
 20
2349.000000
 42
0.000000
  0
VERTEX
  8
0
 10
746.076923
 20
2351.923077
 42
0.042531
  0
VERTEX
  8
0
 10
747.779870
 20
2353.943296
 42
0.096491
  0
VERTEX
  8
0
 10
748.596594
 20
2355.757577
 42
0.051883
  0
VERTEX
  8
0
 10
748.930212
 20
2358.371824
 42
0.005814
  0
VERTEX
  8
0
 10
749.000000
 20
2364.373387
 42
-0.006060
  0
VERTEX
  8
0
 10
749.063228
 20
2369.589927
 42
-0.035063
  0
VERTEX
  8
0
 10
749.322668
 20
2372.331911
 42
-0.073626
  0
VERTEX
  8
0
 10
749.842835
 20
2373.947872
 42
-0.147296
  0
VERTEX
  8
0
 10
750.750000
 20
2374.919901
 42
-0.132452
  0
VERTEX
  8
0
 10
754.623779
 20
2375.967192
 42
-0.000113
  0
VERTEX
  8
0
 10
852.827618
 20
2376.010916
 42
-0.000120
  0
VERTEX
  8
0
 10
950.904354
 20
2376.008922
 42
-0.123405
  0
SEQEND
  0
POLYLINE
  8
0
 66
1
 70
1
  0
VERTEX
  8
0
 10
1447.072580
 20
2312.365141
 42
0.000000
  0
VERTEX
  8
0
 10
1445.000000
 20
2309.730283
 42
0.000000
  0
VERTEX
  8
0
 10
1445.000000
 20
2024.420905
 42
0.000000
  0
VERTEX
  8
0
 10
1445.000000
 20
1739.111527
 42
0.000000
  0
VERTEX
  8
0
 10
1447.250000
 20
1736.602972
 42
0.079329
  0
VERTEX
  8
0
 10
1452.693190
 20
1732.189076
 42
0.000128
  0
VERTEX
  8
0
 10
1560.234010
 20
1670.218817
 42
0.000103
  0
VERTEX
  8
0
 10
1668.358782
 20
1607.978357
 42
0.099850
  0
VERTEX
  8
0
 10
1673.692734
 20
1606.192578
 42
0.045702
  0
VERTEX
  8
0
 10
1675.366415
 20
1606.137855
 42
0.075285
  0
VERTEX
  8
0
 10
1676.748630
 20
1606.430934
 42
0.070761
  0
VERTEX
  8
0
 10
1678.039823
 20
1607.137177
 42
0.035915
  0
VERTEX
  8
0
 10
1679.442734
 20
1608.351825
 42
0.000000
  0
VERTEX
  8
0
 10
1682.000000
 20
1610.909091
 42
0.000000
  0
VERTEX
  8
0
 10
1682.000000
 20
1960.780231
 42
0.000000
  0
VERTEX
  8
0
 10
1682.000000
 20
2310.651372
 42
0.000000
  0
VERTEX
  8
0
 10
1679.685549
 20
2312.825686
 42
0.000000
  0
VERTEX
  8
0
 10
1677.371098
 20
2315.000000
 42
0.000000
  0
VERTEX
  8
0
 10
1563.258129
 20
2315.000000
 42
0.000000
  0
VERTEX
  8
0
 10
1449.145160
 20
2315.000000
 42
0.000000
  0
SEQEND
  0
POLYLINE
  8
0
 66
1
 70
1
  0
VERTEX
  8
0
 10
1677.393011
 20
2309.418213
 42
-0.091413
  0
VERTEX
  8
0
 10
1677.642907
 20
2308.076113
 42
-0.000008
  0
VERTEX
  8
0
 10
1677.821697
 20
2206.158850
 42
-0.000271
  0
VERTEX
  8
0
 10
1677.956357
 20
2093.558939
 42
-0.000164
  0
VERTEX
  8
0
 10
1678.000000
 20
1960.118213
 42
-0.000147
  0
VERTEX
  8
0
 10
1677.948535
 20
1784.583549
 42
-0.000713
  0
VERTEX
  8
0
 10
1677.748274
 20
1685.089569
 42
-0.000064
  0
VERTEX
  8
0
 10
1677.490645
 20
1612.858693
 42
-0.197952
  0
VERTEX
  8
0
 10
1676.800000
 20
1611.200000
 42
-0.048334
  0
VERTEX
  8
0
 10
1676.242150
 20
1610.740706
 42
-0.037693
  0
VERTEX
  8
0
 10
1675.559173
 20
1610.352500
 42
-0.038800
  0
VERTEX
  8
0
 10
1674.860818
 20
1610.086481
 42
-0.071721
  0
VERTEX
  8
0
 10
1674.261015
 20
1610.000000
 42
-0.131446
  0
VERTEX
  8
0
 10
1671.980352
 20
1610.610111
 42
-0.000023
  0
VERTEX
  8
0
 10
1561.780997
 20
1674.121385
 42
-0.000026
  0
VERTEX
  8
0
 10
1451.715584
 20
1737.569824
 42
-0.115505
  0
VERTEX
  8
0
 10
1449.765313
 20
1739.397557
 42
-0.147341
  0
VERTEX
  8
0
 10
1449.462791
 20
1740.392227
 42
-0.000012
  0
VERTEX
  8
0
 10
1449.241942
 20
1823.615845
 42
-0.000402
  0
VERTEX
  8
0
 10
1449.074004
 20
1915.555610
 42
-0.000242
  0
VERTEX
  8
0
 10
1449.015313
 20
2024.550000
 42
-0.000180
  0
VERTEX
  8
0
 10
1449.059200
 20
2167.806895
 42
-0.000872
  0
VERTEX
  8
0
 10
1449.255302
 20
2249.181409
 42
-0.000095
  0
VERTEX
  8
0
 10
1449.511385
 20
2308.148135
 42
-0.197735
  0
VERTEX
  8
0
 10
1450.200000
 20
2309.800000
 42
-0.195592
  0
VERTEX
  8
0
 10
1451.795018
 20
2310.472656
 42
-0.000562
  0
VERTEX
  8
0
 10
1475.122386
 20
2310.744676
 42
-0.002165
  0
VERTEX
  8
0
 10
1507.743014
 20
2310.947128
 42
-0.000469
  0
VERTEX
  8
0
 10
1564.093011
 20
2311.000000
 42
-0.000317
  0
VERTEX
  8
0
 10
1630.817267
 20
2310.957667
 42
-0.003173
  0
VERTEX
  8
0
 10
1658.726863
 20
2310.745144
 42
-0.001814
  0
VERTEX
  8
0
 10
1675.936317
 20
2310.442414
 42
-0.304732
  0
SEQEND
  0
POLYLINE
  8
0
 66
1
 70
1
  0
VERTEX
  8
0
 10
800.923077
 20
1181.076923
 42
0.042183
  0
VERTEX
  8
0
 10
799.222929
 20
1179.062864
 42
0.096156
  0
VERTEX
  8
0
 10
798.405865
 20
1177.257738
 42
0.052375
  0
VERTEX
  8
0
 10
798.070719
 20
1174.667337
 42
0.006003
  0
VERTEX
  8
0
 10
798.000000
 20
1168.776923
 42
-0.009268
  0
VERTEX
  8
0
 10
797.924708
 20
1164.715268
 42
-0.018978
  0
VERTEX
  8
0
 10
797.686013
 20
1161.539539
 42
-0.019858
  0
VERTEX
  8
0
 10
797.323579
 20
1159.184228
 42
-0.149347
  0
VERTEX
  8
0
 10
796.800000
 20
1158.200000
 42
-0.195438
  0
VERTEX
  8
0
 10
795.208682
 20
1157.528351
 42
-0.000605
  0
VERTEX
  8
0
 10
772.783568
 20
1157.255538
 42
-0.002249
  0
VERTEX
  8
0
 10
741.400132
 20
1157.052956
 42
-0.000489
  0
VERTEX
  8
0
 10
687.254545
 20
1157.000000
 42
0.000000
  0
VERTEX
  8
0
 10
578.909091
 20
1157.000000
 42
0.000000
  0
VERTEX
  8
0
 10
576.454545
 20
1154.545455
 42
0.064201
  0
VERTEX
  8
0
 10
575.071841
 20
1152.753417
 42
0.087089
  0
VERTEX
  8
0
 10
574.362357
 20
1150.840737
 42
0.040662
  0
VERTEX
  8
0
 10
574.063316
 20
1147.865838
 42
0.004726
  0
VERTEX
  8
0
 10
574.000000
 20
1141.167899
 42
-0.006571
  0
VERTEX
  8
0
 10
573.931496
 20
1135.955235
 42
-0.021089
  0
VERTEX
  8
0
 10
573.694022
 20
1132.491579
 42
-0.028384
  0
VERTEX
  8
0
 10
573.302743
 20
1130.175782
 42
-0.164957
  0
VERTEX
  8
0
 10
572.663458
 20
1129.135658
 42
-0.171289
  0
VERTEX
  8
0
 10
571.076378
 20
1128.550136
 42
-0.000418
  0
VERTEX
  8
0
 10
546.468049
 20
1128.222430
 42
-0.001965
  0
VERTEX
  8
0
 10
513.802250
 20
1127.943165
 42
-0.000549
  0
VERTEX
  8
0
 10
462.691071
 20
1127.763213
 42
0.000000
  0
VERTEX
  8
0
 10
354.055228
 20
1127.500000
 42
0.000000
  0
VERTEX
  8
0
 10
351.777614
 20
1125.222253
 42
0.000000
  0
VERTEX
  8
0
 10
349.500000
 20
1122.944506
 42
0.000000
  0
VERTEX
  8
0
 10
349.243523
 20
821.140482
 42
0.000000
  0
VERTEX
  8
0
 10
348.987046
 20
519.336459
 42
0.000000
  0
VERTEX
  8
0
 10
346.743523
 20
517.327062
 42
-0.050615
  0
VERTEX
  8
0
 10
344.812401
 20
515.921242
 42
-0.000108
  0
VERTEX
  8
0
 10
313.140285
 20
497.453282
 42
-0.000743
  0
VERTEX
  8
0
 10
277.448694
 20
476.722933
 42
-0.000462
  0
VERTEX
  8
0
 10
235.500000
 20
452.493349
 42
0.000119
  0
VERTEX
  8
0
 10
193.448045
 20
428.242552
 42
0.000188
  0
VERTEX
  8
0
 10
157.423221
 20
407.438035
 42
0.000039
  0
VERTEX
  8
0
 10
125.727226
 20
389.114224
 42
0.008742
  0
VERTEX
  8
0
 10
122.770539
 20
387.334937
 42
0.071270
  0
VERTEX
  8
0
 10
119.503497
 20
384.574691
 42
0.066011
  0
VERTEX
  8
0
 10
117.042601
 20
380.939938
 42
0.062559
  0
VERTEX
  8
0
 10
115.516495
 20
376.603195
 42
0.053404
  0
VERTEX
  8
0
 10
115.000000
 20
371.781239
 42
0.119216
  0
VERTEX
  8
0
 10
116.431620
 20
365.862283
 42
0.007609
  0
VERTEX
  8
0
 10
124.876217
 20
350.024302
 42
0.004035
  0
VERTEX
  8
0
 10
141.111127
 20
321.212211
 42
0.000255
  0
VERTEX
  8
0
 10
189.524208
 20
236.991401
 42
0.000608
  0
VERTEX
  8
0
 10
222.703101
 20
179.502320
 42
0.001684
  0
VERTEX
  8
0
 10
246.229227
 20
139.166692
 42
0.000488
  0
VERTEX
  8
0
 10
264.732072
 20
107.757803
 42
0.081644
  0
VERTEX
  8
0
 10
267.269325
 20
104.722541
 42
0.055755
  0
VERTEX
  8
0
 10
270.758555
 20
102.334363
 42
0.059406
  0
VERTEX
  8
0
 10
274.617084
 20
100.837155
 42
0.061234
  0
VERTEX
  8
0
 10
278.610992
 20
100.318439
 42
0.066339
  0
VERTEX
  8
0
 10
282.500000
 20
100.809663
 42
0.063498
  0
VERTEX
  8
0
 10
285.453498
 20
102.006337
 42
0.000397
  0
VERTEX
  8
0
 10
310.465810
 20
116.081926
 42
0.001614
  0
VERTEX
  8
0
 10
338.990973
 20
132.285750
 42
0.001028
  0
VERTEX
  8
0
 10
372.085735
 20
151.317338
 42
-0.000862
  0
VERTEX
  8
0
 10
405.105091
 20
170.320108
 42
-0.001378
  0
VERTEX
  8
0
 10
433.386726
 20
186.428081
 42
-0.000250
  0
VERTEX
  8
0
 10
458.409143
 20
200.572086
 42
-0.075274
  0
VERTEX
  8
0
 10
460.585735
 20
201.400606
 42
-0.020744
  0
VERTEX
  8
0
 10
462.961372
 20
201.813214
 42
-0.000014
  0
VERTEX
  8
0
 10
526.955990
 20
210.209353
 42
-0.000174
  0
VERTEX
  8
0
 10
598.284936
 20
219.540447
 42
-0.000106
  0
VERTEX
  8
0
 10
682.434657
 20
230.500797
 42
0.000379
  0
VERTEX
  8
0
 10
766.457574
 20
241.491294
 42
0.000628
  0
VERTEX
  8
0
 10
837.370203
 20
250.912204
 42
0.000026
  0
VERTEX
  8
0
 10
901.396474
 20
259.503492
 42
0.161366
  0
VERTEX
  8
0
 10
902.434657
 20
260.009371
 42
0.041188
  0
VERTEX
  8
0
 10
903.221426
 20
260.915373
 42
0.000031
  0
VERTEX
  8
0
 10
921.559979
 20
285.925715
 42
0.000357
  0
VERTEX
  8
0
 10
941.989221
 20
313.832730
 42
0.000218
  0
VERTEX
  8
0
 10
966.046122
 20
346.774714
 42
0.000000
  0
VERTEX
  8
0
 10
1028.592244
 20
432.500000
 42
0.000000
  0
VERTEX
  8
0
 10
1355.983281
 20
432.751513
 42
0.000000
  0
VERTEX
  8
0
 10
1683.374319
 20
433.003026
 42
0.000000
  0
VERTEX
  8
0
 10
1685.687159
 20
435.175827
 42
0.000000
  0
VERTEX
  8
0
 10
1688.000000
 20
437.348628
 42
0.000000
  0
VERTEX
  8
0
 10
1688.000000
 20
766.719769
 42
0.000000
  0
VERTEX
  8
0
 10
1688.000000
 20
1096.090909
 42
0.000000
  0
VERTEX
  8
0
 10
1685.545455
 20
1098.545455
 42
0.000000
  0
VERTEX
  8
0
 10
1683.090909
 20
1101.000000
 42
0.000000
  0
VERTEX
  8
0
 10
1462.616883
 20
1101.000000
 42
-0.000162
  0
VERTEX
  8
0
 10
1332.188297
 20
1101.042214
 42
-0.001607
  0
VERTEX
  8
0
 10
1277.464707
 20
1101.253564
 42
-0.000615
  0
VERTEX
  8
0
 10
1243.029209
 20
1101.539624
 42
-0.196435
  0
VERTEX
  8
0
 10
1240.571429
 20
1102.571429
 42
-0.159443
  0
VERTEX
  8
0
 10
1239.704848
 20
1104.280903
 42
-0.023049
  0
VERTEX
  8
0
 10
1239.282395
 20
1108.219094
 42
-0.013232
  0
VERTEX
  8
0
 10
1239.052958
 20
1114.903461
 42
-0.001962
  0
VERTEX
  8
0
 10
1239.000000
 20
1128.397115
 42
0.001327
  0
VERTEX
  8
0
 10
1238.957679
 20
1144.347497
 42
0.020514
  0
VERTEX
  8
0
 10
1238.703732
 20
1149.824967
 42
0.066116
  0
VERTEX
  8
0
 10
1238.048496
 20
1152.763513
 42
0.116821
  0
VERTEX
  8
0
 10
1236.685549
 20
1154.825686
 42
0.000000
  0
VERTEX
  8
0
 10
1234.371098
 20
1157.000000
 42
0.000000
  0
VERTEX
  8
0
 10
1125.885549
 20
1157.000000
 42
-0.000488
  0
VERTEX
  8
0
 10
1071.668929
 20
1157.052953
 42
-0.002247
  0
VERTEX
  8
0
 10
1040.245625
 20
1157.255531
 42
-0.000604
  0
VERTEX
  8
0
 10
1017.791442
 20
1157.528317
 42
-0.195444
  0
VERTEX
  8
0
 10
1016.200000
 20
1158.200000
 42
-0.149347
  0
VERTEX
  8
0
 10
1015.676421
 20
1159.184228
 42
-0.019858
  0
VERTEX
  8
0
 10
1015.313987
 20
1161.539539
 42
-0.018978
  0
VERTEX
  8
0
 10
1015.075292
 20
1164.715268
 42
-0.009268
  0
VERTEX
  8
0
 10
1015.000000
 20
1168.776923
 42
0.006003
  0
VERTEX
  8
0
 10
1014.929281
 20
1174.667337
 42
0.052375
  0
VERTEX
  8
0
 10
1014.594135
 20
1177.257738
 42
0.096156
  0
VERTEX
  8
0
 10
1013.777071
 20
1179.062864
 42
0.042183
  0
VERTEX
  8
0
 10
1012.076923
 20
1181.076923
 42
0.000000
  0
VERTEX
  8
0
 10
1009.153846
 20
1184.000000
 42
0.000000
  0
VERTEX
  8
0
 10
906.500000
 20
1184.000000
 42
0.000000
  0
VERTEX
  8
0
 10
803.846154
 20
1184.000000
 42
0.000000
  0
SEQEND
  0
POLYLINE
  8
0
 66
1
 70
1
  0
VERTEX
  8
0
 10
1009.428571
 20
1178.428571
 42
-0.116894
  0
VERTEX
  8
0
 10
1010.197788
 20
1177.181424
 42
-0.044683
  0
VERTEX
  8
0
 10
1010.667066
 20
1175.182845
 42
-0.027724
  0
VERTEX
  8
0
 10
1010.927244
 20
1172.160997
 42
-0.007613
  0
VERTEX
  8
0
 10
1011.000000
 20
1167.383117
 42
0.006153
  0
VERTEX
  8
0
 10
1011.069888
 20
1161.704367
 42
0.044611
  0
VERTEX
  8
0
 10
1011.379541
 20
1158.994497
 42
0.086381
  0
VERTEX
  8
0
 10
1012.091337
 20
1157.187636
 42
0.059518
  0
VERTEX
  8
0
 10
1013.454545
 20
1155.454545
 42
0.000000
  0
VERTEX
  8
0
 10
1015.909091
 20
1153.000000
 42
0.000000
  0
VERTEX
  8
0
 10
1124.254545
 20
1153.000000
 42
-0.000489
  0
VERTEX
  8
0
 10
1178.400132
 20
1152.947044
 42
-0.002249
  0
VERTEX
  8
0
 10
1209.783568
 20
1152.744462
 42
-0.000605
  0
VERTEX
  8
0
 10
1232.208682
 20
1152.471649
 42
-0.195438
  0
VERTEX
  8
0
 10
1233.800000
 20
1151.800000
 42
-0.177988
  0
VERTEX
  8
0
 10
1234.400160
 20
1150.502052
 42
-0.008003
  0
VERTEX
  8
0
 10
1234.724321
 20
1145.507816
 42
-0.009459
  0
VERTEX
  8
0
 10
1234.939164
 20
1138.322513
 42
-0.002743
  0
VERTEX
  8
0
 10
1235.000000
 20
1127.234259
 42
0.003475
  0
VERTEX
  8
0
 10
1235.107470
 20
1111.769148
 42
0.030122
  0
VERTEX
  8
0
 10
1235.617207
 20
1104.904960
 42
0.074531
  0
VERTEX
  8
0
 10
1236.759751
 20
1100.978058
 42
0.121618
  0
VERTEX
  8
0
 10
1238.913343
 20
1098.281803
 42
0.163530
  0
VERTEX
  8
0
 10
1240.954653
 20
1097.581258
 42
0.000193
  0
VERTEX
  8
0
 10
1286.022465
 20
1097.310258
 42
0.001141
  0
VERTEX
  8
0
 10
1349.024339
 20
1097.099480
 42
0.000230
  0
VERTEX
  8
0
 10
1461.050000
 20
1097.031803
 42
-0.000234
  0
VERTEX
  8
0
 10
1572.072130
 20
1096.963922
 42
-0.001119
  0
VERTEX
  8
0
 10
1635.391551
 20
1096.753907
 42
-0.000155
  0
VERTEX
  8
0
 10
1681.159468
 20
1096.485473
 42
-0.197308
  0
VERTEX
  8
0
 10
1682.800000
 20
1095.800000
 42
-0.198901
  0
VERTEX
  8
0
 10
1684.103957
 20
1092.652171
 42
-0.000011
  0
VERTEX
  8
0
 10
1684.111340
 20
767.000000
 42
-0.000011
  0
VERTEX
  8
0
 10
1684.103957
 20
441.347829
 42
-0.198901
  0
VERTEX
  8
0
 10
1682.800000
 20
438.200000
 42
-0.197883
  0
VERTEX
  8
0
 10
1681.143402
 20
437.509968
 42
-0.000072
  0
VERTEX
  8
0
 10
1613.490404
 20
437.251842
 42
-0.000761
  0
VERTEX
  8
0
 10
1520.251262
 20
437.051511
 42
-0.000157
  0
VERTEX
  8
0
 10
1355.865100
 20
437.000000
 42
0.000239
  0
VERTEX
  8
0
 10
1227.538336
 20
436.938726
 42
0.000434
  0
VERTEX
  8
0
 10
1122.645380
 20
436.747546
 42
0.000023
  0
VERTEX
  8
0
 10
1029.842454
 20
436.493694
 42
0.090603
  0
VERTEX
  8
0
 10
1027.815100
 20
436.117456
 42
0.141538
  0
VERTEX
  8
0
 10
1026.096906
 20
434.823669
 42
0.000444
  0
VERTEX
  8
0
 10
1009.602957
 20
412.821916
 42
0.002188
  0
VERTEX
  8
0
 10
989.571580
 20
385.806346
 42
0.000934
  0
VERTEX
  8
0
 10
963.000000
 20
349.498605
 42
-0.001014
  0
VERTEX
  8
0
 10
938.894195
 20
316.571160
 42
-0.001648
  0
VERTEX
  8
0
 10
918.271875
 20
288.714285
 42
-0.000205
  0
VERTEX
  8
0
 10
899.817132
 20
263.977579
 42
-0.138826
  0
VERTEX
  8
0
 10
898.500000
 20
262.968929
 42
-0.061311
  0
VERTEX
  8
0
 10
896.835027
 20
262.534599
 42
-0.000063
  0
VERTEX
  8
0
 10
859.193750
 20
257.514615
 42
-0.000622
  0
VERTEX
  8
0
 10
817.101665
 20
251.959750
 42
-0.000382
  0
VERTEX
  8
0
 10
767.500000
 20
245.515142
 42
0.000052
  0
VERTEX
  8
0
 10
591.015328
 20
222.703218
 42
0.000466
  0
VERTEX
  8
0
 10
513.235005
 20
212.567579
 42
0.000219
  0
VERTEX
  8
0
 10
463.996238
 20
206.082629
 42
0.036897
  0
VERTEX
  8
0
 10
458.725030
 20
204.985812
 42
0.058627
  0
VERTEX
  8
0
 10
455.926972
 20
203.815883
 42
0.000350
  0
VERTEX
  8
0
 10
431.611604
 20
190.091685
 42
0.001457
  0
VERTEX
  8
0
 10
403.898843
 20
174.317542
 42
0.000927
  0
VERTEX
  8
0
 10
371.725030
 20
155.800480
 42
-0.000472
  0
VERTEX
  8
0
 10
339.519010
 20
137.225882
 42
-0.000734
  0
VERTEX
  8
0
 10
311.699606
 20
121.270516
 42
-0.000205
  0
VERTEX
  8
0
 10
287.439683
 20
107.417096
 42
-0.024765
  0
VERTEX
  8
0
 10
284.252352
 20
105.802349
 42
-0.062585
  0
VERTEX
  8
0
 10
280.361694
 20
104.622663
 42
-0.078550
  0
VERTEX
  8
0
 10
276.598281
 20
104.575191
 42
-0.080528
  0
VERTEX
  8
0
 10
273.076402
 20
105.683469
 42
-0.069969
  0
VERTEX
  8
0
 10
269.891624
 20
107.887122
 42
-0.073941
  0
VERTEX
  8
0
 10
267.990817
 20
110.246438
 42
-0.000184
  0
VERTEX
  8
0
 10
246.144708
 20
147.514445
 42
-0.001167
  0
VERTEX
  8
0
 10
221.613560
 20
189.623296
 42
-0.000726
  0
VERTEX
  8
0
 10
193.029313
 20
239.119500
 42
-0.000320
  0
VERTEX
  8
0
 10
148.542940
 20
316.525101
 42
-0.003351
  0
VERTEX
  8
0
 10
130.551925
 20
348.368024
 42
-0.003805
  0
VERTEX
  8
0
 10
120.259313
 20
367.209938
 42
-0.123715
  0
VERTEX
  8
0
 10
119.000000
 20
372.221616
 42
-0.032108
  0
VERTEX
  8
0
 10
119.139817
 20
374.396664
 42
-0.038514
  0
VERTEX
  8
0
 10
119.558015
 20
376.404206
 42
-0.039993
  0
VERTEX
  8
0
 10
120.260944
 20
378.258694
 42
-0.040025
  0
VERTEX
  8
0
 10
121.250000
 20
379.977095
 42
-0.107080
  0
VERTEX
  8
0
 10
124.280257
 20
382.829537
 42
-0.001458
  0
VERTEX
  8
0
 10
146.271171
 20
395.979194
 42
-0.002656
  0
VERTEX
  8
0
 10
178.672823
 20
414.993922
 42
-0.000538
  0
VERTEX
  8
0
 10
236.396548
 20
448.374978
 42
0.000702
  0
VERTEX
  8
0
 10
286.224486
 20
477.211800
 42
0.001908
  0
VERTEX
  8
0
 10
321.412704
 20
497.822160
 42
0.000516
  0
VERTEX
  8
0
 10
348.985663
 20
514.152225
 42
0.099008
  0
VERTEX
  8
0
 10
351.396548
 20
516.323298
 42
0.000000
  0
VERTEX
  8
0
 10
353.500000
 20
519.146597
 42
0.000000
  0
VERTEX
  8
0
 10
353.746392
 20
820.323298
 42
-0.000106
  0
VERTEX
  8
0
 10
353.937369
 20
1005.872131
 42
-0.001295
  0
VERTEX
  8
0
 10
354.208831
 20
1076.760401
 42
-0.000428
  0
VERTEX
  8
0
 10
354.526821
 20
1120.474658
 42
-0.236033
  0
VERTEX
  8
0
 10
355.687521
 20
1122.750000
 42
-0.156420
  0
VERTEX
  8
0
 10
357.798424
 20
1123.461679
 42
-0.000870
  0
VERTEX
  8
0
 10
379.270296
 20
1123.743198
 42
-0.002374
  0
VERTEX
  8
0
 10
410.192329
 20
1123.948005
 42
-0.000469
  0
VERTEX
  8
0
 10
465.618549
 20
1124.000000
 42
0.000000
  0
VERTEX
  8
0
 10
573.854840
 20
1124.000000
 42
0.000000
  0
VERTEX
  8
0
 10
575.927420
 20
1126.634859
 42
0.067405
  0
VERTEX
  8
0
 10
577.027541
 20
1128.504264
 42
0.060754
  0
VERTEX
  8
0
 10
577.639654
 20
1130.665892
 42
0.032742
  0
VERTEX
  8
0
 10
577.928570
 20
1133.898879
 42
0.005917
  0
VERTEX
  8
0
 10
578.000000
 20
1139.934859
 42
-0.007706
  0
VERTEX
  8
0
 10
578.072480
 20
1144.637146
 42
-0.017494
  0
VERTEX
  8
0
 10
578.306258
 20
1148.184354
 42
-0.018303
  0
VERTEX
  8
0
 10
578.663625
 20
1150.768960
 42
-0.154052
  0
VERTEX
  8
0
 10
579.200000
 20
1151.800000
 42
-0.195438
  0
VERTEX
  8
0
 10
580.791318
 20
1152.471649
 42
-0.000605
  0
VERTEX
  8
0
 10
603.216432
 20
1152.744462
 42
-0.002249
  0
VERTEX
  8
0
 10
634.599868
 20
1152.947044
 42
-0.000489
  0
VERTEX
  8
0
 10
688.745455
 20
1153.000000
 42
0.000000
  0
VERTEX
  8
0
 10
797.090909
 20
1153.000000
 42
0.000000
  0
VERTEX
  8
0
 10
799.545455
 20
1155.454545
 42
0.058691
  0
VERTEX
  8
0
 10
800.904497
 20
1157.176492
 42
0.086116
  0
VERTEX
  8
0
 10
801.616843
 20
1158.964673
 42
0.045371
  0
VERTEX
  8
0
 10
801.928710
 20
1161.627059
 42
0.006482
  0
VERTEX
  8
0
 10
802.000000
 20
1167.125805
 42
-0.007993
  0
VERTEX
  8
0
 10
802.075244
 20
1171.832655
 42
-0.029198
  0
VERTEX
  8
0
 10
802.344495
 20
1174.804671
 42
-0.047373
  0
VERTEX
  8
0
 10
802.840752
 20
1176.803067
 42
-0.099699
  0
VERTEX
  8
0
 10
803.654988
 20
1178.171259
 42
-0.201959
  0
VERTEX
  8
0
 10
806.230702
 20
1179.373412
 42
-0.005089
  0
VERTEX
  8
0
 10
819.396909
 20
1179.741400
 42
-0.004140
  0
VERTEX
  8
0
 10
842.601084
 20
1179.961488
 42
-0.000301
  0
VERTEX
  8
0
 10
906.583559
 20
1180.000000
 42
-0.000368
  0
VERTEX
  8
0
 10
965.950634
 20
1179.956270
 42
-0.003451
  0
VERTEX
  8
0
 10
991.503195
 20
1179.742242
 42
-0.002642
  0
VERTEX
  8
0
 10
1007.117291
 20
1179.421121
 42
-0.192203
  0
SEQEND
  0
POLYLINE
  8
0
 66
1
 70
1
  0
VERTEX
  8
0
 10
83.354429
 20
1119.307952
 42
0.059146
  0
VERTEX
  8
0
 10
82.398803
 20
1119.000446
 42
0.030883
  0
VERTEX
  8
0
 10
81.294382
 20
1118.409628
 42
0.030223
  0
VERTEX
  8
0
 10
80.221692
 20
1117.654471
 42
0.040373
  0
VERTEX
  8
0
 10
79.354429
 20
1116.839172
 42
0.183801
  0
VERTEX
  8
0
 10
78.048829
 20
1113.493154
 42
0.000585
  0
VERTEX
  8
0
 10
77.713259
 20
1067.593151
 42
0.001243
  0
VERTEX
  8
0
 10
77.431524
 20
990.483238
 42
0.000081
  0
VERTEX
  8
0
 10
77.207143
 20
767.145038
 42
0.000183
  0
VERTEX
  8
0
 10
77.132359
 20
610.442169
 42
0.000553
  0
VERTEX
  8
0
 10
77.238378
 20
503.771648
 42
0.000067
  0
VERTEX
  8
0
 10
77.426446
 20
419.563099
 42
0.069686
  0
VERTEX
  8
0
 10
77.944655
 20
415.925663
 42
0.080778
  0
VERTEX
  8
0
 10
79.237365
 20
413.193014
 42
0.099317
  0
VERTEX
  8
0
 10
81.259622
 20
411.233111
 42
0.102477
  0
VERTEX
  8
0
 10
83.827502
 20
410.244458
 42
0.091302
  0
VERTEX
  8
0
 10
86.690179
 20
410.298356
 42
0.080675
  0
VERTEX
  8
0
 10
91.566759
 20
412.144642
 42
0.000070
  0
VERTEX
  8
0
 10
200.403593
 20
474.904383
 42
0.000056
  0
VERTEX
  8
0
 10
309.666620
 20
537.946507
 42
0.102738
  0
VERTEX
  8
0
 10
312.750000
 20
540.695828
 42
0.159576
  0
VERTEX
  8
0
 10
313.484529
 20
542.902219
 42
0.000136
  0
VERTEX
  8
0
 10
313.747436
 20
599.890574
 42
0.000915
  0
VERTEX
  8
0
 10
313.949682
 20
680.477711
 42
0.000170
  0
VERTEX
  8
0
 10
314.000000
 20
828.691130
 42
0.000100
  0
VERTEX
  8
0
 10
313.963361
 20
1011.723981
 42
0.001491
  0
VERTEX
  8
0
 10
313.746796
 20
1075.733876
 42
0.000776
  0
VERTEX
  8
0
 10
313.445479
 20
1113.785411
 42
0.196452
  0
VERTEX
  8
0
 10
312.165596
 20
1116.834404
 42
0.171695
  0
VERTEX
  8
0
 10
309.786079
 20
1117.970148
 42
0.014566
  0
VERTEX
  8
0
 10
302.920024
 20
1118.493798
 42
0.007823
  0
VERTEX
  8
0
 10
290.515351
 20
1118.882726
 42
0.000683
  0
VERTEX
  8
0
 10
259.001132
 20
1119.334404
 42
0.002218
  0
VERTEX
  8
0
 10
212.260957
 20
1119.733126
 42
0.001061
  0
VERTEX
  8
0
 10
152.217628
 20
1119.851531
 42
0.000168
  0
VERTEX
  8
0
 10
88.623075
 20
1119.820589
 42
0.048123
  0
SEQEND
  0
POLYLINE
  8
0
 66
1
 70
1
  0
VERTEX
  8
0
 10
309.500000
 20
828.541423
 42
0.000000
  0
VERTEX
  8
0
 10
309.500000
 20
542.582846
 42
0.000000
  0
VERTEX
  8
0
 10
198.014128
 20
478.252782
 42
-0.000782
  0
VERTEX
  8
0
 10
152.293757
 20
451.966205
 42
-0.001629
  0
VERTEX
  8
0
 10
116.568377
 20
431.654724
 42
-0.000200
  0
VERTEX
  8
0
 10
86.177900
 20
414.523208
 42
-0.165293
  0
VERTEX
  8
0
 10
84.514128
 20
414.211359
 42
-0.370578
  0
VERTEX
  8
0
 10
83.045009
 20
415.890856
 42
-0.000602
  0
VERTEX
  8
0
 10
82.719859
 20
458.105077
 42
-0.001370
  0
VERTEX
  8
0
 10
82.448078
 20
530.424664
 42
-0.000071
  0
VERTEX
  8
0
 10
82.244092
 20
763.500000
 42
-0.000128
  0
VERTEX
  8
0
 10
82.180200
 20
897.409879
 42
-0.000212
  0
VERTEX
  8
0
 10
82.203230
 20
1010.349694
 42
-0.000005
  0
VERTEX
  8
0
 10
82.268635
 20
1112.689260
 42
-0.090792
  0
VERTEX
  8
0
 10
82.464348
 20
1113.754276
 42
-0.308493
  0
VERTEX
  8
0
 10
83.509678
 20
1114.484113
 42
-0.000564
  0
VERTEX
  8
0
 10
105.697914
 20
1114.704211
 42
-0.002330
  0
VERTEX
  8
0
 10
137.521358
 20
1114.835672
 42
-0.000429
  0
VERTEX
  8
0
 10
196.220256
 20
1114.754276
 42
0.000000
  0
VERTEX
  8
0
 10
309.500000
 20
1114.500000
 42
0.000000
  0
SEQEND
  0
POLYLINE
  8
0
 66
1
 70
1
  0
VERTEX
  8
0
 10
768.000000
 20
2271.500000
 42
0.000000
  0
VERTEX
  8
0
 10
768.000000
 20
2187.000000
 42
0.000000
  0
VERTEX
  8
0
 10
853.000000
 20
2187.000000
 42
0.000000
  0
VERTEX
  8
0
 10
938.000000
 20
2187.000000
 42
0.000000
  0
VERTEX
  8
0
 10
938.000000
 20
2271.500000
 42
0.000000
  0
VERTEX
  8
0
 10
938.000000
 20
2356.000000
 42
0.000000
  0
VERTEX
  8
0
 10
853.000000
 20
2356.000000
 42
0.000000
  0
VERTEX
  8
0
 10
768.000000
 20
2356.000000
 42
0.000000
  0
SEQEND
  0
POLYLINE
  8
0
 66
1
 70
1
  0
VERTEX
  8
0
 10
934.000000
 20
2271.500000
 42
0.000000
  0
VERTEX
  8
0
 10
934.000000
 20
2191.000000
 42
0.000000
  0
VERTEX
  8
0
 10
853.000000
 20
2191.000000
 42
0.000000
  0
VERTEX
  8
0
 10
772.000000
 20
2191.000000
 42
0.000000
  0
VERTEX
  8
0
 10
772.000000
 20
2271.500000
 42
0.000000
  0
VERTEX
  8
0
 10
772.000000
 20
2352.000000
 42
0.000000
  0
VERTEX
  8
0
 10
853.000000
 20
2352.000000
 42
0.000000
  0
VERTEX
  8
0
 10
934.000000
 20
2352.000000
 42
0.000000
  0
SEQEND
  0
POLYLINE
  8
0
 66
1
 70
1
  0
VERTEX
  8
0
 10
544.000000
 20
2243.500000
 42
0.000000
  0
VERTEX
  8
0
 10
544.000000
 20
2159.000000
 42
0.000000
  0
VERTEX
  8
0
 10
628.500000
 20
2159.000000
 42
0.000000
  0
VERTEX
  8
0
 10
713.000000
 20
2159.000000
 42
0.000000
  0
VERTEX
  8
0
 10
713.000000
 20
2243.500000
 42
0.000000
  0
VERTEX
  8
0
 10
713.000000
 20
2328.000000
 42
0.000000
  0
VERTEX
  8
0
 10
628.500000
 20
2328.000000
 42
0.000000
  0
VERTEX
  8
0
 10
544.000000
 20
2328.000000
 42
0.000000
  0
SEQEND
  0
POLYLINE
  8
0
 66
1
 70
1
  0
VERTEX
  8
0
 10
709.000000
 20
2243.500000
 42
0.000000
  0
VERTEX
  8
0
 10
709.000000
 20
2163.000000
 42
0.000000
  0
VERTEX
  8
0
 10
628.500000
 20
2163.000000
 42
0.000000
  0
VERTEX
  8
0
 10
548.000000
 20
2163.000000
 42
0.000000
  0
VERTEX
  8
0
 10
548.000000
 20
2243.500000
 42
0.000000
  0
VERTEX
  8
0
 10
548.000000
 20
2324.000000
 42
0.000000
  0
VERTEX
  8
0
 10
628.500000
 20
2324.000000
 42
0.000000
  0
VERTEX
  8
0
 10
709.000000
 20
2324.000000
 42
0.000000
  0
SEQEND
  0
POLYLINE
  8
0
 66
1
 70
1
  0
VERTEX
  8
0
 10
993.000000
 20
2243.500000
 42
0.000000
  0
VERTEX
  8
0
 10
993.000000
 20
2159.000000
 42
0.000000
  0
VERTEX
  8
0
 10
1077.500000
 20
2159.000000
 42
0.000000
  0
VERTEX
  8
0
 10
1162.000000
 20
2159.000000
 42
0.000000
  0
VERTEX
  8
0
 10
1162.000000
 20
2243.500000
 42
0.000000
  0
VERTEX
  8
0
 10
1162.000000
 20
2328.000000
 42
0.000000
  0
VERTEX
  8
0
 10
1077.500000
 20
2328.000000
 42
0.000000
  0
VERTEX
  8
0
 10
993.000000
 20
2328.000000
 42
0.000000
  0
SEQEND
  0
POLYLINE
  8
0
 66
1
 70
1
  0
VERTEX
  8
0
 10
1158.000000
 20
2243.500000
 42
0.000000
  0
VERTEX
  8
0
 10
1158.000000
 20
2163.000000
 42
0.000000
  0
VERTEX
  8
0
 10
1077.500000
 20
2163.000000
 42
0.000000
  0
VERTEX
  8
0
 10
997.000000
 20
2163.000000
 42
0.000000
  0
VERTEX
  8
0
 10
997.000000
 20
2243.500000
 42
0.000000
  0
VERTEX
  8
0
 10
997.000000
 20
2324.000000
 42
0.000000
  0
VERTEX
  8
0
 10
1077.500000
 20
2324.000000
 42
0.000000
  0
VERTEX
  8
0
 10
1158.000000
 20
2324.000000
 42
0.000000
  0
SEQEND
  0
POLYLINE
  8
0
 66
1
 70
1
  0
VERTEX
  8
0
 10
1217.000000
 20
2215.500000
 42
0.000000
  0
VERTEX
  8
0
 10
1217.000000
 20
2131.000000
 42
0.000000
  0
VERTEX
  8
0
 10
1302.000000
 20
2131.000000
 42
0.000000
  0
VERTEX
  8
0
 10
1387.000000
 20
2131.000000
 42
0.000000
  0
VERTEX
  8
0
 10
1387.000000
 20
2215.500000
 42
0.000000
  0
VERTEX
  8
0
 10
1387.000000
 20
2300.000000
 42
0.000000
  0
VERTEX
  8
0
 10
1302.000000
 20
2300.000000
 42
0.000000
  0
VERTEX
  8
0
 10
1217.000000
 20
2300.000000
 42
0.000000
  0
SEQEND
  0
POLYLINE
  8
0
 66
1
 70
1
  0
VERTEX
  8
0
 10
1382.755915
 20
2215.250000
 42
0.000000
  0
VERTEX
  8
0
 10
1382.500000
 20
2134.500000
 42
0.000000
  0
VERTEX
  8
0
 10
1302.000000
 20
2134.500000
 42
0.000000
  0
VERTEX
  8
0
 10
1221.500000
 20
2134.500000
 42
0.000000
  0
VERTEX
  8
0
 10
1221.244085
 20
2215.250000
 42
0.000000
  0
VERTEX
  8
0
 10
1220.988171
 20
2296.000000
 42
0.000000
  0
VERTEX
  8
0
 10
1302.000000
 20
2296.000000
 42
0.000000
  0
VERTEX
  8
0
 10
1383.011829
 20
2296.000000
 42
0.000000
  0
SEQEND
  0
POLYLINE
  8
0
 66
1
 70
1
  0
VERTEX
  8
0
 10
95.000000
 20
2187.500000
 42
0.000000
  0
VERTEX
  8
0
 10
95.000000
 20
2103.000000
 42
0.000000
  0
VERTEX
  8
0
 10
179.500000
 20
2103.000000
 42
0.000000
  0
VERTEX
  8
0
 10
264.000000
 20
2103.000000
 42
0.000000
  0
VERTEX
  8
0
 10
264.000000
 20
2187.500000
 42
0.000000
  0
VERTEX
  8
0
 10
264.000000
 20
2272.000000
 42
0.000000
  0
VERTEX
  8
0
 10
179.500000
 20
2272.000000
 42
0.000000
  0
VERTEX
  8
0
 10
95.000000
 20
2272.000000
 42
0.000000
  0
SEQEND
  0
POLYLINE
  8
0
 66
1
 70
1
  0
VERTEX
  8
0
 10
260.755950
 20
2187.250000
 42
0.000000
  0
VERTEX
  8
0
 10
261.011899
 20
2107.000000
 42
0.000000
  0
VERTEX
  8
0
 10
180.005950
 20
2107.000000
 42
0.000000
  0
VERTEX
  8
0
 10
99.000000
 20
2107.000000
 42
0.000000
  0
VERTEX
  8
0
 10
99.000000
 20
2187.505915
 42
0.000000
  0
VERTEX
  8
0
 10
99.000000
 20
2268.011829
 42
0.000000
  0
VERTEX
  8
0
 10
179.750000
 20
2267.755915
 42
0.000000
  0
VERTEX
  8
0
 10
260.500000
 20
2267.500000
 42
0.000000
  0
SEQEND
  0
POLYLINE
  8
0
 66
1
 70
1
  0
VERTEX
  8
0
 10
320.000000
 20
2187.500000
 42
0.000000
  0
VERTEX
  8
0
 10
320.000000
 20
2103.000000
 42
0.000000
  0
VERTEX
  8
0
 10
404.500000
 20
2103.000000
 42
0.000000
  0
VERTEX
  8
0
 10
489.000000
 20
2103.000000
 42
0.000000
  0
VERTEX
  8
0
 10
489.000000
 20
2187.500000
 42
0.000000
  0
VERTEX
  8
0
 10
489.000000
 20
2272.000000
 42
0.000000
  0
VERTEX
  8
0
 10
404.500000
 20
2272.000000
 42
0.000000
  0
VERTEX
  8
0
 10
320.000000
 20
2272.000000
 42
0.000000
  0
SEQEND
  0
POLYLINE
  8
0
 66
1
 70
1
  0
VERTEX
  8
0
 10
485.000000
 20
2187.500000
 42
0.000000
  0
VERTEX
  8
0
 10
485.000000
 20
2107.000000
 42
0.000000
  0
VERTEX
  8
0
 10
404.000000
 20
2107.000000
 42
0.000000
  0
VERTEX
  8
0
 10
323.000000
 20
2107.000000
 42
0.000000
  0
VERTEX
  8
0
 10
323.000000
 20
2186.833333
 42
-0.000782
  0
VERTEX
  8
0
 10
323.047957
 20
2217.490981
 42
-0.001288
  0
VERTEX
  8
0
 10
323.195833
 20
2243.411458
 42
-0.000095
  0
VERTEX
  8
0
 10
323.392946
 20
2266.680524
 42
-0.196663
  0
VERTEX
  8
0
 10
323.666667
 20
2267.333333
 42
-0.196677
  0
VERTEX
  8
0
 10
324.319546
 20
2267.607061
 42
-0.000094
  0
VERTEX
  8
0
 10
347.735417
 20
2267.804167
 42
-0.001280
  0
VERTEX
  8
0
 10
373.817294
 20
2267.952044
 42
-0.000777
  0
VERTEX
  8
0
 10
404.666667
 20
2268.000000
 42
0.000000
  0
VERTEX
  8
0
 10
485.000000
 20
2268.000000
 42
0.000000
  0
SEQEND
  0
POLYLINE
  8
0
 66
1
 70
1
  0
VERTEX
  8
0
 10
1185.500000
 20
2132.315708
 42
0.147326
  0
VERTEX
  8
0
 10
1178.837773
 20
2128.133660
 42
0.133823
  0
VERTEX
  8
0
 10
1175.285051
 20
2120.809425
 42
0.132088
  0
VERTEX
  8
0
 10
1175.917680
 20
2112.619587
 42
0.142078
  0
VERTEX
  8
0
 10
1180.581468
 20
2106.114577
 42
0.100559
  0
VERTEX
  8
0
 10
1185.262906
 20
2103.759654
 42
0.089978
  0
VERTEX
  8
0
 10
1190.687281
 20
2103.291159
 42
0.088042
  0
VERTEX
  8
0
 10
1196.031586
 20
2104.764193
 42
0.090807
  0
VERTEX
  8
0
 10
1200.477643
 20
2107.976664
 42
0.037863
  0
VERTEX
  8
0
 10
1201.969062
 20
2109.790004
 42
0.064197
  0
VERTEX
  8
0
 10
1202.882957
 20
2111.526791
 42
0.053757
  0
VERTEX
  8
0
 10
1203.421502
 20
2113.646873
 42
0.019320
  0
VERTEX
  8
0
 10
1203.741258
 20
2116.748983
 42
0.048522
  0
VERTEX
  8
0
 10
1203.595411
 20
2121.181929
 42
0.072643
  0
VERTEX
  8
0
 10
1202.545569
 20
2124.904416
 42
0.077739
  0
VERTEX
  8
0
 10
1200.545319
 20
2127.990443
 42
0.065219
  0
VERTEX
  8
0
 10
1197.585840
 20
2130.535712
 42
0.072901
  0
VERTEX
  8
0
 10
1195.128049
 20
2131.676304
 42
0.035695
  0
VERTEX
  8
0
 10
1191.749311
 20
2132.423305
 42
0.035659
  0
VERTEX
  8
0
 10
1188.272617
 20
2132.684338
 42
0.068020
  0
SEQEND
  0
POLYLINE
  8
0
 66
1
 70
1
  0
VERTEX
  8
0
 10
1197.057167
 20
2125.445230
 42
-0.110522
  0
VERTEX
  8
0
 10
1199.723539
 20
2121.434040
 42
-0.112799
  0
VERTEX
  8
0
 10
1200.399732
 20
2116.699559
 42
-0.115606
  0
VERTEX
  8
0
 10
1198.953706
 20
2112.231147
 42
-0.120599
  0
VERTEX
  8
0
 10
1195.688633
 20
2108.951720
 42
-0.118092
  0
VERTEX
  8
0
 10
1190.003636
 20
2107.115245
 42
-0.140149
  0
VERTEX
  8
0
 10
1184.493218
 20
2108.238705
 42
-0.144473
  0
VERTEX
  8
0
 10
1180.524192
 20
2112.061000
 42
-0.128079
  0
VERTEX
  8
0
 10
1179.031803
 20
2117.615141
 42
-0.071205
  0
VERTEX
  8
0
 10
1179.471142
 20
2120.863303
 42
-0.067553
  0
VERTEX
  8
0
 10
1180.805819
 20
2123.921472
 42
-0.069733
  0
VERTEX
  8
0
 10
1182.856459
 20
2126.428201
 42
-0.085987
  0
VERTEX
  8
0
 10
1185.388117
 20
2128.066496
 42
-0.093546
  0
VERTEX
  8
0
 10
1188.144400
 20
2128.672006
 42
-0.062749
  0
VERTEX
  8
0
 10
1191.364654
 20
2128.363101
 42
-0.060950
  0
VERTEX
  8
0
 10
1194.511987
 20
2127.240151
 42
-0.075020
  0
SEQEND
  0
POLYLINE
  8
0
 66
1
 70
1
  0
VERTEX
  8
0
 10
768.460370
 20
2130.750000
 42
0.090627
  0
VERTEX
  8
0
 10
768.266532
 20
2129.706637
 42
0.000087
  0
VERTEX
  8
0
 10
768.199446
 20
2105.339063
 42
0.000879
  0
VERTEX
  8
0
 10
768.177075
 20
2078.103596
 42
0.000539
  0
VERTEX
  8
0
 10
768.241754
 20
2046.000000
 42
0.000000
  0
VERTEX
  8
0
 10
768.500000
 20
1962.500000
 42
0.000000
  0
VERTEX
  8
0
 10
853.000000
 20
1962.500000
 42
0.000000
  0
VERTEX
  8
0
 10
937.500000
 20
1962.500000
 42
0.000000
  0
VERTEX
  8
0
 10
937.755647
 20
2047.250000
 42
0.000000
  0
VERTEX
  8
0
 10
938.011295
 20
2132.000000
 42
0.000000
  0
VERTEX
  8
0
 10
853.474263
 20
2132.000000
 42
0.000589
  0
VERTEX
  8
0
 10
810.001032
 20
2131.948807
 42
0.003087
  0
VERTEX
  8
0
 10
786.092689
 20
2131.744893
 42
0.000961
  0
VERTEX
  8
0
 10
769.483401
 20
2131.468749
 42
0.305998
  0
SEQEND
  0
POLYLINE
  8
0
 66
1
 70
1
  0
VERTEX
  8
0
 10
934.000000
 20
2046.994085
 42
0.000000
  0
VERTEX
  8
0
 10
934.000000
 20
1965.988171
 42
0.000000
  0
VERTEX
  8
0
 10
853.250000
 20
1966.244085
 42
0.000000
  0
VERTEX
  8
0
 10
772.500000
 20
1966.500000
 42
0.000000
  0
VERTEX
  8
0
 10
772.241604
 20
2046.000000
 42
-0.000567
  0
VERTEX
  8
0
 10
772.176881
 20
2076.569807
 42
-0.000923
  0
VERTEX
  8
0
 10
772.199234
 20
2102.514062
 42
-0.000096
  0
VERTEX
  8
0
 10
772.266459
 20
2125.707833
 42
-0.090612
  0
VERTEX
  8
0
 10
772.460219
 20
2126.750000
 42
-0.305669
  0
VERTEX
  8
0
 10
773.480151
 20
2127.467329
 42
-0.001054
  0
VERTEX
  8
0
 10
789.291461
 20
2127.744639
 42
-0.003238
  0
VERTEX
  8
0
 10
812.082541
 20
2127.948713
 42
-0.000620
  0
VERTEX
  8
0
 10
853.468615
 20
2128.000000
 42
0.000000
  0
VERTEX
  8
0
 10
934.000000
 20
2128.000000
 42
0.000000
  0
SEQEND
  0
POLYLINE
  8
0
 66
1
 70
1
  0
VERTEX
  8
0
 10
544.000000
 20
2019.000000
 42
0.000000
  0
VERTEX
  8
0
 10
544.000000
 20
1934.000000
 42
0.000000
  0
VERTEX
  8
0
 10
628.500000
 20
1934.000000
 42
0.000000
  0
VERTEX
  8
0
 10
713.000000
 20
1934.000000
 42
0.000000
  0
VERTEX
  8
0
 10
713.000000
 20
2019.000000
 42
0.000000
  0
VERTEX
  8
0
 10
713.000000
 20
2104.000000
 42
0.000000
  0
VERTEX
  8
0
 10
628.500000
 20
2104.000000
 42
0.000000
  0
VERTEX
  8
0
 10
544.000000
 20
2104.000000
 42
0.000000
  0
SEQEND
  0
POLYLINE
  8
0
 66
1
 70
1
  0
VERTEX
  8
0
 10
709.000000
 20
2019.000000
 42
0.000000
  0
VERTEX
  8
0
 10
709.000000
 20
1938.000000
 42
0.000000
  0
VERTEX
  8
0
 10
628.500000
 20
1938.000000
 42
0.000000
  0
VERTEX
  8
0
 10
548.000000
 20
1938.000000
 42
0.000000
  0
VERTEX
  8
0
 10
548.000000
 20
2019.000000
 42
0.000000
  0
VERTEX
  8
0
 10
548.000000
 20
2100.000000
 42
0.000000
  0
VERTEX
  8
0
 10
628.500000
 20
2100.000000
 42
0.000000
  0
VERTEX
  8
0
 10
709.000000
 20
2100.000000
 42
0.000000
  0
SEQEND
  0
POLYLINE
  8
0
 66
1
 70
1
  0
VERTEX
  8
0
 10
993.000000
 20
2019.000000
 42
0.000000
  0
VERTEX
  8
0
 10
993.000000
 20
1934.000000
 42
0.000000
  0
VERTEX
  8
0
 10
1077.500000
 20
1934.000000
 42
0.000000
  0
VERTEX
  8
0
 10
1162.000000
 20
1934.000000
 42
0.000000
  0
VERTEX
  8
0
 10
1162.000000
 20
2019.000000
 42
0.000000
  0
VERTEX
  8
0
 10
1162.000000
 20
2104.000000
 42
0.000000
  0
VERTEX
  8
0
 10
1077.500000
 20
2104.000000
 42
0.000000
  0
VERTEX
  8
0
 10
993.000000
 20
2104.000000
 42
0.000000
  0
SEQEND
  0
POLYLINE
  8
0
 66
1
 70
1
  0
VERTEX
  8
0
 10
1158.000000
 20
2019.000000
 42
0.000000
  0
VERTEX
  8
0
 10
1158.000000
 20
1938.000000
 42
0.000000
  0
VERTEX
  8
0
 10
1077.500000
 20
1938.000000
 42
0.000000
  0
VERTEX
  8
0
 10
997.000000
 20
1938.000000
 42
0.000000
  0
VERTEX
  8
0
 10
997.000000
 20
2019.000000
 42
0.000000
  0
VERTEX
  8
0
 10
997.000000
 20
2100.000000
 42
0.000000
  0
VERTEX
  8
0
 10
1077.500000
 20
2100.000000
 42
0.000000
  0
VERTEX
  8
0
 10
1158.000000
 20
2100.000000
 42
0.000000
  0
SEQEND
  0
POLYLINE
  8
0
 66
1
 70
1
  0
VERTEX
  8
0
 10
285.418438
 20
2087.031147
 42
0.091707
  0
VERTEX
  8
0
 10
283.011512
 20
2085.497472
 42
0.042571
  0
VERTEX
  8
0
 10
280.516101
 20
2082.739630
 42
0.042297
  0
VERTEX
  8
0
 10
278.473192
 20
2079.523103
 42
0.074100
  0
VERTEX
  8
0
 10
277.443165
 20
2076.548738
 42
0.178552
  0
VERTEX
  8
0
 10
279.172208
 20
2066.349825
 42
0.181213
  0
VERTEX
  8
0
 10
287.100252
 20
2059.793929
 42
0.180249
  0
VERTEX
  8
0
 10
297.418875
 20
2060.044307
 42
0.177174
  0
VERTEX
  8
0
 10
305.148389
 20
2066.984398
 42
0.131203
  0
VERTEX
  8
0
 10
306.801389
 20
2074.123377
 42
0.131638
  0
VERTEX
  8
0
 10
304.672332
 20
2081.126165
 42
0.130483
  0
VERTEX
  8
0
 10
299.305964
 20
2086.169498
 42
0.127852
  0
VERTEX
  8
0
 10
292.102117
 20
2087.936614
 42
0.015595
  0
VERTEX
  8
0
 10
290.187495
 20
2087.850474
 42
0.014628
  0
VERTEX
  8
0
 10
288.240413
 20
2087.644486
 42
0.014775
  0
VERTEX
  8
0
 10
286.524964
 20
2087.360245
 42
0.047702
  0
SEQEND
  0
POLYLINE
  8
0
 66
1
 70
1
  0
VERTEX
  8
0
 10
297.656617
 20
2082.818147
 42
-0.065679
  0
VERTEX
  8
0
 10
298.606664
 20
2082.186752
 42
-0.028727
  0
VERTEX
  8
0
 10
299.689287
 20
2081.126044
 42
-0.027818
  0
VERTEX
  8
0
 10
300.725359
 20
2079.851519
 42
-0.033248
  0
VERTEX
  8
0
 10
301.547906
 20
2078.540903
 42
-0.133171
  0
VERTEX
  8
0
 10
302.771473
 20
2073.296639
 42
-0.131644
  0
VERTEX
  8
0
 10
301.187243
 20
2068.126799
 42
-0.128965
  0
VERTEX
  8
0
 10
297.193044
 20
2064.367223
 42
-0.125308
  0
VERTEX
  8
0
 10
291.823275
 20
2063.000000
 42
-0.105031
  0
VERTEX
  8
0
 10
287.954307
 20
2063.821788
 42
-0.083919
  0
VERTEX
  8
0
 10
284.394496
 20
2066.184888
 42
-0.085949
  0
VERTEX
  8
0
 10
281.878194
 20
2069.523667
 42
-0.119432
  0
VERTEX
  8
0
 10
281.003738
 20
2073.150000
 42
-0.118692
  0
VERTEX
  8
0
 10
282.392237
 20
2078.888622
 42
-0.143757
  0
VERTEX
  8
0
 10
286.190124
 20
2082.890666
 42
-0.138817
  0
VERTEX
  8
0
 10
291.662068
 20
2084.288692
 42
-0.107831
  0
SEQEND
  0
POLYLINE
  8
0
 66
1
 70
1
  0
VERTEX
  8
0
 10
1217.000000
 20
1990.500000
 42
0.000000
  0
VERTEX
  8
0
 10
1217.000000
 20
1906.000000
 42
0.000000
  0
VERTEX
  8
0
 10
1302.000000
 20
1906.000000
 42
0.000000
  0
VERTEX
  8
0
 10
1387.000000
 20
1906.000000
 42
0.000000
  0
VERTEX
  8
0
 10
1387.000000
 20
1990.500000
 42
0.000000
  0
VERTEX
  8
0
 10
1387.000000
 20
2075.000000
 42
0.000000
  0
VERTEX
  8
0
 10
1302.000000
 20
2075.000000
 42
0.000000
  0
VERTEX
  8
0
 10
1217.000000
 20
2075.000000
 42
0.000000
  0
SEQEND
  0
POLYLINE
  8
0
 66
1
 70
1
  0
VERTEX
  8
0
 10
1382.755915
 20
1990.750000
 42
0.000000
  0
VERTEX
  8
0
 10
1383.011829
 20
1910.000000
 42
0.000000
  0
VERTEX
  8
0
 10
1302.005915
 20
1910.000000
 42
0.000000
  0
VERTEX
  8
0
 10
1221.000000
 20
1910.000000
 42
0.000000
  0
VERTEX
  8
0
 10
1221.000000
 20
1990.333333
 42
-0.000784
  0
VERTEX
  8
0
 10
1221.048382
 20
2021.183110
 42
-0.001292
  0
VERTEX
  8
0
 10
1221.197570
 20
2047.266320
 42
-0.000095
  0
VERTEX
  8
0
 10
1221.396434
 20
2070.680676
 42
-0.196657
  0
VERTEX
  8
0
 10
1221.672578
 20
2071.339244
 42
-0.197472
  0
VERTEX
  8
0
 10
1222.331118
 20
2071.614162
 42
-0.000096
  0
VERTEX
  8
0
 10
1245.670328
 20
2071.739078
 42
-0.001300
  0
VERTEX
  8
0
 10
1271.670923
 20
2071.805650
 42
-0.000789
  0
VERTEX
  8
0
 10
1302.422578
 20
2071.755911
 42
0.000000
  0
VERTEX
  8
0
 10
1382.500000
 20
2071.500000
 42
0.000000
  0
SEQEND
  0
POLYLINE
  8
0
 66
1
 70
1
  0
VERTEX
  8
0
 10
320.000000
 20
1963.005680
 42
0.000000
  0
VERTEX
  8
0
 10
320.000000
 20
1878.000000
 42
0.000000
  0
VERTEX
  8
0
 10
404.505647
 20
1878.000000
 42
0.000000
  0
VERTEX
  8
0
 10
489.011295
 20
1878.000000
 42
0.000000
  0
VERTEX
  8
0
 10
488.755647
 20
1962.750000
 42
0.000000
  0
VERTEX
  8
0
 10
488.500000
 20
2047.500000
 42
0.000000
  0
VERTEX
  8
0
 10
404.250000
 20
2047.755680
 42
0.000000
  0
VERTEX
  8
0
 10
320.000000
 20
2048.011359
 42
0.000000
  0
SEQEND
  0
POLYLINE
  8
0
 66
1
 70
1
  0
VERTEX
  8
0
 10
485.000000
 20
1962.994085
 42
0.000000
  0
VERTEX
  8
0
 10
485.000000
 20
1881.988171
 42
0.000000
  0
VERTEX
  8
0
 10
404.250000
 20
1882.244085
 42
0.000000
  0
VERTEX
  8
0
 10
323.500000
 20
1882.500000
 42
0.000000
  0
VERTEX
  8
0
 10
323.241604
 20
1962.000000
 42
-0.000567
  0
VERTEX
  8
0
 10
323.176881
 20
1992.569807
 42
-0.000923
  0
VERTEX
  8
0
 10
323.199234
 20
2018.514062
 42
-0.000096
  0
VERTEX
  8
0
 10
323.266459
 20
2041.707833
 42
-0.090612
  0
VERTEX
  8
0
 10
323.460219
 20
2042.750000
 42
-0.305669
  0
VERTEX
  8
0
 10
324.480151
 20
2043.467329
 42
-0.001054
  0
VERTEX
  8
0
 10
340.291461
 20
2043.744639
 42
-0.003238
  0
VERTEX
  8
0
 10
363.082541
 20
2043.948713
 42
-0.000620
  0
VERTEX
  8
0
 10
404.468615
 20
2044.000000
 42
0.000000
  0
VERTEX
  8
0
 10
485.000000
 20
2044.000000
 42
0.000000
  0
SEQEND
  0
POLYLINE
  8
0
 66
1
 70
1
  0
VERTEX
  8
0
 10
95.000000
 20
1962.500000
 42
0.000000
  0
VERTEX
  8
0
 10
95.000000
 20
1878.000000
 42
0.000000
  0
VERTEX
  8
0
 10
179.500000
 20
1878.000000
 42
0.000000
  0
VERTEX
  8
0
 10
264.000000
 20
1878.000000
 42
0.000000
  0
VERTEX
  8
0
 10
264.000000
 20
1962.500000
 42
0.000000
  0
VERTEX
  8
0
 10
264.000000
 20
2047.000000
 42
0.000000
  0
VERTEX
  8
0
 10
179.500000
 20
2047.000000
 42
0.000000
  0
VERTEX
  8
0
 10
95.000000
 20
2047.000000
 42
0.000000
  0
SEQEND
  0
POLYLINE
  8
0
 66
1
 70
1
  0
VERTEX
  8
0
 10
260.500000
 20
1963.000000
 42
0.000000
  0
VERTEX
  8
0
 10
260.500000
 20
1882.500000
 42
0.000000
  0
VERTEX
  8
0
 10
179.750000
 20
1882.244085
 42
0.000000
  0
VERTEX
  8
0
 10
99.000000
 20
1881.988171
 42
0.000000
  0
VERTEX
  8
0
 10
99.000000
 20
1962.327419
 42
-0.000784
  0
VERTEX
  8
0
 10
99.048382
 20
1993.179463
 42
-0.001291
  0
VERTEX
  8
0
 10
99.197570
 20
2019.264582
 42
-0.000095
  0
VERTEX
  8
0
 10
99.396434
 20
2042.680675
 42
-0.196657
  0
VERTEX
  8
0
 10
99.672578
 20
2043.339244
 42
-0.197472
  0
VERTEX
  8
0
 10
100.331118
 20
2043.614162
 42
-0.000096
  0
VERTEX
  8
0
 10
123.670328
 20
2043.739078
 42
-0.001300
  0
VERTEX
  8
0
 10
149.670923
 20
2043.805650
 42
-0.000789
  0
VERTEX
  8
0
 10
180.422578
 20
2043.755911
 42
0.000000
  0
VERTEX
  8
0
 10
260.500000
 20
2043.500000
 42
0.000000
  0
SEQEND
  0
POLYLINE
  8
0
 66
1
 70
1
  0
VERTEX
  8
0
 10
768.000000
 20
1822.500000
 42
0.000000
  0
VERTEX
  8
0
 10
768.000000
 20
1738.000000
 42
0.000000
  0
VERTEX
  8
0
 10
853.000000
 20
1738.000000
 42
0.000000
  0
VERTEX
  8
0
 10
938.000000
 20
1738.000000
 42
0.000000
  0
VERTEX
  8
0
 10
938.000000
 20
1822.500000
 42
0.000000
  0
VERTEX
  8
0
 10
938.000000
 20
1907.000000
 42
0.000000
  0
VERTEX
  8
0
 10
853.000000
 20
1907.000000
 42
0.000000
  0
VERTEX
  8
0
 10
768.000000
 20
1907.000000
 42
0.000000
  0
SEQEND
  0
POLYLINE
  8
0
 66
1
 70
1
  0
VERTEX
  8
0
 10
934.000000
 20
1822.500000
 42
0.000000
  0
VERTEX
  8
0
 10
934.000000
 20
1742.000000
 42
0.000000
  0
VERTEX
  8
0
 10
853.000000
 20
1742.000000
 42
0.000000
  0
VERTEX
  8
0
 10
772.000000
 20
1742.000000
 42
0.000000
  0
VERTEX
  8
0
 10
772.000000
 20
1822.500000
 42
0.000000
  0
VERTEX
  8
0
 10
772.000000
 20
1903.000000
 42
0.000000
  0
VERTEX
  8
0
 10
853.000000
 20
1903.000000
 42
0.000000
  0
VERTEX
  8
0
 10
934.000000
 20
1903.000000
 42
0.000000
  0
SEQEND
  0
POLYLINE
  8
0
 66
1
 70
1
  0
VERTEX
  8
0
 10
544.000000
 20
1794.500000
 42
0.000000
  0
VERTEX
  8
0
 10
544.000000
 20
1710.000000
 42
0.000000
  0
VERTEX
  8
0
 10
628.500000
 20
1710.000000
 42
0.000000
  0
VERTEX
  8
0
 10
713.000000
 20
1710.000000
 42
0.000000
  0
VERTEX
  8
0
 10
713.000000
 20
1794.500000
 42
0.000000
  0
VERTEX
  8
0
 10
713.000000
 20
1879.000000
 42
0.000000
  0
VERTEX
  8
0
 10
628.500000
 20
1879.000000
 42
0.000000
  0
VERTEX
  8
0
 10
544.000000
 20
1879.000000
 42
0.000000
  0
SEQEND
  0
POLYLINE
  8
0
 66
1
 70
1
  0
VERTEX
  8
0
 10
709.000000
 20
1794.500000
 42
0.000000
  0
VERTEX
  8
0
 10
709.000000
 20
1714.000000
 42
0.000000
  0
VERTEX
  8
0
 10
628.500000
 20
1714.000000
 42
0.000000
  0
VERTEX
  8
0
 10
548.000000
 20
1714.000000
 42
0.000000
  0
VERTEX
  8
0
 10
548.000000
 20
1794.500000
 42
0.000000
  0
VERTEX
  8
0
 10
548.000000
 20
1875.000000
 42
0.000000
  0
VERTEX
  8
0
 10
628.500000
 20
1875.000000
 42
0.000000
  0
VERTEX
  8
0
 10
709.000000
 20
1875.000000
 42
0.000000
  0
SEQEND
  0
POLYLINE
  8
0
 66
1
 70
1
  0
VERTEX
  8
0
 10
993.000000
 20
1794.500000
 42
0.000000
  0
VERTEX
  8
0
 10
993.000000
 20
1710.000000
 42
0.000000
  0
VERTEX
  8
0
 10
1077.500000
 20
1710.000000
 42
0.000000
  0
VERTEX
  8
0
 10
1162.000000
 20
1710.000000
 42
0.000000
  0
VERTEX
  8
0
 10
1162.000000
 20
1794.500000
 42
0.000000
  0
VERTEX
  8
0
 10
1162.000000
 20
1879.000000
 42
0.000000
  0
VERTEX
  8
0
 10
1077.500000
 20
1879.000000
 42
0.000000
  0
VERTEX
  8
0
 10
993.000000
 20
1879.000000
 42
0.000000
  0
SEQEND
  0
POLYLINE
  8
0
 66
1
 70
1
  0
VERTEX
  8
0
 10
1158.000000
 20
1794.500000
 42
0.000000
  0
VERTEX
  8
0
 10
1158.000000
 20
1714.000000
 42
0.000000
  0
VERTEX
  8
0
 10
1077.500000
 20
1714.000000
 42
0.000000
  0
VERTEX
  8
0
 10
997.000000
 20
1714.000000
 42
0.000000
  0
VERTEX
  8
0
 10
997.000000
 20
1794.500000
 42
0.000000
  0
VERTEX
  8
0
 10
997.000000
 20
1875.000000
 42
0.000000
  0
VERTEX
  8
0
 10
1077.500000
 20
1875.000000
 42
0.000000
  0
VERTEX
  8
0
 10
1158.000000
 20
1875.000000
 42
0.000000
  0
SEQEND
  0
POLYLINE
  8
0
 66
1
 70
1
  0
VERTEX
  8
0
 10
285.396258
 20
1865.625994
 42
0.113316
  0
VERTEX
  8
0
 10
280.818727
 20
1862.137914
 42
0.099029
  0
VERTEX
  8
0
 10
277.945874
 20
1856.836119
 42
0.097501
  0
VERTEX
  8
0
 10
277.307322
 20
1850.763787
 42
0.105999
  0
VERTEX
  8
0
 10
279.065075
 20
1845.098004
 42
0.072488
  0
VERTEX
  8
0
 10
281.380277
 20
1842.094837
 42
0.051200
  0
VERTEX
  8
0
 10
284.732292
 20
1839.455485
 42
0.052176
  0
VERTEX
  8
0
 10
288.449759
 20
1837.611645
 42
0.089281
  0
VERTEX
  8
0
 10
291.847843
 20
1837.000000
 42
0.104593
  0
VERTEX
  8
0
 10
296.532327
 20
1837.990763
 42
0.072534
  0
VERTEX
  8
0
 10
301.128164
 20
1840.882819
 42
0.071871
  0
VERTEX
  8
0
 10
304.746534
 20
1845.001558
 42
0.098284
  0
VERTEX
  8
0
 10
306.579593
 20
1849.572574
 42
0.085164
  0
VERTEX
  8
0
 10
306.638657
 20
1853.376081
 42
0.055931
  0
VERTEX
  8
0
 10
305.483963
 20
1857.611886
 42
0.056097
  0
VERTEX
  8
0
 10
303.426230
 20
1861.470122
 42
0.087720
  0
VERTEX
  8
0
 10
300.794356
 20
1864.146431
 42
0.080791
  0
VERTEX
  8
0
 10
297.501523
 20
1865.767801
 42
0.050172
  0
VERTEX
  8
0
 10
293.266847
 20
1866.608824
 42
0.050151
  0
VERTEX
  8
0
 10
288.946624
 20
1866.589710
 42
0.080379
  0
SEQEND
  0
POLYLINE
  8
0
 66
1
 70
1
  0
VERTEX
  8
0
 10
298.889270
 20
1860.439719
 42
-0.118537
  0
VERTEX
  8
0
 10
301.913277
 20
1856.338209
 42
-0.119009
  0
VERTEX
  8
0
 10
302.736258
 20
1851.316500
 42
-0.119183
  0
VERTEX
  8
0
 10
301.177265
 20
1846.478137
 42
-0.119120
  0
VERTEX
  8
0
 10
297.579691
 20
1842.885468
 42
-0.055708
  0
VERTEX
  8
0
 10
294.690749
 20
1841.538475
 42
-0.084059
  0
VERTEX
  8
0
 10
291.954385
 20
1841.104551
 42
-0.082576
  0
VERTEX
  8
0
 10
289.192411
 20
1841.593557
 42
-0.051924
  0
VERTEX
  8
0
 10
286.225074
 20
1843.004198
 42
-0.105320
  0
VERTEX
  8
0
 10
282.638630
 20
1846.395154
 42
-0.124134
  0
VERTEX
  8
0
 10
281.011897
 20
1850.762761
 42
-0.122851
  0
VERTEX
  8
0
 10
281.643498
 20
1855.414725
 42
-0.101844
  0
VERTEX
  8
0
 10
284.400000
 20
1859.600000
 42
-0.078148
  0
VERTEX
  8
0
 10
287.843700
 20
1862.107788
 42
-0.104263
  0
VERTEX
  8
0
 10
291.566482
 20
1863.120742
 42
-0.106224
  0
VERTEX
  8
0
 10
295.328857
 20
1862.537620
 42
-0.083717
  0
SEQEND
  0
POLYLINE
  8
0
 66
1
 70
1
  0
VERTEX
  8
0
 10
1217.000000
 20
1766.500000
 42
0.000000
  0
VERTEX
  8
0
 10
1217.000000
 20
1682.000000
 42
0.000000
  0
VERTEX
  8
0
 10
1302.000000
 20
1682.000000
 42
0.000000
  0
VERTEX
  8
0
 10
1387.000000
 20
1682.000000
 42
0.000000
  0
VERTEX
  8
0
 10
1387.000000
 20
1766.500000
 42
0.000000
  0
VERTEX
  8
0
 10
1387.000000
 20
1851.000000
 42
0.000000
  0
VERTEX
  8
0
 10
1302.000000
 20
1851.000000
 42
0.000000
  0
VERTEX
  8
0
 10
1217.000000
 20
1851.000000
 42
0.000000
  0
SEQEND
  0
POLYLINE
  8
0
 66
1
 70
1
  0
VERTEX
  8
0
 10
1383.000000
 20
1766.500000
 42
0.000000
  0
VERTEX
  8
0
 10
1383.000000
 20
1686.000000
 42
0.000000
  0
VERTEX
  8
0
 10
1302.000000
 20
1686.000000
 42
0.000000
  0
VERTEX
  8
0
 10
1221.000000
 20
1686.000000
 42
0.000000
  0
VERTEX
  8
0
 10
1221.000000
 20
1766.500000
 42
0.000000
  0
VERTEX
  8
0
 10
1221.000000
 20
1847.000000
 42
0.000000
  0
VERTEX
  8
0
 10
1302.000000
 20
1847.000000
 42
0.000000
  0
VERTEX
  8
0
 10
1383.000000
 20
1847.000000
 42
0.000000
  0
SEQEND
  0
POLYLINE
  8
0
 66
1
 70
1
  0
VERTEX
  8
0
 10
95.000000
 20
1738.500000
 42
0.000000
  0
VERTEX
  8
0
 10
95.000000
 20
1654.000000
 42
0.000000
  0
VERTEX
  8
0
 10
179.500000
 20
1654.000000
 42
0.000000
  0
VERTEX
  8
0
 10
264.000000
 20
1654.000000
 42
0.000000
  0
VERTEX
  8
0
 10
264.000000
 20
1738.500000
 42
0.000000
  0
VERTEX
  8
0
 10
264.000000
 20
1823.000000
 42
0.000000
  0
VERTEX
  8
0
 10
179.500000
 20
1823.000000
 42
0.000000
  0
VERTEX
  8
0
 10
95.000000
 20
1823.000000
 42
0.000000
  0
SEQEND
  0
POLYLINE
  8
0
 66
1
 70
1
  0
VERTEX
  8
0
 10
261.000000
 20
1738.500000
 42
0.000000
  0
VERTEX
  8
0
 10
261.000000
 20
1658.000000
 42
0.000000
  0
VERTEX
  8
0
 10
180.000000
 20
1658.000000
 42
0.000000
  0
VERTEX
  8
0
 10
99.000000
 20
1658.000000
 42
0.000000
  0
VERTEX
  8
0
 10
99.000000
 20
1738.500000
 42
0.000000
  0
VERTEX
  8
0
 10
99.000000
 20
1819.000000
 42
0.000000
  0
VERTEX
  8
0
 10
180.000000
 20
1819.000000
 42
0.000000
  0
VERTEX
  8
0
 10
261.000000
 20
1819.000000
 42
0.000000
  0
SEQEND
  0
POLYLINE
  8
0
 66
1
 70
1
  0
VERTEX
  8
0
 10
320.000000
 20
1738.500000
 42
0.000000
  0
VERTEX
  8
0
 10
320.000000
 20
1654.000000
 42
0.000000
  0
VERTEX
  8
0
 10
404.500000
 20
1654.000000
 42
0.000000
  0
VERTEX
  8
0
 10
489.000000
 20
1654.000000
 42
0.000000
  0
VERTEX
  8
0
 10
489.000000
 20
1738.500000
 42
0.000000
  0
VERTEX
  8
0
 10
489.000000
 20
1823.000000
 42
0.000000
  0
VERTEX
  8
0
 10
404.500000
 20
1823.000000
 42
0.000000
  0
VERTEX
  8
0
 10
320.000000
 20
1823.000000
 42
0.000000
  0
SEQEND
  0
POLYLINE
  8
0
 66
1
 70
1
  0
VERTEX
  8
0
 10
485.000000
 20
1738.500000
 42
0.000000
  0
VERTEX
  8
0
 10
485.000000
 20
1658.000000
 42
0.000000
  0
VERTEX
  8
0
 10
404.000000
 20
1658.000000
 42
0.000000
  0
VERTEX
  8
0
 10
323.000000
 20
1658.000000
 42
0.000000
  0
VERTEX
  8
0
 10
323.000000
 20
1738.500000
 42
0.000000
  0
VERTEX
  8
0
 10
323.000000
 20
1819.000000
 42
0.000000
  0
VERTEX
  8
0
 10
404.000000
 20
1819.000000
 42
0.000000
  0
VERTEX
  8
0
 10
485.000000
 20
1819.000000
 42
0.000000
  0
SEQEND
  0
POLYLINE
  8
0
 66
1
 70
1
  0
VERTEX
  8
0
 10
795.240860
 20
1661.005402
 42
0.112339
  0
VERTEX
  8
0
 10
790.230468
 20
1656.134661
 42
0.125612
  0
VERTEX
  8
0
 10
788.079148
 20
1649.768358
 42
0.122142
  0
VERTEX
  8
0
 10
789.219148
 20
1643.010557
 42
0.102653
  0
VERTEX
  8
0
 10
793.418682
 20
1637.062819
 42
0.111271
  0
VERTEX
  8
0
 10
796.893487
 20
1635.027868
 42
0.061457
  0
VERTEX
  8
0
 10
801.752923
 20
1634.116478
 42
0.060564
  0
VERTEX
  8
0
 10
806.792103
 20
1634.410805
 42
0.095544
  0
VERTEX
  8
0
 10
810.818029
 20
1635.971531
 42
0.136112
  0
VERTEX
  8
0
 10
815.641104
 20
1641.254810
 42
0.119053
  0
VERTEX
  8
0
 10
817.367885
 20
1648.552696
 42
0.119239
  0
VERTEX
  8
0
 10
815.572684
 20
1655.825261
 42
0.136815
  0
VERTEX
  8
0
 10
810.701451
 20
1661.040484
 42
0.079626
  0
VERTEX
  8
0
 10
807.185498
 20
1662.480108
 42
0.058061
  0
VERTEX
  8
0
 10
802.983053
 20
1662.960089
 42
0.057965
  0
VERTEX
  8
0
 10
798.774691
 20
1662.460887
 42
0.078575
  0
SEQEND
  0
POLYLINE
  8
0
 66
1
 70
1
  0
VERTEX
  8
0
 10
810.234223
 20
1656.082029
 42
-0.176135
  0
VERTEX
  8
0
 10
813.493022
 20
1650.014699
 42
-0.170237
  0
VERTEX
  8
0
 10
812.154997
 20
1643.169876
 42
-0.164510
  0
VERTEX
  8
0
 10
806.770699
 20
1638.500463
 42
-0.165926
  0
VERTEX
  8
0
 10
799.678596
 20
1638.078299
 42
-0.117353
  0
VERTEX
  8
0
 10
795.659432
 20
1640.289864
 42
-0.107283
  0
VERTEX
  8
0
 10
792.908017
 20
1644.140860
 42
-0.106530
  0
VERTEX
  8
0
 10
791.988951
 20
1648.809810
 42
-0.114200
  0
VERTEX
  8
0
 10
793.117040
 20
1653.315741
 42
-0.116790
  0
VERTEX
  8
0
 10
796.306552
 20
1657.062318
 42
-0.118751
  0
VERTEX
  8
0
 10
800.818622
 20
1658.952031
 42
-0.115885
  0
VERTEX
  8
0
 10
805.785378
 20
1658.601203
 42
-0.107398
  0
SEQEND
  0
POLYLINE
  8
0
 66
1
 70
1
  0
VERTEX
  8
0
 10
881.000000
 20
1562.500000
 42
0.000000
  0
VERTEX
  8
0
 10
881.000000
 20
1478.000000
 42
0.000000
  0
VERTEX
  8
0
 10
965.500000
 20
1478.000000
 42
0.000000
  0
VERTEX
  8
0
 10
1050.000000
 20
1478.000000
 42
0.000000
  0
VERTEX
  8
0
 10
1050.000000
 20
1562.500000
 42
0.000000
  0
VERTEX
  8
0
 10
1050.000000
 20
1647.000000
 42
0.000000
  0
VERTEX
  8
0
 10
965.500000
 20
1647.000000
 42
0.000000
  0
VERTEX
  8
0
 10
881.000000
 20
1647.000000
 42
0.000000
  0
SEQEND
  0
POLYLINE
  8
0
 66
1
 70
1
  0
VERTEX
  8
0
 10
1046.000000
 20
1562.500000
 42
0.000000
  0
VERTEX
  8
0
 10
1046.000000
 20
1482.000000
 42
0.000000
  0
VERTEX
  8
0
 10
965.500000
 20
1482.000000
 42
0.000000
  0
VERTEX
  8
0
 10
885.000000
 20
1482.000000
 42
0.000000
  0
VERTEX
  8
0
 10
885.000000
 20
1562.500000
 42
0.000000
  0
VERTEX
  8
0
 10
885.000000
 20
1643.000000
 42
0.000000
  0
VERTEX
  8
0
 10
965.500000
 20
1643.000000
 42
0.000000
  0
VERTEX
  8
0
 10
1046.000000
 20
1643.000000
 42
0.000000
  0
SEQEND
  0
POLYLINE
  8
0
 66
1
 70
1
  0
VERTEX
  8
0
 10
1153.000000
 20
1633.555111
 42
-0.065200
  0
VERTEX
  8
0
 10
1152.953101
 20
1633.196986
 42
-0.000007
  0
VERTEX
  8
0
 10
1146.684375
 20
1609.674466
 42
-0.000215
  0
VERTEX
  8
0
 10
1139.743782
 20
1583.677291
 42
-0.000130
  0
VERTEX
  8
0
 10
1131.500000
 20
1552.884033
 42
0.000317
  0
VERTEX
  8
0
 10
1123.256797
 20
1522.046774
 42
0.000519
  0
VERTEX
  8
0
 10
1116.315625
 20
1495.905302
 42
0.000042
  0
VERTEX
  8
0
 10
1110.112323
 20
1472.436710
 42
0.064672
  0
VERTEX
  8
0
 10
1110.000000
 20
1471.571939
 42
0.338578
  0
VERTEX
  8
0
 10
1110.781050
 20
1470.550737
 42
0.000046
  0
VERTEX
  8
0
 10
1191.065190
 20
1448.775835
 42
0.000051
  0
VERTEX
  8
0
 10
1271.269330
 20
1427.039249
 42
0.268688
  0
VERTEX
  8
0
 10
1272.773365
 20
1427.440032
 42
0.131321
  0
VERTEX
  8
0
 10
1273.209614
 20
1428.194502
 42
0.000008
  0
VERTEX
  8
0
 10
1294.483867
 20
1507.184121
 42
0.000039
  0
VERTEX
  8
0
 10
1315.293653
 20
1584.477910
 42
0.024141
  0
VERTEX
  8
0
 10
1316.261760
 20
1588.918759
 42
0.380256
  0
VERTEX
  8
0
 10
1315.643690
 20
1589.903781
 42
0.000996
  0
VERTEX
  8
0
 10
1298.921160
 20
1594.743048
 42
0.003480
  0
VERTEX
  8
0
 10
1275.502179
 20
1601.293544
 42
0.000780
  0
VERTEX
  8
0
 10
1235.500000
 20
1612.115838
 42
0.000096
  0
VERTEX
  8
0
 10
1179.725100
 20
1627.100439
 42
0.002006
  0
VERTEX
  8
0
 10
1163.020522
 20
1631.513094
 42
0.001421
  0
VERTEX
  8
0
 10
1153.513795
 20
1633.954790
 42
0.489038
  0
SEQEND
  0
POLYLINE
  8
0
 66
1
 70
1
  0
VERTEX
  8
0
 10
1234.366900
 20
1608.360578
 42
-0.000114
  0
VERTEX
  8
0
 10
1263.958136
 20
1600.435275
 42
-0.000189
  0
VERTEX
  8
0
 10
1288.904948
 20
1593.737666
 42
-0.000004
  0
VERTEX
  8
0
 10
1311.520683
 20
1587.656533
 42
-0.093483
  0
VERTEX
  8
0
 10
1311.713773
 20
1587.563472
 42
-0.308845
  0
VERTEX
  8
0
 10
1311.934462
 20
1586.931888
 42
-0.000012
  0
VERTEX
  8
0
 10
1291.303728
 20
1510.295554
 42
-0.000024
  0
VERTEX
  8
0
 10
1270.769775
 20
1434.040826
 42
-0.121769
  0
VERTEX
  8
0
 10
1270.012674
 20
1432.672688
 42
-0.274287
  0
VERTEX
  8
0
 10
1269.261139
 20
1432.450376
 42
-0.000188
  0
VERTEX
  8
0
 10
1247.917543
 20
1437.858783
 42
-0.002030
  0
VERTEX
  8
0
 10
1224.060774
 20
1444.016798
 42
-0.001230
  0
VERTEX
  8
0
 10
1195.872688
 20
1451.489236
 42
-0.000111
  0
VERTEX
  8
0
 10
1135.320768
 20
1467.715035
 42
-0.004636
  0
VERTEX
  8
0
 10
1122.332960
 20
1471.327807
 42
-0.013933
  0
VERTEX
  8
0
 10
1116.037366
 20
1473.333653
 42
-0.318809
  0
VERTEX
  8
0
 10
1115.000000
 20
1474.795229
 42
-0.064978
  0
VERTEX
  8
0
 10
1115.230150
 20
1476.558735
 42
-0.000022
  0
VERTEX
  8
0
 10
1132.880006
 20
1543.015634
 42
-0.000283
  0
VERTEX
  8
0
 10
1148.664805
 20
1602.304288
 42
-0.003898
  0
VERTEX
  8
0
 10
1154.566894
 20
1623.750000
 42
-0.009724
  0
VERTEX
  8
0
 10
1155.180160
 20
1625.762387
 42
-0.015408
  0
VERTEX
  8
0
 10
1155.791491
 20
1627.457813
 42
-0.009369
  0
VERTEX
  8
0
 10
1156.357153
 20
1628.812250
 42
-0.297445
  0
VERTEX
  8
0
 10
1156.644834
 20
1629.000000
 42
-0.064968
  0
VERTEX
  8
0
 10
1157.117634
 20
1628.938305
 42
-0.000014
  0
VERTEX
  8
0
 10
1179.718639
 20
1622.937170
 42
-0.000295
  0
VERTEX
  8
0
 10
1204.749810
 20
1616.274240
 42
-0.000179
  0
SEQEND
  0
POLYLINE
  8
0
 66
1
 70
1
  0
VERTEX
  8
0
 10
1443.217405
 20
1598.772542
 42
0.004631
  0
VERTEX
  8
0
 10
1441.720615
 20
1596.237810
 42
0.000037
  0
VERTEX
  8
0
 10
1429.996941
 20
1575.954310
 42
0.000135
  0
VERTEX
  8
0
 10
1416.557134
 20
1552.683232
 42
0.000087
  0
VERTEX
  8
0
 10
1400.982977
 20
1525.688937
 42
0.001182
  0
VERTEX
  8
0
 10
1384.075371
 20
1496.210921
 42
0.002794
  0
VERTEX
  8
0
 10
1371.652865
 20
1474.147942
 42
0.000407
  0
VERTEX
  8
0
 10
1361.529288
 20
1455.895625
 42
0.334441
  0
VERTEX
  8
0
 10
1361.664497
 20
1454.935503
 42
0.064499
  0
VERTEX
  8
0
 10
1362.508621
 20
1454.284991
 42
0.000063
  0
VERTEX
  8
0
 10
1383.453241
 20
1442.079719
 42
0.000634
  0
VERTEX
  8
0
 10
1406.878343
 20
1428.472675
 42
0.000389
  0
VERTEX
  8
0
 10
1434.515615
 20
1412.494462
 42
0.000805
  0
VERTEX
  8
0
 10
1471.443937
 20
1391.262283
 42
0.004188
  0
VERTEX
  8
0
 10
1491.936750
 20
1379.750589
 42
0.001677
  0
VERTEX
  8
0
 10
1506.111053
 20
1372.005594
 42
0.342138
  0
VERTEX
  8
0
 10
1507.588275
 20
1372.247896
 42
0.056870
  0
VERTEX
  8
0
 10
1510.221744
 20
1375.819899
 42
0.000088
  0
VERTEX
  8
0
 10
1550.082511
 20
1445.196772
 42
0.000027
  0
VERTEX
  8
0
 10
1590.668459
 20
1515.873267
 42
0.215636
  0
VERTEX
  8
0
 10
1590.788643
 20
1517.115481
 42
0.179785
  0
VERTEX
  8
0
 10
1590.358056
 20
1517.643522
 42
0.000079
  0
VERTEX
  8
0
 10
1570.169164
 20
1529.493815
 42
0.001134
  0
VERTEX
  8
0
 10
1547.668442
 20
1542.627834
 42
0.000688
  0
VERTEX
  8
0
 10
1521.000000
 20
1558.064609
 42
-0.000120
  0
VERTEX
  8
0
 10
1494.133216
 20
1573.575465
 42
-0.000187
  0
VERTEX
  8
0
 10
1470.988988
 20
1586.956179
 42
-0.000050
  0
VERTEX
  8
0
 10
1450.799319
 20
1598.641525
 42
-0.006613
  0
VERTEX
  8
0
 10
1448.345492
 20
1600.105741
 42
0.000000
  0
VERTEX
  8
0
 10
1445.190983
 20
1602.045085
 42
0.000000
  0
SEQEND
  0
POLYLINE
  8
0
 66
1
 70
1
  0
VERTEX
  8
0
 10
1516.746106
 20
1555.956531
 42
-0.000306
  0
VERTEX
  8
0
 10
1542.777909
 20
1540.909076
 42
-0.000501
  0
VERTEX
  8
0
 10
1564.820756
 20
1528.119917
 42
-0.000042
  0
VERTEX
  8
0
 10
1584.583081
 20
1516.625234
 42
-0.060293
  0
VERTEX
  8
0
 10
1585.260722
 20
1516.112930
 42
-0.342702
  0
VERTEX
  8
0
 10
1585.383701
 20
1515.257000
 42
-0.000023
  0
VERTEX
  8
0
 10
1546.410063
 20
1446.817547
 42
-0.000093
  0
VERTEX
  8
0
 10
1508.175933
 20
1379.712994
 42
-0.061439
  0
VERTEX
  8
0
 10
1505.645029
 20
1376.319426
 42
-0.345118
  0
VERTEX
  8
0
 10
1505.391525
 20
1376.283022
 42
-0.000002
  0
VERTEX
  8
0
 10
1436.181836
 20
1416.095107
 42
-0.000011
  0
VERTEX
  8
0
 10
1367.576478
 20
1455.561906
 42
-0.045341
  0
VERTEX
  8
0
 10
1366.161763
 20
1456.556334
 42
-0.361658
  0
VERTEX
  8
0
 10
1366.098556
 20
1456.917082
 42
-0.000008
  0
VERTEX
  8
0
 10
1395.850054
 20
1508.805777
 42
-0.000516
  0
VERTEX
  8
0
 10
1423.332139
 20
1556.620228
 42
-0.000961
  0
VERTEX
  8
0
 10
1445.726722
 20
1595.318174
 42
-0.143291
  0
VERTEX
  8
0
 10
1446.013437
 20
1595.590475
 42
-0.081400
  0
VERTEX
  8
0
 10
1446.472368
 20
1595.738766
 42
-0.069765
  0
VERTEX
  8
0
 10
1447.028421
 20
1595.744764
 42
-0.059542
  0
VERTEX
  8
0
 10
1447.597257
 20
1595.601053
 42
-0.038507
  0
VERTEX
  8
0
 10
1448.677539
 20
1595.088004
 42
-0.000053
  0
VERTEX
  8
0
 10
1468.485150
 20
1583.734665
 42
-0.000453
  0
VERTEX
  8
0
 10
1490.669951
 20
1570.988893
 42
-0.000280
  0
SEQEND
  0
POLYLINE
  8
0
 66
1
 70
1
  0
VERTEX
  8
0
 10
1345.300780
 20
1569.919832
 42
0.079097
  0
VERTEX
  8
0
 10
1342.129674
 20
1567.667896
 42
0.059227
  0
VERTEX
  8
0
 10
1339.441174
 20
1564.323571
 42
0.059368
  0
VERTEX
  8
0
 10
1337.617611
 20
1560.452097
 42
0.080575
  0
VERTEX
  8
0
 10
1337.000000
 20
1556.644438
 42
0.114779
  0
VERTEX
  8
0
 10
1338.216536
 20
1551.414762
 42
0.085275
  0
VERTEX
  8
0
 10
1341.708844
 20
1546.597225
 42
0.084527
  0
VERTEX
  8
0
 10
1346.643201
 20
1543.186917
 42
0.109459
  0
VERTEX
  8
0
 10
1352.000000
 20
1542.000000
 42
0.077688
  0
VERTEX
  8
0
 10
1355.891701
 20
1542.608345
 42
0.064267
  0
VERTEX
  8
0
 10
1359.695141
 20
1544.391896
 42
0.064569
  0
VERTEX
  8
0
 10
1362.904223
 20
1547.071925
 42
0.080135
  0
VERTEX
  8
0
 10
1365.053196
 20
1550.308667
 42
0.034220
  0
VERTEX
  8
0
 10
1366.440773
 20
1554.020221
 42
0.074603
  0
VERTEX
  8
0
 10
1366.865072
 20
1557.021943
 42
0.075314
  0
VERTEX
  8
0
 10
1366.388298
 20
1559.998020
 42
0.035426
  0
VERTEX
  8
0
 10
1364.939892
 20
1563.624167
 42
0.034452
  0
VERTEX
  8
0
 10
1363.739256
 20
1565.722495
 42
0.049240
  0
VERTEX
  8
0
 10
1362.379783
 20
1567.379783
 42
0.049240
  0
VERTEX
  8
0
 10
1360.722495
 20
1568.739256
 42
0.034452
  0
VERTEX
  8
0
 10
1358.624167
 20
1569.939892
 42
0.035384
  0
VERTEX
  8
0
 10
1354.928418
 20
1571.416456
 42
0.077874
  0
VERTEX
  8
0
 10
1351.930336
 20
1571.881626
 42
0.078420
  0
VERTEX
  8
0
 10
1348.946902
 20
1571.406203
 42
0.036288
  0
SEQEND
  0
POLYLINE
  8
0
 66
1
 70
1
  0
VERTEX
  8
0
 10
1357.579691
 20
1566.114532
 42
-0.117504
  0
VERTEX
  8
0
 10
1361.067349
 20
1562.653754
 42
-0.112897
  0
VERTEX
  8
0
 10
1362.684146
 20
1557.941049
 42
-0.113147
  0
VERTEX
  8
0
 10
1362.090229
 20
1553.002515
 42
-0.118445
  0
VERTEX
  8
0
 10
1359.404126
 20
1548.909931
 42
-0.045917
  0
VERTEX
  8
0
 10
1357.900264
 20
1547.736938
 42
-0.064082
  0
VERTEX
  8
0
 10
1356.360509
 20
1547.007043
 42
-0.054667
  0
VERTEX
  8
0
 10
1354.506416
 20
1546.620677
 42
-0.024060
  0
VERTEX
  8
0
 10
1352.000000
 20
1546.500000
 42
-0.068401
  0
VERTEX
  8
0
 10
1348.058825
 20
1547.041697
 42
-0.096272
  0
VERTEX
  8
0
 10
1344.895846
 20
1548.629058
 42
-0.100838
  0
VERTEX
  8
0
 10
1342.657471
 20
1551.218980
 42
-0.081750
  0
VERTEX
  8
0
 10
1341.400892
 20
1554.676597
 42
-0.114659
  0
VERTEX
  8
0
 10
1341.602819
 20
1559.383278
 42
-0.100608
  0
VERTEX
  8
0
 10
1343.842971
 20
1563.774397
 42
-0.102366
  0
VERTEX
  8
0
 10
1347.578757
 20
1566.886005
 42
-0.123236
  0
VERTEX
  8
0
 10
1352.000000
 20
1567.992524
 42
-0.055871
  0
VERTEX
  8
0
 10
1353.176549
 20
1567.860642
 42
-0.025359
  0
VERTEX
  8
0
 10
1354.670284
 20
1567.440864
 42
-0.024729
  0
VERTEX
  8
0
 10
1356.217260
 20
1566.833515
 42
-0.031018
  0
SEQEND
  0
POLYLINE
  8
0
 66
1
 70
1
  0
VERTEX
  8
0
 10
1473.740524
 20
1766.582264
 42
0.059498
  0
VERTEX
  8
0
 10
1469.245103
 20
1764.330673
 42
0.098989
  0
VERTEX
  8
0
 10
1466.245605
 20
1761.360246
 42
0.095756
  0
VERTEX
  8
0
 10
1464.557558
 20
1757.389829
 42
0.052817
  0
VERTEX
  8
0
 10
1464.000000
 20
1752.126385
 42
0.168701
  0
VERTEX
  8
0
 10
1466.973944
 20
1743.563020
 42
0.164622
  0
VERTEX
  8
0
 10
1474.645070
 20
1738.581240
 42
0.160385
  0
VERTEX
  8
0
 10
1483.923941
 20
1739.217016
 42
0.160558
  0
VERTEX
  8
0
 10
1491.005402
 20
1745.240860
 42
0.157148
  0
VERTEX
  8
0
 10
1493.048037
 20
1753.743031
 42
0.152217
  0
VERTEX
  8
0
 10
1489.782812
 20
1761.963859
 42
0.152877
  0
VERTEX
  8
0
 10
1482.439722
 20
1766.850691
 42
0.158629
  0
SEQEND
  0
POLYLINE
  8
0
 66
1
 70
1
  0
VERTEX
  8
0
 10
1482.988956
 20
1762.505711
 42
-0.060022
  0
VERTEX
  8
0
 10
1485.685820
 20
1760.671947
 42
-0.081835
  0
VERTEX
  8
0
 10
1487.554990
 20
1758.409231
 42
-0.079295
  0
VERTEX
  8
0
 10
1488.637407
 20
1755.609158
 42
-0.052702
  0
VERTEX
  8
0
 10
1489.000000
 20
1752.178704
 42
-0.187445
  0
VERTEX
  8
0
 10
1486.355352
 20
1745.372109
 42
-0.179594
  0
VERTEX
  8
0
 10
1479.753871
 20
1741.983684
 42
-0.176295
  0
VERTEX
  8
0
 10
1472.445817
 20
1743.696249
 42
-0.182539
  0
VERTEX
  8
0
 10
1468.077639
 20
1749.680984
 42
-0.081901
  0
VERTEX
  8
0
 10
1467.703942
 20
1753.194447
 42
-0.084354
  0
VERTEX
  8
0
 10
1468.487017
 20
1756.603555
 42
-0.082738
  0
VERTEX
  8
0
 10
1470.371716
 20
1759.615092
 42
-0.074888
  0
VERTEX
  8
0
 10
1473.189824
 20
1761.974365
 42
-0.036429
  0
VERTEX
  8
0
 10
1475.919823
 20
1763.377234
 42
-0.087141
  0
VERTEX
  8
0
 10
1478.130632
 20
1763.890252
 42
-0.090925
  0
VERTEX
  8
0
 10
1480.325361
 20
1763.609609
 42
-0.042204
  0
SEQEND
  0
POLYLINE
  8
0
 66
1
 70
1
  0
VERTEX
  8
0
 10
1642.218183
 20
1665.336917
 42
0.142326
  0
VERTEX
  8
0
 10
1636.294301
 20
1659.920391
 42
0.140724
  0
VERTEX
  8
0
 10
1634.162146
 20
1652.148134
 42
0.139552
  0
VERTEX
  8
0
 10
1636.473488
 20
1644.379508
 42
0.139255
  0
VERTEX
  8
0
 10
1642.530970
 20
1638.985008
 42
0.151428
  0
VERTEX
  8
0
 10
1651.429449
 20
1637.637691
 42
0.157992
  0
VERTEX
  8
0
 10
1659.356360
 20
1641.601630
 42
0.159407
  0
VERTEX
  8
0
 10
1663.406303
 20
1649.427556
 42
0.154266
  0
VERTEX
  8
0
 10
1662.120300
 20
1658.251494
 42
0.094695
  0
VERTEX
  8
0
 10
1658.569037
 20
1663.024536
 42
0.100406
  0
VERTEX
  8
0
 10
1653.574662
 20
1666.033017
 42
0.101548
  0
VERTEX
  8
0
 10
1647.850636
 20
1666.837437
 42
0.099111
  0
SEQEND
  0
POLYLINE
  8
0
 66
1
 70
1
  0
VERTEX
  8
0
 10
1656.709864
 20
1659.550914
 42
-0.076850
  0
VERTEX
  8
0
 10
1659.080267
 20
1655.744450
 42
-0.103987
  0
VERTEX
  8
0
 10
1659.868695
 20
1651.780515
 42
-0.107474
  0
VERTEX
  8
0
 10
1658.987863
 20
1647.932263
 42
-0.086781
  0
VERTEX
  8
0
 10
1656.545455
 20
1644.454545
 42
-0.135704
  0
VERTEX
  8
0
 10
1651.200316
 20
1641.424999
 42
-0.151709
  0
VERTEX
  8
0
 10
1645.305583
 20
1641.750967
 42
-0.148502
  0
VERTEX
  8
0
 10
1640.543334
 20
1645.380369
 42
-0.128829
  0
VERTEX
  8
0
 10
1638.274614
 20
1651.255988
 42
-0.023018
  0
VERTEX
  8
0
 10
1638.086115
 20
1654.098651
 42
-0.094928
  0
VERTEX
  8
0
 10
1638.374918
 20
1655.790206
 42
-0.088471
  0
VERTEX
  8
0
 10
1639.278525
 20
1657.315329
 42
-0.018513
  0
VERTEX
  8
0
 10
1641.400000
 20
1659.600000
 42
-0.018513
  0
VERTEX
  8
0
 10
1643.684671
 20
1661.721475
 42
-0.088471
  0
VERTEX
  8
0
 10
1645.209794
 20
1662.625082
 42
-0.094928
  0
VERTEX
  8
0
 10
1646.901349
 20
1662.913885
 42
-0.023018
  0
VERTEX
  8
0
 10
1649.744012
 20
1662.725386
 42
-0.027797
  0
VERTEX
  8
0
 10
1652.069939
 20
1662.331342
 42
-0.051094
  0
VERTEX
  8
0
 10
1653.887863
 20
1661.717784
 42
-0.058205
  0
VERTEX
  8
0
 10
1655.380478
 20
1660.815177
 42
-0.050110
  0
SEQEND
  0
POLYLINE
  8
0
 66
1
 70
1
  0
VERTEX
  8
0
 10
822.000000
 20
1075.500000
 42
0.000000
  0
VERTEX
  8
0
 10
822.000000
 20
991.000000
 42
0.000000
  0
VERTEX
  8
0
 10
906.500000
 20
991.000000
 42
0.000000
  0
VERTEX
  8
0
 10
991.000000
 20
991.000000
 42
0.000000
  0
VERTEX
  8
0
 10
991.000000
 20
1075.500000
 42
0.000000
  0
VERTEX
  8
0
 10
991.000000
 20
1160.000000
 42
0.000000
  0
VERTEX
  8
0
 10
906.500000
 20
1160.000000
 42
0.000000
  0
VERTEX
  8
0
 10
822.000000
 20
1160.000000
 42
0.000000
  0
SEQEND
  0
POLYLINE
  8
0
 66
1
 70
1
  0
VERTEX
  8
0
 10
987.000000
 20
1075.500000
 42
0.000000
  0
VERTEX
  8
0
 10
987.000000
 20
995.000000
 42
0.000000
  0
VERTEX
  8
0
 10
906.500000
 20
995.000000
 42
0.000000
  0
VERTEX
  8
0
 10
826.000000
 20
995.000000
 42
0.000000
  0
VERTEX
  8
0
 10
826.000000
 20
1075.500000
 42
0.000000
  0
VERTEX
  8
0
 10
826.000000
 20
1156.000000
 42
0.000000
  0
VERTEX
  8
0
 10
906.500000
 20
1156.000000
 42
0.000000
  0
VERTEX
  8
0
 10
987.000000
 20
1156.000000
 42
0.000000
  0
SEQEND
  0
POLYLINE
  8
0
 66
1
 70
1
  0
VERTEX
  8
0
 10
597.000000
 20
1047.500000
 42
0.000000
  0
VERTEX
  8
0
 10
597.000000
 20
963.000000
 42
0.000000
  0
VERTEX
  8
0
 10
682.000000
 20
963.000000
 42
0.000000
  0
VERTEX
  8
0
 10
767.000000
 20
963.000000
 42
0.000000
  0
VERTEX
  8
0
 10
767.000000
 20
1047.500000
 42
0.000000
  0
VERTEX
  8
0
 10
767.000000
 20
1132.000000
 42
0.000000
  0
VERTEX
  8
0
 10
682.000000
 20
1132.000000
 42
0.000000
  0
VERTEX
  8
0
 10
597.000000
 20
1132.000000
 42
0.000000
  0
SEQEND
  0
POLYLINE
  8
0
 66
1
 70
1
  0
VERTEX
  8
0
 10
763.000000
 20
1047.500000
 42
0.000000
  0
VERTEX
  8
0
 10
763.000000
 20
967.000000
 42
0.000000
  0
VERTEX
  8
0
 10
682.000000
 20
967.000000
 42
0.000000
  0
VERTEX
  8
0
 10
601.000000
 20
967.000000
 42
0.000000
  0
VERTEX
  8
0
 10
601.000000
 20
1047.500000
 42
0.000000
  0
VERTEX
  8
0
 10
601.000000
 20
1128.000000
 42
0.000000
  0
VERTEX
  8
0
 10
682.000000
 20
1128.000000
 42
0.000000
  0
VERTEX
  8
0
 10
763.000000
 20
1128.000000
 42
0.000000
  0
SEQEND
  0
POLYLINE
  8
0
 66
1
 70
1
  0
VERTEX
  8
0
 10
1046.000000
 20
1047.500000
 42
0.000000
  0
VERTEX
  8
0
 10
1046.000000
 20
963.000000
 42
0.000000
  0
VERTEX
  8
0
 10
1131.000000
 20
963.000000
 42
0.000000
  0
VERTEX
  8
0
 10
1216.000000
 20
963.000000
 42
0.000000
  0
VERTEX
  8
0
 10
1216.000000
 20
1047.500000
 42
0.000000
  0
VERTEX
  8
0
 10
1216.000000
 20
1132.000000
 42
0.000000
  0
VERTEX
  8
0
 10
1131.000000
 20
1132.000000
 42
0.000000
  0
VERTEX
  8
0
 10
1046.000000
 20
1132.000000
 42
0.000000
  0
SEQEND
  0
POLYLINE
  8
0
 66
1
 70
1
  0
VERTEX
  8
0
 10
1212.000000
 20
1047.500000
 42
0.000000
  0
VERTEX
  8
0
 10
1212.000000
 20
967.000000
 42
0.000000
  0
VERTEX
  8
0
 10
1131.000000
 20
967.000000
 42
0.000000
  0
VERTEX
  8
0
 10
1050.000000
 20
967.000000
 42
0.000000
  0
VERTEX
  8
0
 10
1050.000000
 20
1047.500000
 42
0.000000
  0
VERTEX
  8
0
 10
1050.000000
 20
1128.000000
 42
0.000000
  0
VERTEX
  8
0
 10
1131.000000
 20
1128.000000
 42
0.000000
  0
VERTEX
  8
0
 10
1212.000000
 20
1128.000000
 42
0.000000
  0
SEQEND
  0
POLYLINE
  8
0
 66
1
 70
1
  0
VERTEX
  8
0
 10
373.000000
 20
1019.500000
 42
0.000000
  0
VERTEX
  8
0
 10
373.000000
 20
935.000000
 42
0.000000
  0
VERTEX
  8
0
 10
457.500000
 20
935.000000
 42
0.000000
  0
VERTEX
  8
0
 10
542.000000
 20
935.000000
 42
0.000000
  0
VERTEX
  8
0
 10
542.000000
 20
1019.500000
 42
0.000000
  0
VERTEX
  8
0
 10
542.000000
 20
1104.000000
 42
0.000000
  0
VERTEX
  8
0
 10
457.500000
 20
1104.000000
 42
0.000000
  0
VERTEX
  8
0
 10
373.000000
 20
1104.000000
 42
0.000000
  0
SEQEND
  0
POLYLINE
  8
0
 66
1
 70
1
  0
VERTEX
  8
0
 10
538.000000
 20
1019.500000
 42
0.000000
  0
VERTEX
  8
0
 10
538.000000
 20
939.000000
 42
0.000000
  0
VERTEX
  8
0
 10
457.500000
 20
939.000000
 42
0.000000
  0
VERTEX
  8
0
 10
377.000000
 20
939.000000
 42
0.000000
  0
VERTEX
  8
0
 10
377.000000
 20
1019.500000
 42
0.000000
  0
VERTEX
  8
0
 10
377.000000
 20
1100.000000
 42
0.000000
  0
VERTEX
  8
0
 10
457.500000
 20
1100.000000
 42
0.000000
  0
VERTEX
  8
0
 10
538.000000
 20
1100.000000
 42
0.000000
  0
SEQEND
  0
POLYLINE
  8
0
 66
1
 70
1
  0
VERTEX
  8
0
 10
1271.000000
 20
991.500000
 42
0.000000
  0
VERTEX
  8
0
 10
1271.000000
 20
907.000000
 42
0.000000
  0
VERTEX
  8
0
 10
1355.500000
 20
907.000000
 42
0.000000
  0
VERTEX
  8
0
 10
1440.000000
 20
907.000000
 42
0.000000
  0
VERTEX
  8
0
 10
1440.000000
 20
991.500000
 42
0.000000
  0
VERTEX
  8
0
 10
1440.000000
 20
1076.000000
 42
0.000000
  0
VERTEX
  8
0
 10
1355.500000
 20
1076.000000
 42
0.000000
  0
VERTEX
  8
0
 10
1271.000000
 20
1076.000000
 42
0.000000
  0
SEQEND
  0
POLYLINE
  8
0
 66
1
 70
1
  0
VERTEX
  8
0
 10
1436.000000
 20
991.500000
 42
0.000000
  0
VERTEX
  8
0
 10
1436.000000
 20
911.000000
 42
0.000000
  0
VERTEX
  8
0
 10
1355.500000
 20
911.000000
 42
0.000000
  0
VERTEX
  8
0
 10
1275.000000
 20
911.000000
 42
0.000000
  0
VERTEX
  8
0
 10
1275.000000
 20
991.500000
 42
0.000000
  0
VERTEX
  8
0
 10
1275.000000
 20
1072.000000
 42
0.000000
  0
VERTEX
  8
0
 10
1355.500000
 20
1072.000000
 42
0.000000
  0
VERTEX
  8
0
 10
1436.000000
 20
1072.000000
 42
0.000000
  0
SEQEND
  0
POLYLINE
  8
0
 66
1
 70
1
  0
VERTEX
  8
0
 10
1495.000000
 20
991.500000
 42
0.000000
  0
VERTEX
  8
0
 10
1495.000000
 20
907.000000
 42
0.000000
  0
VERTEX
  8
0
 10
1579.500000
 20
907.000000
 42
0.000000
  0
VERTEX
  8
0
 10
1664.000000
 20
907.000000
 42
0.000000
  0
VERTEX
  8
0
 10
1664.000000
 20
991.500000
 42
0.000000
  0
VERTEX
  8
0
 10
1664.000000
 20
1076.000000
 42
0.000000
  0
VERTEX
  8
0
 10
1579.500000
 20
1076.000000
 42
0.000000
  0
VERTEX
  8
0
 10
1495.000000
 20
1076.000000
 42
0.000000
  0
SEQEND
  0
POLYLINE
  8
0
 66
1
 70
1
  0
VERTEX
  8
0
 10
1660.000000
 20
991.500000
 42
0.000000
  0
VERTEX
  8
0
 10
1660.000000
 20
911.000000
 42
0.000000
  0
VERTEX
  8
0
 10
1579.500000
 20
911.000000
 42
0.000000
  0
VERTEX
  8
0
 10
1499.000000
 20
911.000000
 42
0.000000
  0
VERTEX
  8
0
 10
1499.000000
 20
991.500000
 42
0.000000
  0
VERTEX
  8
0
 10
1499.000000
 20
1072.000000
 42
0.000000
  0
VERTEX
  8
0
 10
1579.500000
 20
1072.000000
 42
0.000000
  0
VERTEX
  8
0
 10
1660.000000
 20
1072.000000
 42
0.000000
  0
SEQEND
  0
POLYLINE
  8
0
 66
1
 70
1
  0
VERTEX
  8
0
 10
563.423711
 20
934.980654
 42
0.074240
  0
VERTEX
  8
0
 10
560.148113
 20
932.701754
 42
0.061265
  0
VERTEX
  8
0
 10
557.429466
 20
929.423592
 42
0.062121
  0
VERTEX
  8
0
 10
555.619427
 20
925.637021
 42
0.081860
  0
VERTEX
  8
0
 10
555.016450
 20
921.863845
 42
0.108885
  0
VERTEX
  8
0
 10
556.224308
 20
916.507864
 42
0.085985
  0
VERTEX
  8
0
 10
559.637705
 20
911.626833
 42
0.086383
  0
VERTEX
  8
0
 10
564.476919
 20
908.196556
 42
0.111535
  0
VERTEX
  8
0
 10
569.774236
 20
907.000000
 42
0.074580
  0
VERTEX
  8
0
 10
573.788609
 20
907.602135
 42
0.065427
  0
VERTEX
  8
0
 10
577.648627
 20
909.365123
 42
0.066218
  0
VERTEX
  8
0
 10
580.879739
 20
912.039203
 42
0.080430
  0
VERTEX
  8
0
 10
583.053196
 20
915.308667
 42
0.034220
  0
VERTEX
  8
0
 10
584.440773
 20
919.020221
 42
0.074603
  0
VERTEX
  8
0
 10
584.865072
 20
922.021943
 42
0.075314
  0
VERTEX
  8
0
 10
584.388298
 20
924.998020
 42
0.035426
  0
VERTEX
  8
0
 10
582.939892
 20
928.624167
 42
0.034452
  0
VERTEX
  8
0
 10
581.739256
 20
930.722495
 42
0.049240
  0
VERTEX
  8
0
 10
580.379783
 20
932.379783
 42
0.049240
  0
VERTEX
  8
0
 10
578.722495
 20
933.739256
 42
0.034452
  0
VERTEX
  8
0
 10
576.624167
 20
934.939892
 42
0.035157
  0
VERTEX
  8
0
 10
572.945165
 20
936.411702
 42
0.076947
  0
VERTEX
  8
0
 10
569.955352
 20
936.884016
 42
0.078338
  0
VERTEX
  8
0
 10
566.996630
 20
936.426952
 42
0.037522
  0
SEQEND
  0
POLYLINE
  8
0
 66
1
 70
1
  0
VERTEX
  8
0
 10
575.579691
 20
931.114532
 42
-0.117591
  0
VERTEX
  8
0
 10
579.038387
 20
927.681325
 42
-0.110510
  0
VERTEX
  8
0
 10
580.674995
 20
922.978005
 42
-0.111676
  0
VERTEX
  8
0
 10
580.143946
 20
918.065922
 42
-0.122224
  0
VERTEX
  8
0
 10
577.546955
 20
914.044112
 42
-0.055669
  0
VERTEX
  8
0
 10
576.261580
 20
913.081157
 42
-0.036091
  0
VERTEX
  8
0
 10
574.595132
 20
912.256365
 42
-0.034210
  0
VERTEX
  8
0
 10
572.710611
 20
911.633845
 42
-0.034617
  0
VERTEX
  8
0
 10
570.766227
 20
911.277118
 42
-0.026351
  0
VERTEX
  8
0
 10
568.330132
 20
911.131876
 42
-0.072187
  0
VERTEX
  8
0
 10
566.626629
 20
911.367185
 42
-0.074820
  0
VERTEX
  8
0
 10
565.095417
 20
912.070819
 42
-0.029858
  0
VERTEX
  8
0
 10
563.237967
 20
913.453218
 42
-0.075922
  0
VERTEX
  8
0
 10
560.901999
 20
916.118017
 42
-0.080760
  0
VERTEX
  8
0
 10
559.528339
 20
919.304537
 42
-0.081355
  0
VERTEX
  8
0
 10
559.240693
 20
922.741803
 42
-0.078620
  0
VERTEX
  8
0
 10
560.055892
 20
926.134935
 42
-0.085618
  0
VERTEX
  8
0
 10
561.647279
 20
928.653507
 42
-0.058251
  0
VERTEX
  8
0
 10
564.201099
 20
930.893790
 42
-0.058736
  0
VERTEX
  8
0
 10
567.172068
 20
932.464698
 42
-0.092525
  0
VERTEX
  8
0
 10
570.000000
 20
932.992524
 42
-0.055871
  0
VERTEX
  8
0
 10
571.176549
 20
932.860642
 42
-0.025359
  0
VERTEX
  8
0
 10
572.670284
 20
932.440864
 42
-0.024729
  0
VERTEX
  8
0
 10
574.217260
 20
931.833515
 42
-0.031018
  0
SEQEND
  0
POLYLINE
  8
0
 66
1
 70
1
  0
VERTEX
  8
0
 10
822.000000
 20
851.000000
 42
0.000000
  0
VERTEX
  8
0
 10
822.000000
 20
766.000000
 42
0.000000
  0
VERTEX
  8
0
 10
906.500000
 20
766.000000
 42
0.000000
  0
VERTEX
  8
0
 10
991.000000
 20
766.000000
 42
0.000000
  0
VERTEX
  8
0
 10
991.000000
 20
851.000000
 42
0.000000
  0
VERTEX
  8
0
 10
991.000000
 20
936.000000
 42
0.000000
  0
VERTEX
  8
0
 10
906.500000
 20
936.000000
 42
0.000000
  0
VERTEX
  8
0
 10
822.000000
 20
936.000000
 42
0.000000
  0
SEQEND
  0
POLYLINE
  8
0
 66
1
 70
1
  0
VERTEX
  8
0
 10
987.000000
 20
851.000000
 42
0.000000
  0
VERTEX
  8
0
 10
987.000000
 20
770.000000
 42
0.000000
  0
VERTEX
  8
0
 10
906.500000
 20
770.000000
 42
0.000000
  0
VERTEX
  8
0
 10
826.000000
 20
770.000000
 42
0.000000
  0
VERTEX
  8
0
 10
826.000000
 20
851.000000
 42
0.000000
  0
VERTEX
  8
0
 10
826.000000
 20
932.000000
 42
0.000000
  0
VERTEX
  8
0
 10
906.500000
 20
932.000000
 42
0.000000
  0
VERTEX
  8
0
 10
987.000000
 20
932.000000
 42
0.000000
  0
SEQEND
  0
POLYLINE
  8
0
 66
1
 70
1
  0
VERTEX
  8
0
 10
597.462551
 20
906.755685
 42
0.090622
  0
VERTEX
  8
0
 10
597.267832
 20
905.707685
 42
0.000088
  0
VERTEX
  8
0
 10
597.200087
 20
881.340733
 42
0.000883
  0
VERTEX
  8
0
 10
597.177232
 20
854.103986
 42
0.000541
  0
VERTEX
  8
0
 10
597.241754
 20
822.000000
 42
0.000000
  0
VERTEX
  8
0
 10
597.500000
 20
738.500000
 42
0.000000
  0
VERTEX
  8
0
 10
682.000000
 20
738.500000
 42
0.000000
  0
VERTEX
  8
0
 10
766.500000
 20
738.500000
 42
0.000000
  0
VERTEX
  8
0
 10
766.500000
 20
823.000000
 42
0.000000
  0
VERTEX
  8
0
 10
766.500000
 20
907.500000
 42
0.000000
  0
VERTEX
  8
0
 10
682.220797
 20
907.755685
 42
0.000582
  0
VERTEX
  8
0
 10
638.635316
 20
907.837181
 42
0.003126
  0
VERTEX
  8
0
 10
614.898909
 20
907.705539
 42
0.001005
  0
VERTEX
  8
0
 10
598.495120
 20
907.479027
 42
0.306742
  0
SEQEND
  0
POLYLINE
  8
0
 66
1
 70
1
  0
VERTEX
  8
0
 10
763.000000
 20
822.994085
 42
0.000000
  0
VERTEX
  8
0
 10
763.000000
 20
741.988171
 42
0.000000
  0
VERTEX
  8
0
 10
682.250000
 20
742.244085
 42
0.000000
  0
VERTEX
  8
0
 10
601.500000
 20
742.500000
 42
0.000000
  0
VERTEX
  8
0
 10
601.241604
 20
822.000000
 42
-0.000567
  0
VERTEX
  8
0
 10
601.176881
 20
852.569807
 42
-0.000923
  0
VERTEX
  8
0
 10
601.199234
 20
878.514063
 42
-0.000096
  0
VERTEX
  8
0
 10
601.266459
 20
901.707833
 42
-0.090612
  0
VERTEX
  8
0
 10
601.460219
 20
902.750000
 42
-0.305669
  0
VERTEX
  8
0
 10
602.480151
 20
903.467329
 42
-0.001054
  0
VERTEX
  8
0
 10
618.291461
 20
903.744639
 42
-0.003238
  0
VERTEX
  8
0
 10
641.082541
 20
903.948713
 42
-0.000620
  0
VERTEX
  8
0
 10
682.468615
 20
904.000000
 42
0.000000
  0
VERTEX
  8
0
 10
763.000000
 20
904.000000
 42
0.000000
  0
SEQEND
  0
POLYLINE
  8
0
 66
1
 70
1
  0
VERTEX
  8
0
 10
1046.672311
 20
907.338978
 42
0.196768
  0
VERTEX
  8
0
 10
1046.396216
 20
906.680130
 42
0.000086
  0
VERTEX
  8
0
 10
1046.197491
 20
882.089582
 42
0.001230
  0
VERTEX
  8
0
 10
1046.048360
 20
854.713410
 42
0.000747
  0
VERTEX
  8
0
 10
1046.000000
 20
822.327686
 42
0.000000
  0
VERTEX
  8
0
 10
1046.000000
 20
737.988705
 42
0.000000
  0
VERTEX
  8
0
 10
1130.750000
 20
738.244353
 42
0.000000
  0
VERTEX
  8
0
 10
1215.500000
 20
738.500000
 42
0.000000
  0
VERTEX
  8
0
 10
1215.500000
 20
823.000000
 42
0.000000
  0
VERTEX
  8
0
 10
1215.500000
 20
907.500000
 42
0.000000
  0
VERTEX
  8
0
 10
1131.422311
 20
907.755644
 42
0.000751
  0
VERTEX
  8
0
 10
1099.136772
 20
907.805304
 42
0.001238
  0
VERTEX
  8
0
 10
1071.844952
 20
907.738702
 42
0.000087
  0
VERTEX
  8
0
 10
1047.331133
 20
907.613905
 42
0.197544
  0
SEQEND
  0
POLYLINE
  8
0
 66
1
 70
1
  0
VERTEX
  8
0
 10
1211.500000
 20
823.000000
 42
0.000000
  0
VERTEX
  8
0
 10
1211.500000
 20
742.500000
 42
0.000000
  0
VERTEX
  8
0
 10
1130.750000
 20
742.244085
 42
0.000000
  0
VERTEX
  8
0
 10
1050.000000
 20
741.988171
 42
0.000000
  0
VERTEX
  8
0
 10
1050.000000
 20
823.000000
 42
0.000000
  0
VERTEX
  8
0
 10
1050.000000
 20
904.011829
 42
0.000000
  0
VERTEX
  8
0
 10
1130.750000
 20
903.755915
 42
0.000000
  0
VERTEX
  8
0
 10
1211.500000
 20
903.500000
 42
0.000000
  0
SEQEND
  0
POLYLINE
  8
0
 66
1
 70
1
  0
VERTEX
  8
0
 10
1464.479078
 20
891.987699
 42
0.121096
  0
VERTEX
  8
0
 10
1458.326376
 20
889.013861
 42
0.117610
  0
VERTEX
  8
0
 10
1454.173535
 20
883.498646
 42
0.118084
  0
VERTEX
  8
0
 10
1452.967037
 20
876.721588
 42
0.122768
  0
VERTEX
  8
0
 10
1454.994598
 20
870.240860
 42
0.160044
  0
VERTEX
  8
0
 10
1462.155584
 20
864.137002
 42
0.162867
  0
VERTEX
  8
0
 10
1471.485113
 20
863.524330
 42
0.165816
  0
VERTEX
  8
0
 10
1479.186304
 20
868.635828
 42
0.165535
  0
VERTEX
  8
0
 10
1482.166667
 20
877.391381
 42
0.103517
  0
VERTEX
  8
0
 10
1480.783986
 20
883.998335
 42
0.117603
  0
VERTEX
  8
0
 10
1476.892944
 20
889.151651
 42
0.118752
  0
VERTEX
  8
0
 10
1471.128650
 20
891.961330
 42
0.106994
  0
SEQEND
  0
POLYLINE
  8
0
 66
1
 70
1
  0
VERTEX
  8
0
 10
1473.833526
 20
886.354496
 42
-0.092194
  0
VERTEX
  8
0
 10
1476.168221
 20
884.143415
 42
-0.073710
  0
VERTEX
  8
0
 10
1477.775885
 20
881.067135
 42
-0.073446
  0
VERTEX
  8
0
 10
1478.426092
 20
877.645371
 42
-0.090226
  0
VERTEX
  8
0
 10
1477.976859
 20
874.429883
 42
-0.176274
  0
VERTEX
  8
0
 10
1473.366929
 20
868.584016
 42
-0.174906
  0
VERTEX
  8
0
 10
1466.061149
 20
867.043755
 42
-0.179182
  0
VERTEX
  8
0
 10
1459.582407
 20
870.525486
 42
-0.182763
  0
VERTEX
  8
0
 10
1457.000000
 20
877.354417
 42
-0.121993
  0
VERTEX
  8
0
 10
1458.462973
 20
883.261302
 42
-0.149662
  0
VERTEX
  8
0
 10
1462.453654
 20
887.273630
 42
-0.148455
  0
VERTEX
  8
0
 10
1468.033771
 20
888.382868
 42
-0.119517
  0
SEQEND
  0
POLYLINE
  8
0
 66
1
 70
1
  0
VERTEX
  8
0
 10
373.000000
 20
794.500000
 42
0.000000
  0
VERTEX
  8
0
 10
373.000000
 20
710.000000
 42
0.000000
  0
VERTEX
  8
0
 10
457.500000
 20
710.000000
 42
0.000000
  0
VERTEX
  8
0
 10
542.000000
 20
710.000000
 42
0.000000
  0
VERTEX
  8
0
 10
542.000000
 20
794.500000
 42
0.000000
  0
VERTEX
  8
0
 10
542.000000
 20
879.000000
 42
0.000000
  0
VERTEX
  8
0
 10
457.500000
 20
879.000000
 42
0.000000
  0
VERTEX
  8
0
 10
373.000000
 20
879.000000
 42
0.000000
  0
SEQEND
  0
POLYLINE
  8
0
 66
1
 70
1
  0
VERTEX
  8
0
 10
538.000000
 20
795.000000
 42
0.000000
  0
VERTEX
  8
0
 10
538.000000
 20
714.000000
 42
0.000000
  0
VERTEX
  8
0
 10
457.500000
 20
714.000000
 42
0.000000
  0
VERTEX
  8
0
 10
377.000000
 20
714.000000
 42
0.000000
  0
VERTEX
  8
0
 10
377.000000
 20
795.000000
 42
0.000000
  0
VERTEX
  8
0
 10
377.000000
 20
876.000000
 42
0.000000
  0
VERTEX
  8
0
 10
457.500000
 20
876.000000
 42
0.000000
  0
VERTEX
  8
0
 10
538.000000
 20
876.000000
 42
0.000000
  0
SEQEND
  0
POLYLINE
  8
0
 66
1
 70
1
  0
VERTEX
  8
0
 10
1271.000000
 20
767.000000
 42
0.000000
  0
VERTEX
  8
0
 10
1271.000000
 20
682.000000
 42
0.000000
  0
VERTEX
  8
0
 10
1355.500000
 20
682.000000
 42
0.000000
  0
VERTEX
  8
0
 10
1440.000000
 20
682.000000
 42
0.000000
  0
VERTEX
  8
0
 10
1440.000000
 20
767.000000
 42
0.000000
  0
VERTEX
  8
0
 10
1440.000000
 20
852.000000
 42
0.000000
  0
VERTEX
  8
0
 10
1355.500000
 20
852.000000
 42
0.000000
  0
VERTEX
  8
0
 10
1271.000000
 20
852.000000
 42
0.000000
  0
SEQEND
  0
POLYLINE
  8
0
 66
1
 70
1
  0
VERTEX
  8
0
 10
1436.000000
 20
767.000000
 42
0.000000
  0
VERTEX
  8
0
 10
1436.000000
 20
686.000000
 42
0.000000
  0
VERTEX
  8
0
 10
1355.500000
 20
686.000000
 42
0.000000
  0
VERTEX
  8
0
 10
1275.000000
 20
686.000000
 42
0.000000
  0
VERTEX
  8
0
 10
1275.000000
 20
767.000000
 42
0.000000
  0
VERTEX
  8
0
 10
1275.000000
 20
848.000000
 42
0.000000
  0
VERTEX
  8
0
 10
1355.500000
 20
848.000000
 42
0.000000
  0
VERTEX
  8
0
 10
1436.000000
 20
848.000000
 42
0.000000
  0
SEQEND
  0
POLYLINE
  8
0
 66
1
 70
1
  0
VERTEX
  8
0
 10
1495.000000
 20
767.000000
 42
0.000000
  0
VERTEX
  8
0
 10
1495.000000
 20
682.000000
 42
0.000000
  0
VERTEX
  8
0
 10
1579.500000
 20
682.000000
 42
0.000000
  0
VERTEX
  8
0
 10
1664.000000
 20
682.000000
 42
0.000000
  0
VERTEX
  8
0
 10
1664.000000
 20
767.000000
 42
0.000000
  0
VERTEX
  8
0
 10
1664.000000
 20
852.000000
 42
0.000000
  0
VERTEX
  8
0
 10
1579.500000
 20
852.000000
 42
0.000000
  0
VERTEX
  8
0
 10
1495.000000
 20
852.000000
 42
0.000000
  0
SEQEND
  0
POLYLINE
  8
0
 66
1
 70
1
  0
VERTEX
  8
0
 10
1660.000000
 20
767.000000
 42
0.000000
  0
VERTEX
  8
0
 10
1660.000000
 20
686.000000
 42
0.000000
  0
VERTEX
  8
0
 10
1579.500000
 20
686.000000
 42
0.000000
  0
VERTEX
  8
0
 10
1499.000000
 20
686.000000
 42
0.000000
  0
VERTEX
  8
0
 10
1499.000000
 20
767.000000
 42
0.000000
  0
VERTEX
  8
0
 10
1499.000000
 20
848.000000
 42
0.000000
  0
VERTEX
  8
0
 10
1579.500000
 20
848.000000
 42
0.000000
  0
VERTEX
  8
0
 10
1660.000000
 20
848.000000
 42
0.000000
  0
SEQEND
  0
POLYLINE
  8
0
 66
1
 70
1
  0
VERTEX
  8
0
 10
822.000000
 20
626.500000
 42
0.000000
  0
VERTEX
  8
0
 10
822.000000
 20
542.000000
 42
0.000000
  0
VERTEX
  8
0
 10
906.500000
 20
542.000000
 42
0.000000
  0
VERTEX
  8
0
 10
991.000000
 20
542.000000
 42
0.000000
  0
VERTEX
  8
0
 10
991.000000
 20
626.500000
 42
0.000000
  0
VERTEX
  8
0
 10
991.000000
 20
711.000000
 42
0.000000
  0
VERTEX
  8
0
 10
906.500000
 20
711.000000
 42
0.000000
  0
VERTEX
  8
0
 10
822.000000
 20
711.000000
 42
0.000000
  0
SEQEND
  0
POLYLINE
  8
0
 66
1
 70
1
  0
VERTEX
  8
0
 10
987.000000
 20
626.500000
 42
0.000000
  0
VERTEX
  8
0
 10
987.000000
 20
546.000000
 42
0.000000
  0
VERTEX
  8
0
 10
906.500000
 20
546.000000
 42
0.000000
  0
VERTEX
  8
0
 10
826.000000
 20
546.000000
 42
0.000000
  0
VERTEX
  8
0
 10
826.000000
 20
626.500000
 42
0.000000
  0
VERTEX
  8
0
 10
826.000000
 20
707.000000
 42
0.000000
  0
VERTEX
  8
0
 10
906.500000
 20
707.000000
 42
0.000000
  0
VERTEX
  8
0
 10
987.000000
 20
707.000000
 42
0.000000
  0
SEQEND
  0
POLYLINE
  8
0
 66
1
 70
1
  0
VERTEX
  8
0
 10
597.000000
 20
598.500000
 42
0.000000
  0
VERTEX
  8
0
 10
597.000000
 20
514.000000
 42
0.000000
  0
VERTEX
  8
0
 10
682.000000
 20
514.000000
 42
0.000000
  0
VERTEX
  8
0
 10
767.000000
 20
514.000000
 42
0.000000
  0
VERTEX
  8
0
 10
767.000000
 20
598.500000
 42
0.000000
  0
VERTEX
  8
0
 10
767.000000
 20
683.000000
 42
0.000000
  0
VERTEX
  8
0
 10
682.000000
 20
683.000000
 42
0.000000
  0
VERTEX
  8
0
 10
597.000000
 20
683.000000
 42
0.000000
  0
SEQEND
  0
POLYLINE
  8
0
 66
1
 70
1
  0
VERTEX
  8
0
 10
763.000000
 20
598.500000
 42
0.000000
  0
VERTEX
  8
0
 10
763.000000
 20
518.000000
 42
0.000000
  0
VERTEX
  8
0
 10
682.000000
 20
518.000000
 42
0.000000
  0
VERTEX
  8
0
 10
601.000000
 20
518.000000
 42
0.000000
  0
VERTEX
  8
0
 10
601.000000
 20
598.500000
 42
0.000000
  0
VERTEX
  8
0
 10
601.000000
 20
679.000000
 42
0.000000
  0
VERTEX
  8
0
 10
682.000000
 20
679.000000
 42
0.000000
  0
VERTEX
  8
0
 10
763.000000
 20
679.000000
 42
0.000000
  0
SEQEND
  0
POLYLINE
  8
0
 66
1
 70
1
  0
VERTEX
  8
0
 10
1046.000000
 20
598.500000
 42
0.000000
  0
VERTEX
  8
0
 10
1046.000000
 20
514.000000
 42
0.000000
  0
VERTEX
  8
0
 10
1131.000000
 20
514.000000
 42
0.000000
  0
VERTEX
  8
0
 10
1216.000000
 20
514.000000
 42
0.000000
  0
VERTEX
  8
0
 10
1216.000000
 20
598.500000
 42
0.000000
  0
VERTEX
  8
0
 10
1216.000000
 20
683.000000
 42
0.000000
  0
VERTEX
  8
0
 10
1131.000000
 20
683.000000
 42
0.000000
  0
VERTEX
  8
0
 10
1046.000000
 20
683.000000
 42
0.000000
  0
SEQEND
  0
POLYLINE
  8
0
 66
1
 70
1
  0
VERTEX
  8
0
 10
1212.000000
 20
598.500000
 42
0.000000
  0
VERTEX
  8
0
 10
1212.000000
 20
518.000000
 42
0.000000
  0
VERTEX
  8
0
 10
1131.000000
 20
518.000000
 42
0.000000
  0
VERTEX
  8
0
 10
1050.000000
 20
518.000000
 42
0.000000
  0
VERTEX
  8
0
 10
1050.000000
 20
598.500000
 42
0.000000
  0
VERTEX
  8
0
 10
1050.000000
 20
679.000000
 42
0.000000
  0
VERTEX
  8
0
 10
1131.000000
 20
679.000000
 42
0.000000
  0
VERTEX
  8
0
 10
1212.000000
 20
679.000000
 42
0.000000
  0
SEQEND
  0
POLYLINE
  8
0
 66
1
 70
1
  0
VERTEX
  8
0
 10
1460.240860
 20
669.005402
 42
0.130161
  0
VERTEX
  8
0
 10
1454.774964
 20
663.305036
 42
0.137385
  0
VERTEX
  8
0
 10
1452.989974
 20
655.765678
 42
0.137385
  0
VERTEX
  8
0
 10
1455.380392
 20
648.395851
 42
0.130159
  0
VERTEX
  8
0
 10
1461.290494
 20
643.157379
 42
0.021414
  0
VERTEX
  8
0
 10
1463.811242
 20
642.020954
 42
0.048194
  0
VERTEX
  8
0
 10
1465.821766
 20
641.433214
 42
0.054269
  0
VERTEX
  8
0
 10
1467.754111
 20
641.278955
 42
0.034663
  0
VERTEX
  8
0
 10
1469.998842
 20
641.499804
 42
0.082048
  0
VERTEX
  8
0
 10
1473.721437
 20
642.779449
 42
0.060714
  0
VERTEX
  8
0
 10
1477.280561
 20
645.299463
 42
0.060579
  0
VERTEX
  8
0
 10
1480.138178
 20
648.607981
 42
0.080672
  0
VERTEX
  8
0
 10
1481.792991
 20
652.212444
 42
0.151940
  0
VERTEX
  8
0
 10
1481.517714
 20
660.765752
 42
0.144783
  0
VERTEX
  8
0
 10
1476.449088
 20
667.845888
 42
0.147067
  0
VERTEX
  8
0
 10
1468.414518
 20
670.961043
 42
0.157626
  0
SEQEND
  0
POLYLINE
  8
0
 66
1
 70
1
  0
VERTEX
  8
0
 10
1474.292750
 20
664.984363
 42
-0.082274
  0
VERTEX
  8
0
 10
1476.324154
 20
662.760056
 42
-0.055121
  0
VERTEX
  8
0
 10
1477.874781
 20
659.675364
 42
-0.056343
  0
VERTEX
  8
0
 10
1478.678093
 20
656.436216
 42
-0.106402
  0
VERTEX
  8
0
 10
1478.460026
 20
653.765700
 42
-0.081661
  0
VERTEX
  8
0
 10
1477.153848
 20
651.105604
 42
-0.051218
  0
VERTEX
  8
0
 10
1474.858462
 20
648.497712
 42
-0.051565
  0
VERTEX
  8
0
 10
1472.110344
 20
646.435936
 42
-0.089028
  0
VERTEX
  8
0
 10
1469.446321
 20
645.423952
 42
-0.086510
  0
VERTEX
  8
0
 10
1466.562988
 20
645.386882
 42
-0.063841
  0
VERTEX
  8
0
 10
1463.495847
 20
646.292952
 42
-0.062427
  0
VERTEX
  8
0
 10
1460.686804
 20
647.974645
 42
-0.074047
  0
VERTEX
  8
0
 10
1458.560704
 20
650.216795
 42
-0.095967
  0
VERTEX
  8
0
 10
1457.482253
 20
652.633923
 42
-0.053593
  0
VERTEX
  8
0
 10
1457.091239
 20
655.843389
 42
-0.052631
  0
VERTEX
  8
0
 10
1457.393422
 20
659.154410
 42
-0.077637
  0
VERTEX
  8
0
 10
1458.395507
 20
661.889929
 42
-0.123944
  0
VERTEX
  8
0
 10
1461.314103
 20
665.005693
 42
-0.095081
  0
VERTEX
  8
0
 10
1465.658585
 20
666.750209
 42
-0.094584
  0
VERTEX
  8
0
 10
1470.360953
 20
666.767336
 42
-0.120973
  0
SEQEND
  0
POLYLINE
  8
0
 66
1
 70
1
  0
VERTEX
  8
0
 10
373.000000
 20
570.500000
 42
0.000000
  0
VERTEX
  8
0
 10
373.000000
 20
486.000000
 42
0.000000
  0
VERTEX
  8
0
 10
457.500000
 20
486.000000
 42
0.000000
  0
VERTEX
  8
0
 10
542.000000
 20
486.000000
 42
0.000000
  0
VERTEX
  8
0
 10
542.000000
 20
570.500000
 42
0.000000
  0
VERTEX
  8
0
 10
542.000000
 20
655.000000
 42
0.000000
  0
VERTEX
  8
0
 10
457.500000
 20
655.000000
 42
0.000000
  0
VERTEX
  8
0
 10
373.000000
 20
655.000000
 42
0.000000
  0
SEQEND
  0
POLYLINE
  8
0
 66
1
 70
1
  0
VERTEX
  8
0
 10
538.000000
 20
570.500000
 42
0.000000
  0
VERTEX
  8
0
 10
538.000000
 20
490.000000
 42
0.000000
  0
VERTEX
  8
0
 10
457.500000
 20
490.000000
 42
0.000000
  0
VERTEX
  8
0
 10
377.000000
 20
490.000000
 42
0.000000
  0
VERTEX
  8
0
 10
377.000000
 20
570.500000
 42
0.000000
  0
VERTEX
  8
0
 10
377.000000
 20
651.000000
 42
0.000000
  0
VERTEX
  8
0
 10
457.500000
 20
651.000000
 42
0.000000
  0
VERTEX
  8
0
 10
538.000000
 20
651.000000
 42
0.000000
  0
SEQEND
  0
POLYLINE
  8
0
 66
1
 70
1
  0
VERTEX
  8
0
 10
1271.000000
 20
542.500000
 42
0.000000
  0
VERTEX
  8
0
 10
1271.000000
 20
458.000000
 42
0.000000
  0
VERTEX
  8
0
 10
1355.500000
 20
458.000000
 42
0.000000
  0
VERTEX
  8
0
 10
1440.000000
 20
458.000000
 42
0.000000
  0
VERTEX
  8
0
 10
1440.000000
 20
542.500000
 42
0.000000
  0
VERTEX
  8
0
 10
1440.000000
 20
627.000000
 42
0.000000
  0
VERTEX
  8
0
 10
1355.500000
 20
627.000000
 42
0.000000
  0
VERTEX
  8
0
 10
1271.000000
 20
627.000000
 42
0.000000
  0
SEQEND
  0
POLYLINE
  8
0
 66
1
 70
1
  0
VERTEX
  8
0
 10
1436.000000
 20
542.500000
 42
0.000000
  0
VERTEX
  8
0
 10
1436.000000
 20
462.000000
 42
0.000000
  0
VERTEX
  8
0
 10
1355.500000
 20
462.000000
 42
0.000000
  0
VERTEX
  8
0
 10
1275.000000
 20
462.000000
 42
0.000000
  0
VERTEX
  8
0
 10
1275.000000
 20
542.500000
 42
0.000000
  0
VERTEX
  8
0
 10
1275.000000
 20
623.000000
 42
0.000000
  0
VERTEX
  8
0
 10
1355.500000
 20
623.000000
 42
0.000000
  0
VERTEX
  8
0
 10
1436.000000
 20
623.000000
 42
0.000000
  0
SEQEND
  0
POLYLINE
  8
0
 66
1
 70
1
  0
VERTEX
  8
0
 10
1495.000000
 20
542.500000
 42
0.000000
  0
VERTEX
  8
0
 10
1495.000000
 20
458.000000
 42
0.000000
  0
VERTEX
  8
0
 10
1579.500000
 20
458.000000
 42
0.000000
  0
VERTEX
  8
0
 10
1664.000000
 20
458.000000
 42
0.000000
  0
VERTEX
  8
0
 10
1664.000000
 20
542.500000
 42
0.000000
  0
VERTEX
  8
0
 10
1664.000000
 20
627.000000
 42
0.000000
  0
VERTEX
  8
0
 10
1579.500000
 20
627.000000
 42
0.000000
  0
VERTEX
  8
0
 10
1495.000000
 20
627.000000
 42
0.000000
  0
SEQEND
  0
POLYLINE
  8
0
 66
1
 70
1
  0
VERTEX
  8
0
 10
1660.000000
 20
542.500000
 42
0.000000
  0
VERTEX
  8
0
 10
1660.000000
 20
462.000000
 42
0.000000
  0
VERTEX
  8
0
 10
1579.500000
 20
462.000000
 42
0.000000
  0
VERTEX
  8
0
 10
1499.000000
 20
462.000000
 42
0.000000
  0
VERTEX
  8
0
 10
1499.000000
 20
542.500000
 42
0.000000
  0
VERTEX
  8
0
 10
1499.000000
 20
623.000000
 42
0.000000
  0
VERTEX
  8
0
 10
1579.500000
 20
623.000000
 42
0.000000
  0
VERTEX
  8
0
 10
1660.000000
 20
623.000000
 42
0.000000
  0
SEQEND
  0
POLYLINE
  8
0
 66
1
 70
1
  0
VERTEX
  8
0
 10
949.240860
 20
465.005402
 42
0.161069
  0
VERTEX
  8
0
 10
943.153141
 20
457.834376
 42
0.167628
  0
VERTEX
  8
0
 10
942.668419
 20
448.576784
 42
0.166501
  0
VERTEX
  8
0
 10
948.000596
 20
440.944855
 42
0.159069
  0
VERTEX
  8
0
 10
957.000000
 20
438.007476
 42
0.032933
  0
VERTEX
  8
0
 10
959.076575
 20
438.144402
 42
0.030284
  0
VERTEX
  8
0
 10
961.177449
 20
438.553313
 42
0.031183
  0
VERTEX
  8
0
 10
963.142056
 20
439.193760
 42
0.042535
  0
VERTEX
  8
0
 10
964.808142
 20
440.024398
 42
0.084562
  0
VERTEX
  8
0
 10
967.270029
 20
442.167282
 42
0.041411
  0
VERTEX
  8
0
 10
969.635868
 20
445.602752
 42
0.041436
  0
VERTEX
  8
0
 10
971.393537
 20
449.360916
 42
0.088894
  0
VERTEX
  8
0
 10
971.956076
 20
452.500000
 42
0.088894
  0
VERTEX
  8
0
 10
971.393537
 20
455.639084
 42
0.041436
  0
VERTEX
  8
0
 10
969.635868
 20
459.397248
 42
0.041411
  0
VERTEX
  8
0
 10
967.270029
 20
462.832718
 42
0.084562
  0
VERTEX
  8
0
 10
964.808142
 20
464.975602
 42
0.077645
  0
VERTEX
  8
0
 10
961.232507
 20
466.455971
 42
0.058977
  0
VERTEX
  8
0
 10
957.014279
 20
466.963458
 42
0.059064
  0
VERTEX
  8
0
 10
952.801165
 20
466.472203
 42
0.078525
  0
SEQEND
  0
POLYLINE
  8
0
 66
1
 70
1
  0
VERTEX
  8
0
 10
964.970788
 20
459.483757
 42
-0.144257
  0
VERTEX
  8
0
 10
967.440510
 20
454.950705
 42
-0.130662
  0
VERTEX
  8
0
 10
967.186475
 20
449.609650
 42
-0.124466
  0
VERTEX
  8
0
 10
964.270492
 20
444.906886
 42
-0.124602
  0
VERTEX
  8
0
 10
959.470788
 20
442.157642
 42
-0.075312
  0
VERTEX
  8
0
 10
956.123552
 20
441.747547
 42
-0.079234
  0
VERTEX
  8
0
 10
952.866543
 20
442.362350
 42
-0.081819
  0
VERTEX
  8
0
 10
950.047435
 20
443.931780
 42
-0.088227
  0
VERTEX
  8
0
 10
947.965650
 20
446.288462
 42
-0.170848
  0
VERTEX
  8
0
 10
946.271877
 20
454.269753
 42
-0.197919
  0
VERTEX
  8
0
 10
950.108959
 20
460.969801
 42
-0.196305
  0
VERTEX
  8
0
 10
957.583115
 20
463.056281
 42
-0.169071
  0
SEQEND
  0
POLYLINE
  8
0
 66
1
 70
1
  0
VERTEX
  8
0
 10
709.000000
 20
366.500000
 42
0.000000
  0
VERTEX
  8
0
 10
709.000000
 20
282.000000
 42
0.000000
  0
VERTEX
  8
0
 10
794.000000
 20
282.000000
 42
0.000000
  0
VERTEX
  8
0
 10
879.000000
 20
282.000000
 42
0.000000
  0
VERTEX
  8
0
 10
879.000000
 20
366.500000
 42
0.000000
  0
VERTEX
  8
0
 10
879.000000
 20
451.000000
 42
0.000000
  0
VERTEX
  8
0
 10
794.000000
 20
451.000000
 42
0.000000
  0
VERTEX
  8
0
 10
709.000000
 20
451.000000
 42
0.000000
  0
SEQEND
  0
POLYLINE
  8
0
 66
1
 70
1
  0
VERTEX
  8
0
 10
875.000000
 20
366.500000
 42
0.000000
  0
VERTEX
  8
0
 10
875.000000
 20
286.000000
 42
0.000000
  0
VERTEX
  8
0
 10
794.000000
 20
286.000000
 42
0.000000
  0
VERTEX
  8
0
 10
713.000000
 20
286.000000
 42
0.000000
  0
VERTEX
  8
0
 10
713.000000
 20
366.500000
 42
0.000000
  0
VERTEX
  8
0
 10
713.000000
 20
447.000000
 42
0.000000
  0
VERTEX
  8
0
 10
794.000000
 20
447.000000
 42
0.000000
  0
VERTEX
  8
0
 10
875.000000
 20
447.000000
 42
0.000000
  0
SEQEND
  0
POLYLINE
  8
0
 66
1
 70
1
  0
VERTEX
  8
0
 10
562.500000
 20
426.443095
 42
-0.000317
  0
VERTEX
  8
0
 10
543.622987
 20
421.350993
 42
-0.000198
  0
VERTEX
  8
0
 10
521.528125
 20
415.415280
 42
-0.000199
  0
VERTEX
  8
0
 10
499.765198
 20
409.587285
 42
-0.000363
  0
VERTEX
  8
0
 10
482.000000
 20
404.851274
 42
0.000310
  0
VERTEX
  8
0
 10
467.214564
 20
400.911342
 42
0.000509
  0
VERTEX
  8
0
 10
454.711697
 20
397.557725
 42
0.000032
  0
VERTEX
  8
0
 10
443.460258
 20
394.526724
 42
0.082918
  0
VERTEX
  8
0
 10
443.167480
 20
394.392924
 42
0.319382
  0
VERTEX
  8
0
 10
443.012442
 20
393.979012
 42
0.000005
  0
VERTEX
  8
0
 10
464.548041
 20
312.993785
 42
0.000013
  0
VERTEX
  8
0
 10
485.978360
 20
232.415970
 42
0.093817
  0
VERTEX
  8
0
 10
486.570667
 20
231.180513
 42
0.308326
  0
VERTEX
  8
0
 10
486.973649
 20
231.038642
 42
0.000004
  0
VERTEX
  8
0
 10
567.972423
 20
252.556502
 42
0.000012
  0
VERTEX
  8
0
 10
648.557897
 20
273.967382
 42
0.088691
  0
VERTEX
  8
0
 10
649.789917
 20
274.542335
 42
0.315484
  0
VERTEX
  8
0
 10
650.145830
 20
275.529477
 42
0.000028
  0
VERTEX
  8
0
 10
628.244537
 20
356.163380
 42
0.000029
  0
VERTEX
  8
0
 10
606.345003
 20
436.754408
 42
0.275950
  0
VERTEX
  8
0
 10
605.500000
 20
437.568728
 42
0.120737
  0
VERTEX
  8
0
 10
604.704829
 20
437.559265
 42
0.000243
  0
VERTEX
  8
0
 10
592.456250
 20
434.396467
 42
0.001688
  0
VERTEX
  8
0
 10
578.673827
 20
430.780768
 42
0.001044
  0
SEQEND
  0
POLYLINE
  8
0
 66
1
 70
1
  0
VERTEX
  8
0
 10
624.413698
 20
355.425749
 42
-0.000487
  0
VERTEX
  8
0
 10
632.353566
 20
325.656601
 42
-0.000809
  0
VERTEX
  8
0
 10
638.982727
 20
300.540520
 42
-0.000030
  0
VERTEX
  8
0
 10
644.932797
 20
277.843050
 42
-0.269403
  0
VERTEX
  8
0
 10
644.842416
 20
277.516470
 42
-0.128105
  0
VERTEX
  8
0
 10
644.513476
 20
277.328276
 42
-0.000020
  0
VERTEX
  8
0
 10
623.597460
 20
271.656345
 42
-0.000492
  0
VERTEX
  8
0
 10
600.439869
 20
265.401998
 42
-0.000297
  0
VERTEX
  8
0
 10
573.000000
 20
258.037572
 42
0.000048
  0
VERTEX
  8
0
 10
545.182898
 20
250.586783
 42
0.000071
  0
VERTEX
  8
0
 10
520.806059
 20
244.051246
 42
0.000031
  0
VERTEX
  8
0
 10
499.966769
 20
238.459588
 42
0.001440
  0
VERTEX
  8
0
 10
495.722754
 20
237.307430
 42
-0.007701
  0
VERTEX
  8
0
 10
493.479479
 20
236.728490
 42
-0.011929
  0
VERTEX
  8
0
 10
491.524636
 20
236.305064
 42
-0.006284
  0
VERTEX
  8
0
 10
489.887487
 20
236.012421
 42
-0.241993
  0
VERTEX
  8
0
 10
489.544018
 20
236.122648
 42
-0.131887
  0
VERTEX
  8
0
 10
488.826741
 20
237.366331
 42
-0.000022
  0
VERTEX
  8
0
 10
468.402327
 20
313.886585
 42
-0.000013
  0
VERTEX
  8
0
 10
447.902562
 20
390.710503
 42
-0.274939
  0
VERTEX
  8
0
 10
448.101734
 20
391.414045
 42
-0.124549
  0
VERTEX
  8
0
 10
448.933779
 20
391.879974
 42
-0.000009
  0
VERTEX
  8
0
 10
524.941164
 20
412.314062
 42
-0.000022
  0
VERTEX
  8
0
 10
600.342192
 20
432.580140
 42
-0.051479
  0
VERTEX
  8
0
 10
602.571283
 20
432.939093
 42
-0.351555
  0
VERTEX
  8
0
 10
603.122823
 20
432.545904
 42
-0.000171
  0
VERTEX
  8
0
 10
609.429396
 20
410.194673
 42
-0.002036
  0
VERTEX
  8
0
 10
616.372202
 20
385.166456
 42
-0.001226
  0
SEQEND
  0
POLYLINE
  8
0
 66
1
 70
1
  0
VERTEX
  8
0
 10
241.480889
 20
363.790353
 42
0.000055
  0
VERTEX
  8
0
 10
213.477267
 20
347.639228
 42
0.000090
  0
VERTEX
  8
0
 10
189.855744
 20
334.006351
 42
0.000002
  0
VERTEX
  8
0
 10
168.460763
 20
321.653197
 42
0.034499
  0
VERTEX
  8
0
 10
168.219515
 20
321.490757
 42
0.374022
  0
VERTEX
  8
0
 10
168.147589
 20
321.123495
 42
0.000004
  0
VERTEX
  8
0
 10
209.897286
 20
248.616654
 42
0.000017
  0
VERTEX
  8
0
 10
251.311422
 20
176.699538
 42
0.065816
  0
VERTEX
  8
0
 10
252.441397
 20
175.225270
 42
0.338733
  0
VERTEX
  8
0
 10
253.066835
 20
175.142106
 42
0.000011
  0
VERTEX
  8
0
 10
324.849342
 20
216.340696
 42
0.000048
  0
VERTEX
  8
0
 10
395.522003
 20
256.913507
 42
0.055687
  0
VERTEX
  8
0
 10
398.258810
 20
258.919495
 42
0.349486
  0
VERTEX
  8
0
 10
398.386929
 20
259.741633
 42
0.000020
  0
VERTEX
  8
0
 10
357.445501
 20
331.600093
 42
0.000090
  0
VERTEX
  8
0
 10
317.339770
 20
401.955875
 42
0.054995
  0
VERTEX
  8
0
 10
314.630743
 20
405.685778
 42
0.351728
  0
VERTEX
  8
0
 10
314.471824
 20
405.710826
 42
0.000009
  0
VERTEX
  8
0
 10
293.073275
 20
393.455630
 42
0.000455
  0
VERTEX
  8
0
 10
269.477444
 20
379.912976
 42
0.000273
  0
SEQEND
  0
POLYLINE
  8
0
 66
1
 70
1
  0
VERTEX
  8
0
 10
353.250000
 20
331.082129
 42
-0.000564
  0
VERTEX
  8
0
 10
368.490647
 20
304.601201
 42
-0.000926
  0
VERTEX
  8
0
 10
381.323438
 20
282.149402
 42
-0.000069
  0
VERTEX
  8
0
 10
392.807795
 20
261.963565
 42
-0.130006
  0
VERTEX
  8
0
 10
393.000000
 20
261.236841
 42
-0.267016
  0
VERTEX
  8
0
 10
392.480330
 20
260.333116
 42
-0.000025
  0
VERTEX
  8
0
 10
324.483949
 20
220.763654
 42
-0.000064
  0
VERTEX
  8
0
 10
257.238098
 20
181.646984
 42
-0.087266
  0
VERTEX
  8
0
 10
254.458339
 20
180.623989
 42
-0.316050
  0
VERTEX
  8
0
 10
253.551453
 20
181.043962
 42
-0.000028
  0
VERTEX
  8
0
 10
213.942967
 20
249.454978
 42
-0.000050
  0
VERTEX
  8
0
 10
174.579334
 20
317.467690
 42
-0.138659
  0
VERTEX
  8
0
 10
174.062566
 20
319.500000
 42
-0.260137
  0
VERTEX
  8
0
 10
174.716167
 20
320.601445
 42
-0.000037
  0
VERTEX
  8
0
 10
242.564275
 20
360.006877
 42
-0.000073
  0
VERTEX
  8
0
 10
309.835880
 20
399.057634
 42
-0.112099
  0
VERTEX
  8
0
 10
312.500000
 20
399.889167
 42
-0.286154
  0
VERTEX
  8
0
 10
313.112396
 20
399.571797
 42
-0.000139
  0
VERTEX
  8
0
 10
324.882812
 20
379.709870
 42
-0.001765
  0
VERTEX
  8
0
 10
337.936733
 20
357.489586
 42
-0.001067
  0
SEQEND
  0
POLYLINE
  8
0
 66
1
 70
1
  0
VERTEX
  8
0
 10
401.019933
 20
374.248446
 42
0.069358
  0
VERTEX
  8
0
 10
397.683827
 20
371.946087
 42
0.071091
  0
VERTEX
  8
0
 10
395.136677
 20
368.836438
 42
0.070388
  0
VERTEX
  8
0
 10
393.543992
 20
365.108925
 42
0.065909
  0
VERTEX
  8
0
 10
393.000000
 20
361.000000
 42
0.065909
  0
VERTEX
  8
0
 10
393.543992
 20
356.891075
 42
0.070388
  0
VERTEX
  8
0
 10
395.136677
 20
353.163562
 42
0.071091
  0
VERTEX
  8
0
 10
397.683827
 20
350.053913
 42
0.069358
  0
VERTEX
  8
0
 10
401.019933
 20
347.751554
 42
0.127254
  0
VERTEX
  8
0
 10
408.224913
 20
346.197538
 42
0.131380
  0
VERTEX
  8
0
 10
415.183266
 20
348.365111
 42
0.129975
  0
VERTEX
  8
0
 10
420.183354
 20
353.742556
 42
0.123256
  0
VERTEX
  8
0
 10
422.000000
 20
361.000000
 42
0.098506
  0
VERTEX
  8
0
 10
420.877856
 20
366.640551
 42
0.094227
  0
VERTEX
  8
0
 10
417.674409
 20
371.523070
 42
0.095711
  0
VERTEX
  8
0
 10
412.952579
 20
374.833112
 42
0.105530
  0
VERTEX
  8
0
 10
407.500000
 20
375.996892
 42
0.044168
  0
VERTEX
  8
0
 10
406.102053
 20
375.873162
 42
0.021750
  0
VERTEX
  8
0
 10
404.358980
 20
375.483286
 42
0.021393
  0
VERTEX
  8
0
 10
402.571833
 20
374.918050
 42
0.029127
  0
SEQEND
  0
POLYLINE
  8
0
 66
1
 70
1
  0
VERTEX
  8
0
 10
413.017344
 20
370.330683
 42
-0.135256
  0
VERTEX
  8
0
 10
416.939169
 20
366.272821
 42
-0.127969
  0
VERTEX
  8
0
 10
418.334592
 20
360.689659
 42
-0.130236
  0
VERTEX
  8
0
 10
416.825757
 20
355.209126
 42
-0.142421
  0
VERTEX
  8
0
 10
412.835022
 20
351.414686
 42
-0.064148
  0
VERTEX
  8
0
 10
409.435006
 20
350.176939
 42
-0.095117
  0
VERTEX
  8
0
 10
406.274648
 20
350.077845
 42
-0.094513
  0
VERTEX
  8
0
 10
403.287813
 20
351.157254
 42
-0.062619
  0
VERTEX
  8
0
 10
400.400000
 20
353.400000
 42
-0.025630
  0
VERTEX
  8
0
 10
398.646167
 20
355.343484
 42
-0.065653
  0
VERTEX
  8
0
 10
397.654762
 20
356.954062
 42
-0.071075
  0
VERTEX
  8
0
 10
397.158412
 20
358.688320
 42
-0.034223
  0
VERTEX
  8
0
 10
397.000000
 20
361.000000
 42
-0.034223
  0
VERTEX
  8
0
 10
397.158412
 20
363.311680
 42
-0.071075
  0
VERTEX
  8
0
 10
397.654762
 20
365.045938
 42
-0.065653
  0
VERTEX
  8
0
 10
398.646167
 20
366.656516
 42
-0.025630
  0
VERTEX
  8
0
 10
400.400000
 20
368.600000
 42
-0.064688
  0
VERTEX
  8
0
 10
403.367307
 20
370.884937
 42
-0.097984
  0
VERTEX
  8
0
 10
406.438536
 20
371.942614
 42
-0.099477
  0
VERTEX
  8
0
 10
409.646882
 20
371.743490
 42
-0.068426
  0
SEQEND
  0
POLYLINE
  8
0
 66
1
 70
1
  0
VERTEX
  8
0
 10
276.351605
 20
570.938622
 42
0.091462
  0
VERTEX
  8
0
 10
273.261760
 20
569.355557
 42
0.050379
  0
VERTEX
  8
0
 10
270.163954
 20
566.431436
 42
0.050014
  0
VERTEX
  8
0
 10
267.677854
 20
562.901614
 42
0.082241
  0
VERTEX
  8
0
 10
266.429941
 20
559.478243
 42
0.084278
  0
VERTEX
  8
0
 10
266.363662
 20
555.644768
 42
0.056374
  0
VERTEX
  8
0
 10
267.508939
 20
551.399403
 42
0.056603
  0
VERTEX
  8
0
 10
269.564138
 20
547.538970
 42
0.087655
  0
VERTEX
  8
0
 10
272.205644
 20
544.853569
 42
0.078598
  0
VERTEX
  8
0
 10
275.707243
 20
543.110397
 42
0.057928
  0
VERTEX
  8
0
 10
279.968392
 20
542.293971
 42
0.058195
  0
VERTEX
  8
0
 10
284.279812
 20
542.478105
 42
0.081604
  0
VERTEX
  8
0
 10
287.928915
 20
543.694623
 42
0.056502
  0
VERTEX
  8
0
 10
291.093442
 20
545.848086
 42
0.070943
  0
VERTEX
  8
0
 10
293.426898
 20
548.515359
 42
0.069552
  0
VERTEX
  8
0
 10
294.953445
 20
551.773028
 42
0.051655
  0
VERTEX
  8
0
 10
295.728752
 20
555.675508
 42
0.023636
  0
VERTEX
  8
0
 10
295.848092
 20
558.288708
 42
0.056058
  0
VERTEX
  8
0
 10
295.627660
 20
560.220341
 42
0.061126
  0
VERTEX
  8
0
 10
294.999825
 20
561.952528
 42
0.032932
  0
VERTEX
  8
0
 10
293.839118
 20
563.908052
 42
0.063283
  0
VERTEX
  8
0
 10
290.189244
 20
568.003737
 42
0.083754
  0
VERTEX
  8
0
 10
285.936155
 20
570.607677
 42
0.088510
  0
VERTEX
  8
0
 10
281.254784
 20
571.584440
 42
0.080220
  0
SEQEND
  0
POLYLINE
  8
0
 66
1
 70
1
  0
VERTEX
  8
0
 10
285.465701
 20
566.578778
 42
-0.084332
  0
VERTEX
  8
0
 10
288.084980
 20
564.921824
 42
-0.071946
  0
VERTEX
  8
0
 10
290.179696
 20
562.408691
 42
-0.069346
  0
VERTEX
  8
0
 10
291.536176
 20
559.310840
 42
-0.068672
  0
VERTEX
  8
0
 10
292.000000
 20
555.949660
 42
-0.124416
  0
VERTEX
  8
0
 10
291.113826
 20
552.443457
 42
-0.083269
  0
VERTEX
  8
0
 10
288.560364
 20
549.162001
 42
-0.080916
  0
VERTEX
  8
0
 10
284.990924
 20
546.813778
 42
-0.105490
  0
VERTEX
  8
0
 10
281.176725
 20
546.000000
 42
-0.172988
  0
VERTEX
  8
0
 10
274.445355
 20
548.400727
 42
-0.164025
  0
VERTEX
  8
0
 10
270.571250
 20
554.573526
 42
-0.169598
  0
VERTEX
  8
0
 10
271.288476
 20
561.673311
 42
-0.183023
  0
VERTEX
  8
0
 10
276.258557
 20
566.512730
 42
-0.022300
  0
VERTEX
  8
0
 10
278.998028
 20
567.560944
 42
-0.078581
  0
VERTEX
  8
0
 10
280.853014
 20
567.867944
 42
-0.078592
  0
VERTEX
  8
0
 10
282.712074
 20
567.587567
 42
-0.022311
  0
SEQEND
  0
POLYLINE
  8
0
 66
1
 70
1
  0
VERTEX
  8
0
 10
104.019933
 20
469.248446
 42
0.109552
  0
VERTEX
  8
0
 10
99.281497
 20
465.386671
 42
0.101742
  0
VERTEX
  8
0
 10
96.463905
 20
459.783935
 42
0.102398
  0
VERTEX
  8
0
 10
96.095403
 20
453.555031
 42
0.112471
  0
VERTEX
  8
0
 10
98.273926
 20
447.921488
 42
0.083463
  0
VERTEX
  8
0
 10
101.113110
 20
444.931504
 42
0.061040
  0
VERTEX
  8
0
 10
105.087021
 20
442.641429
 42
0.061238
  0
VERTEX
  8
0
 10
109.480417
 20
441.385021
 42
0.085624
  0
VERTEX
  8
0
 10
113.556324
 20
441.444589
 42
0.086597
  0
VERTEX
  8
0
 10
117.043655
 20
442.750102
 42
0.058648
  0
VERTEX
  8
0
 10
120.434174
 20
445.317617
 42
0.057776
  0
VERTEX
  8
0
 10
123.190217
 20
448.656399
 42
0.076461
  0
VERTEX
  8
0
 10
124.802720
 20
452.247679
 42
0.145742
  0
VERTEX
  8
0
 10
124.635738
 20
460.577169
 42
0.144920
  0
VERTEX
  8
0
 10
119.940515
 20
467.479689
 42
0.144673
  0
VERTEX
  8
0
 10
112.237104
 20
470.721034
 42
0.145133
  0
SEQEND
  0
POLYLINE
  8
0
 66
1
 70
1
  0
VERTEX
  8
0
 10
116.695530
 20
465.044085
 42
-0.092734
  0
VERTEX
  8
0
 10
119.483173
 20
462.536849
 42
-0.092723
  0
VERTEX
  8
0
 10
121.176063
 20
459.191330
 42
-0.092105
  0
VERTEX
  8
0
 10
121.551784
 20
455.440656
 42
-0.090046
  0
VERTEX
  8
0
 10
120.562506
 20
451.772965
 42
-0.164061
  0
VERTEX
  8
0
 10
115.479636
 20
446.513140
 42
-0.173783
  0
VERTEX
  8
0
 10
108.381795
 20
445.562426
 42
-0.175890
  0
VERTEX
  8
0
 10
102.357135
 20
449.332842
 42
-0.167383
  0
VERTEX
  8
0
 10
100.000000
 20
456.176725
 42
-0.037449
  0
VERTEX
  8
0
 10
100.164688
 20
458.372467
 42
-0.070058
  0
VERTEX
  8
0
 10
100.672541
 20
460.076712
 42
-0.063350
  0
VERTEX
  8
0
 10
101.670972
 20
461.683359
 42
-0.025714
  0
VERTEX
  8
0
 10
103.400000
 20
463.600000
 42
-0.068361
  0
VERTEX
  8
0
 10
106.475378
 20
465.932523
 42
-0.101392
  0
VERTEX
  8
0
 10
109.685775
 20
466.961906
 42
-0.099811
  0
VERTEX
  8
0
 10
113.079582
 20
466.652989
 42
-0.064542
  0
SEQEND
  0
ENDSEC
  0
EOF
