  0
SECTION
  2
HEADER
  9
$ACADVER
  1
AC1009
  9
$INSBASE
 10
0
 20
0
 30
0
  9
$EXTMIN
 10
0
 20
0
  9
$EXTMAX
 10
1682
 20
1188
  9
$LIMMIN
 10
0
 20
0
  9
$LIMMAX
 10
1682
 20
1188
  9
$LTSCALE
 40
2
  0
ENDSEC
  0
SECTION
  2
TABLES
  0
TABLE
  2
LTYPE
 70
     9
  0
LTYPE
  2
CONTINUOUS
 70
    64
  3
実線
 72
    65
 73
     0
 40
0.0
  0
LTYPE
  2
DASHED1
 70
    64
  3
--  --  --  --  --  --  --  --  
 72
    65
 73
     2
 40
2.5
 49
1.25
 49
-1.25
  0
LTYPE
  2
DASHED2
 70
    64
  3
----    ----    ----    ----    
 72
    65
 73
     2
 40
5.0
 49
2.5
 49
-2.5
  0
LTYPE
  2
DASHED3
 70
    64
  3
------  ------  ------  ------  
 72
    65
 73
     2
 40
5.0
 49
3.75
 49
-1.25
  0
LTYPE
  2
CENTER1
 70
    64
  3
----- - ----- - ----- - ----- - 
 72
    65
 73
     4
 40
10.0
 49
6.25
 49
-1.25
 49
1.25
 49
-1.25
  0
LTYPE
  2
CENTER2
 70
    64
  3
----------  --  ----------  --  
 72
    65
 73
     4
 40
20.0
 49
12.5
 49
-2.5
 49
2.5
 49
-2.5
  0
LTYPE
  2
PHANTOM1
 70
    64
  3
--- - - --- - - --- - - --- - - 
 72
    65
 73
     6
 40
10.0
 49
3.25
 49
-1.25
 49
1.25
 49
-1.25
 49
1.25
 49
-1.25
  0
LTYPE
  2
PHANTOM2
 70
    64
  3
--------  -  -  --------  -  -  
 72
    65
 73
     6
 40
20.0
 49
10.0
 49
-2.5
 49
1.25
 49
-2.5
 49
1.25
 49
-2.5
  0
LTYPE
  2
DOT
 70
    64
  3
-   -   -   -   -   -   -   -   
 72
    65
 73
     2
 40
2.5
 49
0.625
 49
-1.875
  0
LTYPE
  2
DUMMY
 70
    64
  3
ダミー
 72
    65
 73
     0
 40
0.0
  0
LTYPE
  2
RAND1
 70
    64
  3
ランダム線1
 72
    65
 73
     4
 40
10.0
 49
1.0
 49
-2.0
 49
3.0
 49
-4.0
  0
LTYPE
  2
RAND2
 70
    64
  3
ランダム線2
 72
    65
 73
     4
 40
14.0
 49
2.0
 49
-3.0
 49
4.0
 49
-5.0
  0
LTYPE
  2
RAND3
 70
    64
  3
ランダム線3
 72
    65
 73
     4
 40
18.0
 49
3.0
 49
-4.0
 49
5.0
 49
-6.0
  0
LTYPE
  2
RAND4
 70
    64
  3
ランダム線4
 72
    65
 73
     4
 40
22.0
 49
4.0
 49
-5.0
 49
6.0
 49
-7.0
  0
LTYPE
  2
RAND5
 70
    64
  3
ランダム線5
 72
    65
 73
     4
 40
26.0
 49
5.0
 49
-6.0
 49
7.0
 49
-8.0
  0
LTYPE
  2
LONG1
 70
    64
  3
----------  --  ----------  --  
 72
    65
 73
     4
 40
40.0
 49
32.5
 49
-2.5
 49
2.5
 49
-2.5
  0
LTYPE
  2
LONG2
 70
    64
  3
--------  -  -  --------  -  -  
 72
    65
 73
     6
 40
40.0
 49
30.0
 49
-2.5
 49
1.25
 49
-2.5
 49
1.25
 49
-2.5
  0
LTYPE
  2
LONG3
 70
    64
  3
+++++++++++++++..+++++++++++++++
 72
    65
 73
     2
 40
40.0
 49
37.5
 49
-2.5
  0
LTYPE
  2
LONG4
 70
    64
  3
+++++++++++++++..+++++++++++++++
 72
    65
 73
     2
 40
80.0
 49
75.0
 49
-5.0
  0
LTYPE
  2
LONG5
 70
    64
  3
----------  --  ----------  --  
 72
    65
 73
     4
 40
60.0
 49
37.5
 49
-7.5
 49
7.5
 49
-7.5
  0
LTYPE
  2
dashed
 70
   64
  3
-------   -------------   ------
 72
   65
 73
    2
 40
7.5
 49
6
 49
-1.5
  0
LTYPE
  2
dashed_spaced
 70
   64
  3
----        --------        ----
 72
   65
 73
    2
 40
12
 49
6
 49
-6
  0
LTYPE
  2
long_dashed_dotted
 70
   64
  3
------------- --- --------------
 72
   65
 73
    4
 40
15.25
 49
12
 49
-1.5
 49
0.25
 49
-1.5
  0
LTYPE
  2
long_dashed_double-dotted
 70
   64
  3
----------- --- --- ------------
 72
   65
 73
    6
 40
17
 49
12
 49
-1.5
 49
0.25
 49
-1.5
 49
0.25
 49
-1.5
  0
LTYPE
  2
long_dashed_triplicate-dotted
 70
   64
  3
--------- --- --- --- ----------
 72
   65
 73
    8
 40
18.75
 49
12
 49
-1.5
 49
0.25
 49
-1.5
 49
0.25
 49
-1.5
 49
0.25
 49
-1.5
  0
LTYPE
  2
dotted
 70
   64
  3
   -       -       -       -    
 72
   65
 73
    2
 40
1.75
 49
0.25
 49
-1.5
  0
LTYPE
  2
chain
 70
   64
  3
-------------- -- --------------
 72
   65
 73
    4
 40
18.5
 49
12
 49
-1.5
 49
3.5
 49
-1.5
  0
LTYPE
  2
chain_double_dash
 70
   64
  3
------------ -- -- -------------
 72
   65
 73
    6
 40
23.5
 49
12
 49
-1.5
 49
3.5
 49
-1.5
 49
3.5
 49
-1.5
  0
LTYPE
  2
dashed_dotted
 70
   64
  3
-----------     -     ----------
 72
   65
 73
    4
 40
9.25
 49
6
 49
-1.5
 49
0.25
 49
-1.5
  0
LTYPE
  2
double-dashed_dotted
 70
   64
  3
------   -----------   -   -----
 72
   65
 73
    6
 40
16.75
 49
6
 49
-1.5
 49
6
 49
-1.5
 49
0.25
 49
-1.5
  0
LTYPE
  2
dashed_double-dotted
 70
   64
  3
---------    -    -    ---------
 72
   65
 73
    6
 40
11
 49
6
 49
-1.5
 49
0.25
 49
-1.5
 49
0.25
 49
-1.5
  0
LTYPE
  2
double-dashed_double-dotted
 70
   64
  3
-----   ---------   -   -   ----
 72
   65
 73
    8
 40
18.5
 49
6
 49
-1.5
 49
6
 49
-1.5
 49
0.25
 49
-1.5
 49
0.25
 49
-1.5
  0
LTYPE
  2
dashed_triplicate-dotted
 70
   64
  3
-------    -    -    -    ------
 72
   65
 73
    8
 40
12.75
 49
6
 49
-1.5
 49
0.25
 49
-1.5
 49
0.25
 49
-1.5
 49
0.25
 49
-1.5
  0
LTYPE
  2
double-dashed_triplicate-dotted
 70
   64
  3
-----  ---------  -  -  -  -----
 72
   65
 73
   10
 40
20.25
 49
6
 49
-1.5
 49
6
 49
-1.5
 49
0.25
 49
-1.5
 49
0.25
 49
-1.5
 49
0.25
 49
-1.5
  0
LTYPE
  2
undefined
 70
   64
  3
--------------------------------
 72
   65
 73
    0
 40
0
  0
LTYPE
  2
_
 70
   64
  3
                                
 72
   65
 73
    0
 40
0
  0
LTYPE
  2
__18
 70
   64
  3
                                
 72
   65
 73
    0
 40
0
  0
LTYPE
  2
__19
 70
   64
  3
                                
 72
   65
 73
    0
 40
0
  0
LTYPE
  2
__20
 70
   64
  3
                                
 72
   65
 73
    0
 40
0
  0
LTYPE
  2
__21
 70
   64
  3
                                
 72
   65
 73
    0
 40
0
  0
LTYPE
  2
__22
 70
   64
  3
                                
 72
   65
 73
    0
 40
0
  0
LTYPE
  2
__23
 70
   64
  3
                                
 72
   65
 73
    0
 40
0
  0
LTYPE
  2
__24
 70
   64
  3
                                
 72
   65
 73
    0
 40
0
  0
LTYPE
  2
__25
 70
   64
  3
                                
 72
   65
 73
    0
 40
0
  0
LTYPE
  2
__26
 70
   64
  3
                                
 72
   65
 73
    0
 40
0
  0
LTYPE
  2
__27
 70
   64
  3
                                
 72
   65
 73
    0
 40
0
  0
LTYPE
  2
__28
 70
   64
  3
                                
 72
   65
 73
    0
 40
0
  0
LTYPE
  2
__29
 70
   64
  3
                                
 72
   65
 73
    0
 40
0
  0
LTYPE
  2
__30
 70
   64
  3
                                
 72
   65
 73
    0
 40
0
  0
LTYPE
  2
__31
 70
   64
  3
                                
 72
   65
 73
    0
 40
0
  0
LTYPE
  2
__32
 70
   64
  3
                                
 72
   65
 73
    0
 40
0
  0
ENDTAB
  0
TABLE
  2
STYLE
  5
3
100
AcDbSymbolTable
 70
     1
  0
STYLE
  5
10
100
AcDbSymbolTableRecord
100
AcDbTextStyleTableRecord
  2
STANDARD
 70
     0
 40
0.0
 41
1.0
 50
0.0
 71
     0
 42
0.2
  3
txt
  4
bigfont.shx
  0
STYLE
  5
26
100
AcDbSymbolTableRecord
100
AcDbTextStyleTableRecord
  2
TATEGAKI
 70
    68
 40
0.0
 41
1.0
 50
0.0
 71
     0
 42
1.0
  3
txt
  4
bigfont.shx
  0
ENDTAB
  0
TABLE
  2
LAYER
 70
    2
  0
LAYER
  2
_0-1_ADD_LINE
 70
   64
 62
    7
  6
CONTINUOUS
  0
LAYER
  2
ADD_LINE
 70
   64
 62
    7
  6
CONTINUOUS
  0
ENDTAB
  0
ENDSEC
  0
SECTION
  2
BLOCKS
  0
ENDSEC
  0
SECTION
  2
ENTITIES
  0
LINE
  8
ADD_LINE
  6
DOT
 62
    4
 10
1411.07258
 20
1666.3651410000002
 11
1409
 21
1663.7302829999998
  0
LINE
  8
ADD_LINE
  6
DOT
 62
    4
 10
1409
 20
1663.7302829999998
 11
1409
 21
1378.4209049999999
  0
LINE
  8
ADD_LINE
  6
DOT
 62
    4
 10
1409
 20
1378.4209049999999
 11
1409
 21
1093.111527
  0
LINE
  8
ADD_LINE
  6
DOT
 62
    4
 10
1409
 20
1093.111527
 11
1411.25
 21
1090.6029719999999
  0
ARC
  8
ADD_LINE
  6
DOT
 62
    4
 10
1427.7941534406636
 20
1105.4419199338042
 40
22.22393729406151
 50
221.88988351948356
 51
240.03275650386564
  0
ARC
  8
ADD_LINE
  6
DOT
 62
    4
 10
122506.12372632656
 20
211095.86456769358
 40
242418.46874307724
 50
240.03269079756125
 51
240.06202623651174
  0
ARC
  8
ADD_LINE
  6
DOT
 62
    4
 10
152647.37246321103
 20
263431.8627930787
 40
302813.43198911251
 50
240.06193744373427
 51
240.08554330481018
  0
ARC
  8
ADD_LINE
  6
DOT
 62
    4
 10
1639.4523347230597
 20
974.30723109175266
 40
14.223910383755839
 50
240.0855582856185
 51
262.89389323361797
  0
ARC
  8
ADD_LINE
  6
DOT
 62
    4
 10
1638.8282961180807
 20
969.30149734117048
 40
9.1794287887630776
 50
262.89389134588202
 51
273.36073499097949
  0
ARC
  8
ADD_LINE
  6
DOT
 62
    4
 10
1639.0898068936626
 20
964.84832104135421
 40
4.7185805462282219
 50
273.36066492951158
 51
290.58222869707384
  0
ARC
  8
ADD_LINE
  6
DOT
 62
    4
 10
1638.9115497530253
 20
965.32302415095477
 40
5.2256492303725252
 50
290.58218755966811
 51
306.77242800850683
  0
ARC
  8
ADD_LINE
  6
DOT
 62
    4
 10
1634.2971657263551
 20
971.49739953141579
 40
12.933791113110693
 50
306.77240504522688
 51
314.99998039795156
  0
LINE
  8
ADD_LINE
  6
DOT
 62
    4
 10
1643.4427339999999
 20
962.35182499999996
 11
1646
 21
964.90909099999998
  0
LINE
  8
ADD_LINE
  6
DOT
 62
    4
 10
1646
 20
964.90909099999998
 11
1646
 21
1314.7802309999999
  0
LINE
  8
ADD_LINE
  6
DOT
 62
    4
 10
1646
 20
1314.7802309999999
 11
1646
 21
1664.6513719999998
  0
LINE
  8
ADD_LINE
  6
DOT
 62
    4
 10
1646
 20
1664.6513719999998
 11
1643.685549
 21
1666.8256860000001
  0
LINE
  8
ADD_LINE
  6
DOT
 62
    4
 10
1643.685549
 20
1666.8256860000001
 11
1641.371098
 21
1669
  0
LINE
  8
ADD_LINE
  6
DOT
 62
    4
 10
1641.371098
 20
1669
 11
1527.258129
 21
1669
  0
LINE
  8
ADD_LINE
  6
DOT
 62
    4
 10
1527.258129
 20
1669
 11
1413.14516
 21
1669
  0
LINE
  8
ADD_LINE
  6
DOT
 62
    4
 10
1413.14516
 20
1669
 11
1411.07258
 21
1666.3651410000002
  0
ARC
  8
ADD_LINE
  6
DOT
 62
    4
 10
1637.8782005392486
 20
1662.0694481648101
 40
3.7647123602806566
 50
0.1014332810717572
 51
20.993684536787
  0
ARC
  8
ADD_LINE
  6
DOT
 62
    4
 10
-3183272.7362441741
 20
-3976.0700181475067
 40
3184919.3696569008
 50
0.0995952083831853
 51
0.1014286733275648
  0
ARC
  8
ADD_LINE
  6
DOT
 62
    4
 10
-102232.55998642224
 20
1379.6338113723479
 40
103874.53855205742
 50
0.0374665771570424
 51
0.0995752006287839
  0
ARC
  8
ADD_LINE
  6
DOT
 62
    4
 10
-201773.75720408878
 20
1314.3096143747675
 40
203415.75720417883
 50
359.99994608829166
 51
0.0375321193153153
  0
ARC
  8
ADD_LINE
  6
DOT
 62
    4
 10
-296886.3594176555
 20
1313.8763893127554
 40
298528.35941775346
 50
359.96635649448666
 51
0.0000464125977488
  0
ARC
  8
ADD_LINE
  6
DOT
 62
    4
 10
-33243.821097724699
 20
1159.0542652389449
 40
34885.775638757986
 50
359.80297172110908
 51
359.96637925658995
  0
ARC
  8
ADD_LINE
  6
DOT
 62
    4
 10
-280510.2387598062
 20
2009.337408127747
 40
282153.65524478768
 50
359.78830766359396
 51
359.80297538312925
  0
ARC
  8
ADD_LINE
  6
DOT
 62
    4
 10
1639.1325907212824
 20
966.86740582701997
 40
2.3580703752715042
 50
315.00005930394826
 51
359.78829751774765
  0
ARC
  8
ADD_LINE
  6
DOT
 62
    4
 10
1638.1509990256124
 20
967.84900345550749
 40
3.7462548591355222
 50
303.93125046966912
 51
314.99997316768798
  0
ARC
  8
ADD_LINE
  6
DOT
 62
    4
 10
1637.3295312399354
 20
969.07003342515463
 40
5.2178945941514118
 50
295.29676293430208
 51
303.93127455512023
  0
ARC
  8
ADD_LINE
  6
DOT
 62
    4
 10
1637.498535935847
 20
968.71242650804629
 40
4.822362933845488
 50
286.40903008805537
 51
295.29687681756774
  0
ARC
  8
ADD_LINE
  6
DOT
 62
    4
 10
1638.2610177596557
 20
966.12323684780653
 40
2.1232368478083447
 50
269.99992553038725
 51
286.40907075304568
  0
ARC
  8
ADD_LINE
  6
DOT
 62
    4
 10
1638.2610176887114
 20
968.56775194676094
 40
4.5677519467617351
 50
240.04648698441059
 51
269.99996627403811
  0
ARC
  8
ADD_LINE
  6
DOT
 62
    4
 10
691920.81509191845
 20
1198815.4412013099
 40
1382512.1216885088
 50
240.04119548334685
 51
240.04646669506109
  0
ARC
  8
ADD_LINE
  6
DOT
 62
    4
 10
611551.89210885437
 20
1059381.123735229
 40
1221573.957573587
 50
240.03524067451365
 51
240.04119943558166
  0
ARC
  8
ADD_LINE
  6
DOT
 62
    4
 10
1418.6436312058776
 20
1096.6485570527042
 40
5.862336552986215
 50
213.68021076148289
 51
240.03521663240729
  0
ARC
  8
ADD_LINE
  6
DOT
 62
    4
 10
1415.2651137218945
 20
1094.3970510017104
 40
1.8023291777170116
 50
180.15335448806675
 51
213.68019752614819
  0
ARC
  8
ADD_LINE
  6
DOT
 62
    4
 10
1735238.7271168287
 20
5737.0248686669619
 40
1733831.4800615357
 50
180.15066931141575
 51
180.15341950883225
  0
ARC
  8
ADD_LINE
  6
DOT
 62
    4
 10
58589.619504197806
 20
1328.0247653486296
 40
57176.575395683823
 50
180.0585910645025
 51
180.1507226729966
  0
ARC
  8
ADD_LINE
  6
DOT
 62
    4
 10
114010.54839491799
 20
1384.6839997962538
 40
112597.53324899959
 50
180.00312131438312
 51
180.05858362786909
  0
ARC
  8
ADD_LINE
  6
DOT
 62
    4
 10
200380.94053216226
 20
1389.2242828085077
 40
198967.92550549056
 50
179.96182085801888
 51
180.00307381882274
  0
ARC
  8
ADD_LINE
  6
DOT
 62
    4
 10
24742.988708603545
 20
1506.2722910804795
 40
23329.934680584286
 50
179.76200107300698
 51
179.96184870129496
  0
ARC
  8
ADD_LINE
  6
DOT
 62
    4
 10
156588.97667988261
 20
958.76214650305121
 40
155177.05945574602
 50
179.74028901786138
 51
179.76206141401087
  0
ARC
  8
ADD_LINE
  6
DOT
 62
    4
 10
1415.8625179421969
 20
1662.1374797026448
 40
2.3511570868924924
 50
134.9999594168139
 51
179.7403382100131
  0
ARC
  8
ADD_LINE
  6
DOT
 62
    4
 10
1415.8243867826301
 20
1662.1756156193841
 40
2.2972281200553239
 50
90.732514598932709
 51
135.00004236225245
  0
ARC
  8
ADD_LINE
  6
DOT
 62
    4
 10
1548.4640018594302
 20
-8712.3311170030101
 40
10377.651834720982
 50
90.603694278030275
 51
90.732495176815348
  0
ARC
  8
ADD_LINE
  6
DOT
 62
    4
 10
1478.8104195221612
 20
-2101.9526083668383
 40
3766.906366245566
 50
90.107497428054173
 51
90.60367810340162
  0
ARC
  8
ADD_LINE
  6
DOT
 62
    4
 10
1528.1013751708042
 20
-28372.331662651558
 40
30037.331662652726
 50
90.000015954535896
 51
90.10750282902147
  0
ARC
  8
ADD_LINE
  6
DOT
 62
    4
 10
1528.0694956672944
 20
-50956.668875448114
 40
52621.668875453367
 50
89.927323349932891
 51
89.999974395921938
  0
ARC
  8
ADD_LINE
  6
DOT
 62
    4
 10
1592.0275912894994
 20
-534.11763075663793
 40
2199.0770672020603
 50
89.20012087536152
 51
89.927316468496911
  0
ARC
  8
ADD_LINE
  6
DOT
 62
    4
 10
1589.6103932197138
 20
-707.15337792383206
 40
2372.1296968916281
 50
88.784350034942136
 51
89.200087755081142
  0
ARC
  8
ADD_LINE
  6
DOT
 62
    4
 10
1639.9024433727008
 20
1662.8462272567112
 40
1.5965461290164821
 50
20.993649015991632
 51
88.784274700207745
  0
ARC
  8
ADD_LINE
  6
DOT
 62
    4
 10
1444.9201066057844
 20
1100.6343771872791
 40
21.200580055423049
 50
109.79466382971156
 51
123.4145446172545
  0
ARC
  8
ADD_LINE
  6
DOT
 62
    4
 10
1439.1737559290113
 20
1109.3443572243795
 40
10.765816121959359
 50
123.4145262717965
 51
146.02746590039299
  0
ARC
  8
ADD_LINE
  6
DOT
 62
    4
 10
1439.6725081433457
 20
1109.0082904032792
 40
11.367226696812812
 50
146.02745772909855
 51
167.90640819989266
  0
ARC
  8
ADD_LINE
  6
DOT
 62
    4
 10
1453.1228675975307
 20
1106.1263661948805
 40
25.122867597537986
 50
167.90642952433344
 51
179.99995711261937
  0
ARC
  8
ADD_LINE
  6
DOT
 62
    4
 10
1441.8159614509445
 20
1106.1263983291164
 40
13.815961450951061
 50
180.00005527679817
 51
218.3028278306931
  0
ARC
  8
ADD_LINE
  6
DOT
 62
    4
 10
1442.1699627029447
 20
1106.4060273448658
 40
14.267081470925889
 50
218.3029138756674
 51
255.69611395154095
  0
ARC
  8
ADD_LINE
  6
DOT
 62
    4
 10
1442.3189823641723
 20
1106.9905133697852
 40
14.870265334042461
 50
255.69613701445197
 51
292.14327258092021
  0
ARC
  8
ADD_LINE
  6
DOT
 62
    4
 10
1442.3269204997272
 20
1106.9710201880752
 40
14.849217813947685
 50
292.14325249421358
 51
328.62904137457741
  0
ARC
  8
ADD_LINE
  6
DOT
 62
    4
 10
1442.8350058162454
 20
1106.6612367410743
 40
14.254140950931486
 50
328.62904213684885
 51
4.3525527894748066
  0
ARC
  8
ADD_LINE
  6
DOT
 62
    4
 10
1442.2264388886756
 20
1106.6149209069599
 40
14.864467799273462
 50
4.3525376965235258
 51
38.972356107783966
  0
ARC
  8
ADD_LINE
  6
DOT
 62
    4
 10
1442.3065939517944
 20
1106.6797556963806
 40
14.761373745089958
 50
38.972384754582172
 51
73.740024138054195
  0
ARC
  8
ADD_LINE
  6
DOT
 62
    4
 10
1442.502520053104
 20
1107.3514895533171
 40
14.061649934085526
 50
73.740050101884548
 51
109.79472536841996
  0
ARC
  8
ADD_LINE
  6
DOT
 62
    4
 10
1440.7270217693867
 20
1104.396482158118
 40
13.632506866075372
 50
48.916029110998437
 51
62.655574496596415
  0
ARC
  8
ADD_LINE
  6
DOT
 62
    4
 10
1443.7542637856404
 20
1107.8686508629798
 40
9.0259734905494557
 50
30.202463704514844
 51
48.915963947263719
  0
ARC
  8
ADD_LINE
  6
DOT
 62
    4
 10
1443.3236813509734
 20
1107.6180251644518
 40
9.5241847648043016
 50
12.067313179152021
 51
30.202442647284126
  0
ARC
  8
ADD_LINE
  6
DOT
 62
    4
 10
1436.5910180646419
 20
1106.1786929746353
 40
16.408981935361829
 50
0.0000384976260796
 51
12.067283187516553
  0
ARC
  8
ADD_LINE
  6
DOT
 62
    4
 10
1442.9185186338884
 20
1106.1787069769598
 40
10.081481366112065
 50
317.53353907253881
 51
359.99998308113418
  0
ARC
  8
ADD_LINE
  6
DOT
 62
    4
 10
1442.4899618963613
 20
1106.5709508335262
 40
10.662442742005584
 50
276.80775808467677
 51
317.53351840344572
  0
ARC
  8
ADD_LINE
  6
DOT
 62
    4
 10
1442.4529149957379
 20
1106.8812612261481
 40
10.974956761868677
 50
236.81487697753868
 51
276.80776850979407
  0
ARC
  8
ADD_LINE
  6
DOT
 62
    4
 10
1442.185131653604
 20
1106.4718028106372
 40
10.485708243912798
 50
195.43556679113913
 51
236.81484533462202
  0
ARC
  8
ADD_LINE
  6
DOT
 62
    4
 10
1442.5435770500355
 20
1106.5707612657838
 40
10.857562890125111
 50
176.70697358216077
 51
195.43549920504736
  0
ARC
  8
ADD_LINE
  6
DOT
 62
    4
 10
1442.1271619343394
 20
1106.5947150336214
 40
10.440459387934321
 50
157.42008881847866
 51
176.70694221157594
  0
ARC
  8
ADD_LINE
  6
DOT
 62
    4
 10
1442.4666930387438
 20
1106.4535270444873
 40
10.808175880777261
 50
138.50105510138524
 51
157.4201158221515
  0
ARC
  8
ADD_LINE
  6
DOT
 62
    4
 10
1443.6126045247794
 20
1105.4397468895817
 40
12.338163899131705
 50
121.36996369291254
 51
138.50105186360002
  0
ARC
  8
ADD_LINE
  6
DOT
 62
    4
 10
1448.1694663104869
 20
1097.9655954410425
 40
21.091901912674181
 50
113.02473429684836
 51
121.36995583980198
  0
ARC
  8
ADD_LINE
  6
DOT
 62
    4
 10
1442.4858555917562
 20
1111.3392860201108
 40
6.5605898416074834
 50
93.103801778473737
 51
113.02472603232911
  0
ARC
  8
ADD_LINE
  6
DOT
 62
    4
 10
1442.4627426520066
 20
1111.765370712108
 40
6.1338787301303021
 50
72.322389147688951
 51
93.103720982475536
  0
ARC
  8
ADD_LINE
  6
DOT
 62
    4
 10
1439.1297454491509
 20
1101.3076679127102
 40
17.109871541472458
 50
62.655615560304489
 51
72.32232322369974
  0
ARC
  8
ADD_LINE
  6
DOT
 62
    4
 10
1612.5778085276301
 20
1006.4339535287325
 40
14.385106992739077
 50
116.23781191581177
 51
148.63891807521241
  0
ARC
  8
ADD_LINE
  6
DOT
 62
    4
 10
1612.7624129361133
 20
1006.321442700403
 40
14.601295507981474
 50
148.63891855375729
 51
180.68008282230937
  0
ARC
  8
ADD_LINE
  6
DOT
 62
    4
 10
1612.9638662641652
 20
1006.3238293976672
 40
14.802762973558859
 50
180.68006500917152
 51
212.45780008725063
  0
ARC
  8
ADD_LINE
  6
DOT
 62
    4
 10
1612.998997695231
 20
1006.3461759589444
 40
14.844399330838362
 50
212.45780572554036
 51
244.16877097844601
  0
ARC
  8
ADD_LINE
  6
DOT
 62
    4
 10
1613.1535566178879
 20
1006.6654203595179
 40
15.199089967424932
 50
244.16871863986813
 51
278.61178571037146
  0
ARC
  8
ADD_LINE
  6
DOT
 62
    4
 10
1613.2770991943702
 20
1005.8497791650584
 40
14.374145529289373
 50
278.6117194064584
 51
314.52397439859277
  0
ARC
  8
ADD_LINE
  6
DOT
 62
    4
 10
1613.4197103194073
 20
1005.7047721518332
 40
14.170761737287714
 50
314.5239922385553
 51
350.75257442664548
  0
ARC
  8
ADD_LINE
  6
DOT
 62
    4
 10
1612.8037350134557
 20
1005.805054179784
 40
14.794846717574479
 50
350.75260313208656
 51
25.831243118963634
  0
ARC
  8
ADD_LINE
  6
DOT
 62
    4
 10
1611.8565713203138
 20
1005.346557381436
 40
15.847148183634999
 50
25.831186585573821
 51
47.469158954240235
  0
ARC
  8
ADD_LINE
  6
DOT
 62
    4
 10
1612.6565769927869
 20
1006.2186932293358
 40
14.663666027938198
 50
47.469090853182898
 51
70.403586770220201
  0
ARC
  8
ADD_LINE
  6
DOT
 62
    4
 10
1612.7526773020515
 20
1006.4886208013449
 40
14.377141747002136
 50
70.403596021863435
 51
93.597177306435156
  0
ARC
  8
ADD_LINE
  6
DOT
 62
    4
 10
1612.7821781799732
 20
1006.0192999008447
 40
14.847388926084763
 50
93.59716545310043
 51
116.23779377103487
  0
ARC
  8
ADD_LINE
  6
DOT
 62
    4
 10
1609.5854255565486
 20
1003.9820880390748
 40
14.673634892302972
 50
23.122714379429268
 51
40.700886226940454
  0
ARC
  8
ADD_LINE
  6
DOT
 62
    4
 10
1614.0476492882226
 20
1005.8874825131556
 40
9.8216282215164127
 50
359.37597839408078
 51
23.122695287693915
  0
ARC
  8
ADD_LINE
  6
DOT
 62
    4
 10
1614.5800874677404
 20
1005.8816644351172
 40
9.2891582555456739
 50
334.83905255933677
 51
359.37609521698897
  0
ARC
  8
ADD_LINE
  6
DOT
 62
    4
 10
1611.8234470423562
 20
1007.1765407669968
 40
12.334773324739751
 50
315.00004004084314
 51
334.83907761775685
  0
ARC
  8
ADD_LINE
  6
DOT
 62
    4
 10
1612.3945002524117
 20
1006.6054878016112
 40
11.527182303250489
 50
284.08780868497944
 51
315.0000419861584
  0
ARC
  8
ADD_LINE
  6
DOT
 62
    4
 10
1612.7777463877221
 20
1005.0782934978216
 40
9.9526347359884645
 50
249.58186067204536
 51
284.08788195067933
  0
ARC
  8
ADD_LINE
  6
DOT
 62
    4
 10
1612.8997372232936
 20
1005.4060133584714
 40
10.302323270265411
 50
215.79466059520615
 51
249.58188780048692
  0
ARC
  8
ADD_LINE
  6
DOT
 62
    4
 10
1614.6217092400681
 20
1006.6476894321839
 40
12.425280429175767
 50
186.43094462261836
 51
215.79464044302312
  0
ARC
  8
ADD_LINE
  6
DOT
 62
    4
 10
1633.0383547318526
 20
1008.7235347216809
 40
30.958546866474524
 50
181.15656693020241
 51
186.43097256327294
  0
ARC
  8
ADD_LINE
  6
DOT
 62
    4
 10
1606.6452093404377
 20
1008.190698035193
 40
4.5600234496872946
 50
159.46573479049303
 51
181.15663108063318
  0
ARC
  8
ADD_LINE
  6
DOT
 62
    4
 10
1607.1026584809233
 20
1008.0193543998625
 40
5.0485092299282428
 50
139.24234481559258
 51
159.46575047377959
  0
ARC
  8
ADD_LINE
  6
DOT
 62
    4
 10
1635.1809409426791
 20
983.81903347864476
 40
42.116628668228109
 50
134.99997539450561
 51
139.24235783773173
  0
ARC
  8
ADD_LINE
  6
DOT
 62
    4
 10
1635.1809665213552
 20
983.81905905732082
 40
42.116628668228109
 50
130.75764216226826
 51
135.00002460549438
  0
ARC
  8
ADD_LINE
  6
DOT
 62
    4
 10
1610.9806456001374
 20
1011.8973415190765
 40
5.0485092299282428
 50
110.53424952622042
 51
130.75765518440741
  0
ARC
  8
ADD_LINE
  6
DOT
 62
    4
 10
1610.8093019648072
 20
1012.3547906595623
 40
4.5600234496872946
 50
88.843368919366795
 51
110.53426520950694
  0
ARC
  8
ADD_LINE
  6
DOT
 62
    4
 10
1610.2764652783189
 20
985.96164526814732
 40
30.958546866474524
 50
83.569027436727097
 51
88.843433069797612
  0
ARC
  8
ADD_LINE
  6
DOT
 62
    4
 10
1611.3657702192308
 20
995.62566030426955
 40
21.233333662024573
 50
77.200122838096362
 51
83.569085932735973
  0
ARC
  8
ADD_LINE
  6
DOT
 62
    4
 10
1613.9846343178724
 20
1007.1527867965442
 40
9.4124582995191516
 50
65.500362382007708
 51
77.200070619976102
  0
ARC
  8
ADD_LINE
  6
DOT
 62
    4
 10
1614.770459787323
 20
1008.8771742289394
 40
7.5174560078749346
 50
52.175723253230145
 51
65.500293118804663
  0
ARC
  8
ADD_LINE
  6
DOT
 62
    4
 10
1613.7535704197293
 20
1007.5673605285952
 40
9.1756706850273435
 50
40.700932893667676
 51
52.175700934848165
  0
LINE
  8
ADD_LINE
  6
DOT
 62
    4
 10
1149.1217603278687
 20
1667.5140481038254
 11
1147.0491803278687
 21
1664.879190103825
  0
LINE
  8
ADD_LINE
  6
DOT
 62
    4
 10
1147.0491803278687
 20
1664.879190103825
 11
1147.0491803278687
 21
1379.5698121038251
  0
LINE
  8
ADD_LINE
  6
DOT
 62
    4
 10
1147.0491803278687
 20
1379.5698121038251
 11
1147.0491803278687
 21
1094.2604341038252
  0
LINE
  8
ADD_LINE
  6
DOT
 62
    4
 10
1147.0491803278687
 20
1094.2604341038252
 11
1149.2991803278687
 21
1091.7518791038251
  0
ARC
  8
ADD_LINE
  6
DOT
 62
    4
 10
1165.8433337685323
 20
1106.5908270376294
 40
22.22393729406151
 50
221.88988351948356
 51
240.03275650386564
  0
ARC
  8
ADD_LINE
  6
DOT
 62
    4
 10
122244.17290665443
 20
211097.01347479742
 40
242418.46874307724
 50
240.03269079756125
 51
240.06202623651174
  0
ARC
  8
ADD_LINE
  6
DOT
 62
    4
 10
152385.42164353889
 20
263433.01170018251
 40
302813.43198911251
 50
240.06193744373427
 51
240.08554330481018
  0
ARC
  8
ADD_LINE
  6
DOT
 62
    4
 10
1377.5015150509284
 20
975.45613819557786
 40
14.223910383755839
 50
240.0855582856185
 51
262.89389323361797
  0
ARC
  8
ADD_LINE
  6
DOT
 62
    4
 10
1376.8774764459494
 20
970.45040444499568
 40
9.1794287887630776
 50
262.89389134588202
 51
273.36073499097949
  0
ARC
  8
ADD_LINE
  6
DOT
 62
    4
 10
1377.1389872215313
 20
965.9972281451794
 40
4.7185805462282219
 50
273.36066492951158
 51
290.58222869707384
  0
ARC
  8
ADD_LINE
  6
DOT
 62
    4
 10
1376.9607300808943
 20
966.47193125477997
 40
5.2256492303725252
 50
290.58218755966811
 51
306.77242800850683
  0
ARC
  8
ADD_LINE
  6
DOT
 62
    4
 10
1372.3463460542238
 20
972.64630663524098
 40
12.933791113110693
 50
306.77240504522688
 51
314.99998039795156
  0
LINE
  8
ADD_LINE
  6
DOT
 62
    4
 10
1381.4919143278689
 20
963.50073210382515
 11
1384.0491803278687
 21
966.05799810382518
  0
LINE
  8
ADD_LINE
  6
DOT
 62
    4
 10
1384.0491803278687
 20
966.05799810382518
 11
1384.0491803278687
 21
1315.9291381038251
  0
LINE
  8
ADD_LINE
  6
DOT
 62
    4
 10
1384.0491803278687
 20
1315.9291381038251
 11
1384.0491803278687
 21
1665.800279103825
  0
LINE
  8
ADD_LINE
  6
DOT
 62
    4
 10
1384.0491803278687
 20
1665.800279103825
 11
1381.7347293278689
 21
1667.9745931038253
  0
LINE
  8
ADD_LINE
  6
DOT
 62
    4
 10
1381.7347293278689
 20
1667.9745931038253
 11
1379.4202783278688
 21
1670.1489071038251
  0
LINE
  8
ADD_LINE
  6
DOT
 62
    4
 10
1379.4202783278688
 20
1670.1489071038251
 11
1265.307309327869
 21
1670.1489071038251
  0
LINE
  8
ADD_LINE
  6
DOT
 62
    4
 10
1265.307309327869
 20
1670.1489071038251
 11
1151.1943403278687
 21
1670.1489071038251
  0
LINE
  8
ADD_LINE
  6
DOT
 62
    4
 10
1151.1943403278687
 20
1670.1489071038251
 11
1149.1217603278687
 21
1667.5140481038254
  0
ARC
  8
ADD_LINE
  6
DOT
 62
    4
 10
1375.9273808671173
 20
1663.2183552686353
 40
3.7647123602806566
 50
0.1014332810717572
 51
20.993684536787
  0
ARC
  8
ADD_LINE
  6
DOT
 62
    4
 10
-3183534.6870638462
 20
-3974.9211110436817
 40
3184919.3696569008
 50
0.0995952083831853
 51
0.1014286733275648
  0
ARC
  8
ADD_LINE
  6
DOT
 62
    4
 10
-102494.51080609437
 20
1380.7827184761731
 40
103874.53855205742
 50
0.0374665771570424
 51
0.0995752006287839
  0
ARC
  8
ADD_LINE
  6
DOT
 62
    4
 10
-202035.70802376093
 20
1315.4585214785927
 40
203415.75720417883
 50
359.99994608829166
 51
0.0375321193153153
  0
ARC
  8
ADD_LINE
  6
DOT
 62
    4
 10
-297148.31023732764
 20
1315.0252964165806
 40
298528.35941775346
 50
359.96635649448666
 51
0.0000464125977488
  0
ARC
  8
ADD_LINE
  6
DOT
 62
    4
 10
-33505.771917396828
 20
1160.2031723427701
 40
34885.775638757986
 50
359.80297172110908
 51
359.96637925658995
  0
ARC
  8
ADD_LINE
  6
DOT
 62
    4
 10
-280772.18957947834
 20
2010.4863152315722
 40
282153.65524478768
 50
359.78830766359396
 51
359.80297538312925
  0
ARC
  8
ADD_LINE
  6
DOT
 62
    4
 10
1377.1817710491513
 20
968.01631293084517
 40
2.3580703752715042
 50
315.00005930394826
 51
359.78829751774765
  0
ARC
  8
ADD_LINE
  6
DOT
 62
    4
 10
1376.2001793534814
 20
968.99791055933269
 40
3.7462548591355222
 50
303.93125046966912
 51
314.99997316768798
  0
ARC
  8
ADD_LINE
  6
DOT
 62
    4
 10
1375.3787115678042
 20
970.21894052897982
 40
5.2178945941514118
 50
295.29676293430208
 51
303.93127455512023
  0
ARC
  8
ADD_LINE
  6
DOT
 62
    4
 10
1375.5477162637157
 20
969.86133361187148
 40
4.822362933845488
 50
286.40903008805537
 51
295.29687681756774
  0
ARC
  8
ADD_LINE
  6
DOT
 62
    4
 10
1376.3101980875244
 20
967.27214395163173
 40
2.1232368478083447
 50
269.99992553038725
 51
286.40907075304568
  0
ARC
  8
ADD_LINE
  6
DOT
 62
    4
 10
1376.3101980165802
 20
969.71665905058614
 40
4.5677519467617351
 50
240.04648698441059
 51
269.99996627403811
  0
ARC
  8
ADD_LINE
  6
DOT
 62
    4
 10
691658.86427224637
 20
1198816.5901084137
 40
1382512.1216885088
 50
240.04119548334685
 51
240.04646669506109
  0
ARC
  8
ADD_LINE
  6
DOT
 62
    4
 10
611289.94128918228
 20
1059382.2726423328
 40
1221573.957573587
 50
240.03524067451365
 51
240.04119943558166
  0
ARC
  8
ADD_LINE
  6
DOT
 62
    4
 10
1156.6928115337464
 20
1097.7974641565294
 40
5.862336552986215
 50
213.68021076148289
 51
240.03521663240729
  0
ARC
  8
ADD_LINE
  6
DOT
 62
    4
 10
1153.3142940497632
 20
1095.5459581055356
 40
1.8023291777170116
 50
180.15335448806675
 51
213.68019752614819
  0
ARC
  8
ADD_LINE
  6
DOT
 62
    4
 10
1734976.7762971566
 20
5738.1737757707869
 40
1733831.4800615357
 50
180.15066931141575
 51
180.15341950883225
  0
ARC
  8
ADD_LINE
  6
DOT
 62
    4
 10
58327.668684525677
 20
1329.1736724524548
 40
57176.575395683823
 50
180.0585910645025
 51
180.1507226729966
  0
ARC
  8
ADD_LINE
  6
DOT
 62
    4
 10
113748.59757524586
 20
1385.832906900079
 40
112597.53324899959
 50
180.00312131438312
 51
180.05858362786909
  0
ARC
  8
ADD_LINE
  6
DOT
 62
    4
 10
200118.98971249011
 20
1390.3731899123329
 40
198967.92550549056
 50
179.96182085801888
 51
180.00307381882274
  0
ARC
  8
ADD_LINE
  6
DOT
 62
    4
 10
24481.037888931412
 20
1507.4211981843047
 40
23329.934680584286
 50
179.76200107300698
 51
179.96184870129496
  0
ARC
  8
ADD_LINE
  6
DOT
 62
    4
 10
156327.02586021047
 20
959.9110536068764
 40
155177.05945574602
 50
179.74028901786138
 51
179.76206141401087
  0
ARC
  8
ADD_LINE
  6
DOT
 62
    4
 10
1153.9116982700656
 20
1663.28638680647
 40
2.3511570868924924
 50
134.9999594168139
 51
179.7403382100131
  0
ARC
  8
ADD_LINE
  6
DOT
 62
    4
 10
1153.8735671104991
 20
1663.3245227232093
 40
2.2972281200553239
 50
90.732514598932709
 51
135.00004236225245
  0
ARC
  8
ADD_LINE
  6
DOT
 62
    4
 10
1286.5131821872992
 20
-8711.1822098991851
 40
10377.651834720982
 50
90.603694278030275
 51
90.732495176815348
  0
ARC
  8
ADD_LINE
  6
DOT
 62
    4
 10
1216.85959985003
 20
-2100.8037012630129
 40
3766.906366245566
 50
90.107497428054173
 51
90.60367810340162
  0
ARC
  8
ADD_LINE
  6
DOT
 62
    4
 10
1266.1505554986729
 20
-28371.182755547732
 40
30037.331662652726
 50
90.000015954535896
 51
90.10750282902147
  0
ARC
  8
ADD_LINE
  6
DOT
 62
    4
 10
1266.1186759951633
 20
-50955.519968344291
 40
52621.668875453367
 50
89.927323349932891
 51
89.999974395921938
  0
ARC
  8
ADD_LINE
  6
DOT
 62
    4
 10
1330.0767716173681
 20
-532.96872365281274
 40
2199.0770672020603
 50
89.20012087536152
 51
89.927316468496911
  0
ARC
  8
ADD_LINE
  6
DOT
 62
    4
 10
1327.6595735475825
 20
-706.00447082000687
 40
2372.1296968916281
 50
88.784350034942136
 51
89.200087755081142
  0
ARC
  8
ADD_LINE
  6
DOT
 62
    4
 10
1377.9516237005695
 20
1663.9951343605364
 40
1.5965461290164821
 50
20.993649015991632
 51
88.784274700207745
  0
ARC
  8
ADD_LINE
  6
DOT
 62
    4
 10
1182.9692869336531
 20
1101.7832842911043
 40
21.200580055423049
 50
109.79466382971156
 51
123.4145446172545
  0
ARC
  8
ADD_LINE
  6
DOT
 62
    4
 10
1177.22293625688
 20
1110.4932643282047
 40
10.765816121959359
 50
123.4145262717965
 51
146.02746590039299
  0
ARC
  8
ADD_LINE
  6
DOT
 62
    4
 10
1177.7216884712147
 20
1110.1571975071044
 40
11.367226696812812
 50
146.02745772909855
 51
167.90640819989266
  0
ARC
  8
ADD_LINE
  6
DOT
 62
    4
 10
1191.1720479253995
 20
1107.2752732987057
 40
25.122867597537986
 50
167.90642952433344
 51
179.99995711261937
  0
ARC
  8
ADD_LINE
  6
DOT
 62
    4
 10
1179.8651417788132
 20
1107.2753054329416
 40
13.815961450951061
 50
180.00005527679817
 51
218.3028278306931
  0
ARC
  8
ADD_LINE
  6
DOT
 62
    4
 10
1180.2191430308134
 20
1107.554934448691
 40
14.267081470925889
 50
218.3029138756674
 51
255.69611395154095
  0
ARC
  8
ADD_LINE
  6
DOT
 62
    4
 10
1180.368162692041
 20
1108.1394204736104
 40
14.870265334042461
 50
255.69613701445197
 51
292.14327258092021
  0
ARC
  8
ADD_LINE
  6
DOT
 62
    4
 10
1180.376100827596
 20
1108.1199272919004
 40
14.849217813947685
 50
292.14325249421358
 51
328.62904137457741
  0
ARC
  8
ADD_LINE
  6
DOT
 62
    4
 10
1180.8841861441142
 20
1107.8101438448995
 40
14.254140950931486
 50
328.62904213684885
 51
4.3525527894748066
  0
ARC
  8
ADD_LINE
  6
DOT
 62
    4
 10
1180.2756192165443
 20
1107.7638280107851
 40
14.864467799273462
 50
4.3525376965235258
 51
38.972356107783966
  0
ARC
  8
ADD_LINE
  6
DOT
 62
    4
 10
1180.3557742796633
 20
1107.8286628002058
 40
14.761373745089958
 50
38.972384754582172
 51
73.740024138054195
  0
ARC
  8
ADD_LINE
  6
DOT
 62
    4
 10
1180.5517003809727
 20
1108.5003966571423
 40
14.061649934085526
 50
73.740050101884548
 51
109.79472536841996
  0
ARC
  8
ADD_LINE
  6
DOT
 62
    4
 10
1178.7762020972554
 20
1105.5453892619432
 40
13.632506866075372
 50
48.916029110998437
 51
62.655574496596415
  0
ARC
  8
ADD_LINE
  6
DOT
 62
    4
 10
1181.8034441135091
 20
1109.017557966805
 40
9.0259734905494557
 50
30.202463704514844
 51
48.915963947263719
  0
ARC
  8
ADD_LINE
  6
DOT
 62
    4
 10
1181.3728616788421
 20
1108.766932268277
 40
9.5241847648043016
 50
12.067313179152021
 51
30.202442647284126
  0
ARC
  8
ADD_LINE
  6
DOT
 62
    4
 10
1174.6401983925106
 20
1107.3276000784605
 40
16.408981935361829
 50
0.0000384976260796
 51
12.067283187516553
  0
ARC
  8
ADD_LINE
  6
DOT
 62
    4
 10
1180.9676989617573
 20
1107.3276140807849
 40
10.081481366112065
 50
317.53353907253881
 51
359.99998308113418
  0
ARC
  8
ADD_LINE
  6
DOT
 62
    4
 10
1180.53914222423
 20
1107.7198579373514
 40
10.662442742005584
 50
276.80775808467677
 51
317.53351840344572
  0
ARC
  8
ADD_LINE
  6
DOT
 62
    4
 10
1180.5020953236066
 20
1108.0301683299733
 40
10.974956761868677
 50
236.81487697753868
 51
276.80776850979407
  0
ARC
  8
ADD_LINE
  6
DOT
 62
    4
 10
1180.2343119814727
 20
1107.6207099144623
 40
10.485708243912798
 50
195.43556679113913
 51
236.81484533462202
  0
ARC
  8
ADD_LINE
  6
DOT
 62
    4
 10
1180.5927573779044
 20
1107.719668369609
 40
10.857562890125111
 50
176.70697358216077
 51
195.43549920504736
  0
ARC
  8
ADD_LINE
  6
DOT
 62
    4
 10
1180.1763422622084
 20
1107.7436221374466
 40
10.440459387934321
 50
157.42008881847866
 51
176.70694221157594
  0
ARC
  8
ADD_LINE
  6
DOT
 62
    4
 10
1180.5158733666125
 20
1107.6024341483125
 40
10.808175880777261
 50
138.50105510138524
 51
157.4201158221515
  0
ARC
  8
ADD_LINE
  6
DOT
 62
    4
 10
1181.6617848526484
 20
1106.5886539934069
 40
12.338163899131705
 50
121.36996369291254
 51
138.50105186360002
  0
ARC
  8
ADD_LINE
  6
DOT
 62
    4
 10
1186.2186466383559
 20
1099.1145025448677
 40
21.091901912674181
 50
113.02473429684836
 51
121.36995583980198
  0
ARC
  8
ADD_LINE
  6
DOT
 62
    4
 10
1180.5350359196249
 20
1112.488193123936
 40
6.5605898416074834
 50
93.103801778473737
 51
113.02472603232911
  0
ARC
  8
ADD_LINE
  6
DOT
 62
    4
 10
1180.5119229798756
 20
1112.9142778159332
 40
6.1338787301303021
 50
72.322389147688951
 51
93.103720982475536
  0
ARC
  8
ADD_LINE
  6
DOT
 62
    4
 10
1177.1789257770196
 20
1102.4565750165354
 40
17.109871541472458
 50
62.655615560304489
 51
72.32232322369974
  0
ARC
  8
ADD_LINE
  6
DOT
 62
    4
 10
1350.6269888554988
 20
1007.5828606325577
 40
14.385106992739077
 50
116.23781191581177
 51
148.63891807521241
  0
ARC
  8
ADD_LINE
  6
DOT
 62
    4
 10
1350.8115932639821
 20
1007.4703498042282
 40
14.601295507981474
 50
148.63891855375729
 51
180.68008282230937
  0
ARC
  8
ADD_LINE
  6
DOT
 62
    4
 10
1351.0130465920342
 20
1007.4727365014924
 40
14.802762973558859
 50
180.68006500917152
 51
212.45780008725063
  0
ARC
  8
ADD_LINE
  6
DOT
 62
    4
 10
1351.0481780230998
 20
1007.4950830627695
 40
14.844399330838362
 50
212.45780572554036
 51
244.16877097844601
  0
ARC
  8
ADD_LINE
  6
DOT
 62
    4
 10
1351.2027369457568
 20
1007.8143274633431
 40
15.199089967424932
 50
244.16871863986813
 51
278.61178571037146
  0
ARC
  8
ADD_LINE
  6
DOT
 62
    4
 10
1351.326279522239
 20
1006.9986862688836
 40
14.374145529289373
 50
278.6117194064584
 51
314.52397439859277
  0
ARC
  8
ADD_LINE
  6
DOT
 62
    4
 10
1351.4688906472761
 20
1006.8536792556584
 40
14.170761737287714
 50
314.5239922385553
 51
350.75257442664548
  0
ARC
  8
ADD_LINE
  6
DOT
 62
    4
 10
1350.8529153413246
 20
1006.9539612836092
 40
14.794846717574479
 50
350.75260313208656
 51
25.831243118963634
  0
ARC
  8
ADD_LINE
  6
DOT
 62
    4
 10
1349.9057516481825
 20
1006.4954644852612
 40
15.847148183634999
 50
25.831186585573821
 51
47.469158954240235
  0
ARC
  8
ADD_LINE
  6
DOT
 62
    4
 10
1350.7057573206557
 20
1007.367600333161
 40
14.663666027938198
 50
47.469090853182898
 51
70.403586770220201
  0
ARC
  8
ADD_LINE
  6
DOT
 62
    4
 10
1350.8018576299205
 20
1007.6375279051701
 40
14.377141747002136
 50
70.403596021863435
 51
93.597177306435156
  0
ARC
  8
ADD_LINE
  6
DOT
 62
    4
 10
1350.8313585078421
 20
1007.1682070046699
 40
14.847388926084763
 50
93.59716545310043
 51
116.23779377103487
  0
ARC
  8
ADD_LINE
  6
DOT
 62
    4
 10
1347.6346058844173
 20
1005.1309951429
 40
14.673634892302972
 50
23.122714379429268
 51
40.700886226940454
  0
ARC
  8
ADD_LINE
  6
DOT
 62
    4
 10
1352.0968296160913
 20
1007.0363896169808
 40
9.8216282215164127
 50
359.37597839408078
 51
23.122695287693915
  0
ARC
  8
ADD_LINE
  6
DOT
 62
    4
 10
1352.6292677956093
 20
1007.0305715389424
 40
9.2891582555456739
 50
334.83905255933677
 51
359.37609521698897
  0
ARC
  8
ADD_LINE
  6
DOT
 62
    4
 10
1349.872627370225
 20
1008.325447870822
 40
12.334773324739751
 50
315.00004004084314
 51
334.83907761775685
  0
ARC
  8
ADD_LINE
  6
DOT
 62
    4
 10
1350.4436805802806
 20
1007.7543949054364
 40
11.527182303250489
 50
284.08780868497944
 51
315.0000419861584
  0
ARC
  8
ADD_LINE
  6
DOT
 62
    4
 10
1350.826926715591
 20
1006.2272006016468
 40
9.9526347359884645
 50
249.58186067204536
 51
284.08788195067933
  0
ARC
  8
ADD_LINE
  6
DOT
 62
    4
 10
1350.9489175511625
 20
1006.5549204622966
 40
10.302323270265411
 50
215.79466059520615
 51
249.58188780048692
  0
ARC
  8
ADD_LINE
  6
DOT
 62
    4
 10
1352.6708895679371
 20
1007.7965965360091
 40
12.425280429175767
 50
186.43094462261836
 51
215.79464044302312
  0
ARC
  8
ADD_LINE
  6
DOT
 62
    4
 10
1371.0875350597216
 20
1009.8724418255061
 40
30.958546866474524
 50
181.15656693020241
 51
186.43097256327294
  0
ARC
  8
ADD_LINE
  6
DOT
 62
    4
 10
1344.6943896683064
 20
1009.3396051390182
 40
4.5600234496872946
 50
159.46573479049303
 51
181.15663108063318
  0
ARC
  8
ADD_LINE
  6
DOT
 62
    4
 10
1345.151838808792
 20
1009.1682615036877
 40
5.0485092299282428
 50
139.24234481559258
 51
159.46575047377959
  0
ARC
  8
ADD_LINE
  6
DOT
 62
    4
 10
1373.2301212705478
 20
984.96794058246996
 40
42.116628668228109
 50
134.99997539450561
 51
139.24235783773173
  0
ARC
  8
ADD_LINE
  6
DOT
 62
    4
 10
1373.2301468492241
 20
984.96796616114602
 40
42.116628668228109
 50
130.75764216226826
 51
135.00002460549438
  0
ARC
  8
ADD_LINE
  6
DOT
 62
    4
 10
1349.0298259280061
 20
1013.0462486229017
 40
5.0485092299282428
 50
110.53424952622042
 51
130.75765518440741
  0
ARC
  8
ADD_LINE
  6
DOT
 62
    4
 10
1348.8584822926759
 20
1013.5036977633875
 40
4.5600234496872946
 50
88.843368919366795
 51
110.53426520950694
  0
ARC
  8
ADD_LINE
  6
DOT
 62
    4
 10
1348.3256456061876
 20
987.11055237197251
 40
30.958546866474524
 50
83.569027436727097
 51
88.843433069797612
  0
ARC
  8
ADD_LINE
  6
DOT
 62
    4
 10
1349.4149505470995
 20
996.77456740809475
 40
21.233333662024573
 50
77.200122838096362
 51
83.569085932735973
  0
ARC
  8
ADD_LINE
  6
DOT
 62
    4
 10
1352.0338146457411
 20
1008.3016939003694
 40
9.4124582995191516
 50
65.500362382007708
 51
77.200070619976102
  0
ARC
  8
ADD_LINE
  6
DOT
 62
    4
 10
1352.8196401151917
 20
1010.0260813327646
 40
7.5174560078749346
 50
52.175723253230145
 51
65.500293118804663
  0
ARC
  8
ADD_LINE
  6
DOT
 62
    4
 10
1351.8027507475981
 20
1008.7162676324204
 40
9.1756706850273435
 50
40.700932893667676
 51
52.175700934848165
  0
LINE
  8
ADD_LINE
  6
DOT
 62
    4
 10
883.72421934426233
 20
1669.8118623114755
 11
881.65163934426232
 21
1667.1770043114752
  0
LINE
  8
ADD_LINE
  6
DOT
 62
    4
 10
881.65163934426232
 20
1667.1770043114752
 11
881.65163934426232
 21
1381.8676263114753
  0
LINE
  8
ADD_LINE
  6
DOT
 62
    4
 10
881.65163934426232
 20
1381.8676263114753
 11
881.65163934426232
 21
1096.5582483114753
  0
LINE
  8
ADD_LINE
  6
DOT
 62
    4
 10
881.65163934426232
 20
1096.5582483114753
 11
883.90163934426232
 21
1094.0496933114754
  0
ARC
  8
ADD_LINE
  6
DOT
 62
    4
 10
900.44579278492597
 20
1108.8886412452798
 40
22.22393729406151
 50
221.88988351948356
 51
240.03275650386564
  0
ARC
  8
ADD_LINE
  6
DOT
 62
    4
 10
121978.77536567082
 20
211099.31128900506
 40
242418.46874307724
 50
240.03269079756125
 51
240.06202623651174
  0
ARC
  8
ADD_LINE
  6
DOT
 62
    4
 10
152120.02410255529
 20
263435.30951439018
 40
302813.43198911251
 50
240.06193744373427
 51
240.08554330481018
  0
ARC
  8
ADD_LINE
  6
DOT
 62
    4
 10
1112.103974067322
 20
977.75395240322814
 40
14.223910383755839
 50
240.0855582856185
 51
262.89389323361797
  0
ARC
  8
ADD_LINE
  6
DOT
 62
    4
 10
1111.479935462343
 20
972.74821865264595
 40
9.1794287887630776
 50
262.89389134588202
 51
273.36073499097949
  0
ARC
  8
ADD_LINE
  6
DOT
 62
    4
 10
1111.7414462379249
 20
968.29504235282968
 40
4.7185805462282219
 50
273.36066492951158
 51
290.58222869707384
  0
ARC
  8
ADD_LINE
  6
DOT
 62
    4
 10
1111.5631890972877
 20
968.76974546243025
 40
5.2256492303725252
 50
290.58218755966811
 51
306.77242800850683
  0
ARC
  8
ADD_LINE
  6
DOT
 62
    4
 10
1106.9488050706174
 20
974.94412084289126
 40
12.933791113110693
 50
306.77240504522688
 51
314.99998039795156
  0
LINE
  8
ADD_LINE
  6
DOT
 62
    4
 10
1116.0943733442622
 20
965.79854631147543
 11
1118.6516393442623
 21
968.35581231147546
  0
LINE
  8
ADD_LINE
  6
DOT
 62
    4
 10
1118.6516393442623
 20
968.35581231147546
 11
1118.6516393442623
 21
1318.2269523114755
  0
LINE
  8
ADD_LINE
  6
DOT
 62
    4
 10
1118.6516393442623
 20
1318.2269523114755
 11
1118.6516393442623
 21
1668.0980933114751
  0
LINE
  8
ADD_LINE
  6
DOT
 62
    4
 10
1118.6516393442623
 20
1668.0980933114751
 11
1116.3371883442623
 21
1670.2724073114754
  0
LINE
  8
ADD_LINE
  6
DOT
 62
    4
 10
1116.3371883442623
 20
1670.2724073114754
 11
1114.0227373442623
 21
1672.4467213114753
  0
LINE
  8
ADD_LINE
  6
DOT
 62
    4
 10
1114.0227373442623
 20
1672.4467213114753
 11
999.90976834426237
 21
1672.4467213114753
  0
LINE
  8
ADD_LINE
  6
DOT
 62
    4
 10
999.90976834426237
 20
1672.4467213114753
 11
885.79679934426235
 21
1672.4467213114753
  0
LINE
  8
ADD_LINE
  6
DOT
 62
    4
 10
885.79679934426235
 20
1672.4467213114753
 11
883.72421934426233
 21
1669.8118623114755
  0
ARC
  8
ADD_LINE
  6
DOT
 62
    4
 10
1110.5298398835109
 20
1665.5161694762855
 40
3.7647123602806566
 50
0.1014332810717572
 51
20.993684536787
  0
ARC
  8
ADD_LINE
  6
DOT
 62
    4
 10
-3183800.08460483
 20
-3972.6232968360309
 40
3184919.3696569008
 50
0.0995952083831853
 51
0.1014286733275648
  0
ARC
  8
ADD_LINE
  6
DOT
 62
    4
 10
-102759.90834707798
 20
1383.0805326838235
 40
103874.53855205742
 50
0.0374665771570424
 51
0.0995752006287839
  0
ARC
  8
ADD_LINE
  6
DOT
 62
    4
 10
-202301.10556474453
 20
1317.7563356862428
 40
203415.75720417883
 50
359.99994608829166
 51
0.0375321193153153
  0
ARC
  8
ADD_LINE
  6
DOT
 62
    4
 10
-297413.70777831121
 20
1317.323110624231
 40
298528.35941775346
 50
359.96635649448666
 51
0.0000464125977488
  0
ARC
  8
ADD_LINE
  6
DOT
 62
    4
 10
-33771.169458380434
 20
1162.5009865504202
 40
34885.775638757986
 50
359.80297172110908
 51
359.96637925658995
  0
ARC
  8
ADD_LINE
  6
DOT
 62
    4
 10
-281037.58712046191
 20
2012.7841294392223
 40
282153.65524478768
 50
359.78830766359396
 51
359.80297538312925
  0
ARC
  8
ADD_LINE
  6
DOT
 62
    4
 10
1111.7842300655447
 20
970.31412713849545
 40
2.3580703752715042
 50
315.00005930394826
 51
359.78829751774765
  0
ARC
  8
ADD_LINE
  6
DOT
 62
    4
 10
1110.8026383698747
 20
971.29572476698297
 40
3.7462548591355222
 50
303.93125046966912
 51
314.99997316768798
  0
ARC
  8
ADD_LINE
  6
DOT
 62
    4
 10
1109.9811705841977
 20
972.5167547366301
 40
5.2178945941514118
 50
295.29676293430208
 51
303.93127455512023
  0
ARC
  8
ADD_LINE
  6
DOT
 62
    4
 10
1110.1501752801093
 20
972.15914781952176
 40
4.822362933845488
 50
286.40903008805537
 51
295.29687681756774
  0
ARC
  8
ADD_LINE
  6
DOT
 62
    4
 10
1110.912657103918
 20
969.569958159282
 40
2.1232368478083447
 50
269.99992553038725
 51
286.40907075304568
  0
ARC
  8
ADD_LINE
  6
DOT
 62
    4
 10
1110.9126570329738
 20
972.01447325823642
 40
4.5677519467617351
 50
240.04648698441059
 51
269.99996627403811
  0
ARC
  8
ADD_LINE
  6
DOT
 62
    4
 10
691393.46673126274
 20
1198818.8879226213
 40
1382512.1216885088
 50
240.04119548334685
 51
240.04646669506109
  0
ARC
  8
ADD_LINE
  6
DOT
 62
    4
 10
611024.54374819865
 20
1059384.5704565404
 40
1221573.957573587
 50
240.03524067451365
 51
240.04119943558166
  0
ARC
  8
ADD_LINE
  6
DOT
 62
    4
 10
891.29527055014
 20
1100.0952783641796
 40
5.862336552986215
 50
213.68021076148289
 51
240.03521663240729
  0
ARC
  8
ADD_LINE
  6
DOT
 62
    4
 10
887.91675306615684
 20
1097.843772313186
 40
1.8023291777170116
 50
180.15335448806675
 51
213.68019752614819
  0
ARC
  8
ADD_LINE
  6
DOT
 62
    4
 10
1734711.3787561729
 20
5740.4715899784378
 40
1733831.4800615357
 50
180.15066931141575
 51
180.15341950883225
  0
ARC
  8
ADD_LINE
  6
DOT
 62
    4
 10
58062.271143542071
 20
1331.4714866601052
 40
57176.575395683823
 50
180.0585910645025
 51
180.1507226729966
  0
ARC
  8
ADD_LINE
  6
DOT
 62
    4
 10
113483.20003426224
 20
1388.1307211077291
 40
112597.53324899959
 50
180.00312131438312
 51
180.05858362786909
  0
ARC
  8
ADD_LINE
  6
DOT
 62
    4
 10
199853.59217150651
 20
1392.671004119983
 40
198967.92550549056
 50
179.96182085801888
 51
180.00307381882274
  0
ARC
  8
ADD_LINE
  6
DOT
 62
    4
 10
24215.640347947806
 20
1509.7190123919549
 40
23329.934680584286
 50
179.76200107300698
 51
179.96184870129496
  0
ARC
  8
ADD_LINE
  6
DOT
 62
    4
 10
156061.62831922687
 20
962.20886781452668
 40
155177.05945574602
 50
179.74028901786138
 51
179.76206141401087
  0
ARC
  8
ADD_LINE
  6
DOT
 62
    4
 10
888.51415728645929
 20
1665.5842010141204
 40
2.3511570868924924
 50
134.9999594168139
 51
179.7403382100131
  0
ARC
  8
ADD_LINE
  6
DOT
 62
    4
 10
888.47602612689252
 20
1665.6223369308595
 40
2.2972281200553239
 50
90.732514598932709
 51
135.00004236225245
  0
ARC
  8
ADD_LINE
  6
DOT
 62
    4
 10
1021.1156412036925
 20
-8708.8843956915352
 40
10377.651834720982
 50
90.603694278030275
 51
90.732495176815348
  0
ARC
  8
ADD_LINE
  6
DOT
 62
    4
 10
951.4620588664236
 20
-2098.505887055363
 40
3766.906366245566
 50
90.107497428054173
 51
90.60367810340162
  0
ARC
  8
ADD_LINE
  6
DOT
 62
    4
 10
1000.7530145150665
 20
-28368.884941340082
 40
30037.331662652726
 50
90.000015954535896
 51
90.10750282902147
  0
ARC
  8
ADD_LINE
  6
DOT
 62
    4
 10
1000.7211350115567
 20
-50953.222154136637
 40
52621.668875453367
 50
89.927323349932891
 51
89.999974395921938
  0
ARC
  8
ADD_LINE
  6
DOT
 62
    4
 10
1064.6792306337617
 20
-530.67090944516257
 40
2199.0770672020603
 50
89.20012087536152
 51
89.927316468496911
  0
ARC
  8
ADD_LINE
  6
DOT
 62
    4
 10
1062.2620325639761
 20
-703.7066566123567
 40
2372.1296968916281
 50
88.784350034942136
 51
89.200087755081142
  0
ARC
  8
ADD_LINE
  6
DOT
 62
    4
 10
1112.5540827169631
 20
1666.2929485681866
 40
1.5965461290164821
 50
20.993649015991632
 51
88.784274700207745
  0
ARC
  8
ADD_LINE
  6
DOT
 62
    4
 10
917.57174595004676
 20
1104.0810984987547
 40
21.200580055423049
 50
109.79466382971156
 51
123.4145446172545
  0
ARC
  8
ADD_LINE
  6
DOT
 62
    4
 10
911.82539527327367
 20
1112.7910785358549
 40
10.765816121959359
 50
123.4145262717965
 51
146.02746590039299
  0
ARC
  8
ADD_LINE
  6
DOT
 62
    4
 10
912.32414748760811
 20
1112.4550117147546
 40
11.367226696812812
 50
146.02745772909855
 51
167.90640819989266
  0
ARC
  8
ADD_LINE
  6
DOT
 62
    4
 10
925.7745069417931
 20
1109.5730875063559
 40
25.122867597537986
 50
167.90642952433344
 51
179.99995711261937
  0
ARC
  8
ADD_LINE
  6
DOT
 62
    4
 10
914.46760079520686
 20
1109.5731196405918
 40
13.815961450951061
 50
180.00005527679817
 51
218.3028278306931
  0
ARC
  8
ADD_LINE
  6
DOT
 62
    4
 10
914.82160204720707
 20
1109.8527486563411
 40
14.267081470925889
 50
218.3029138756674
 51
255.69611395154095
  0
ARC
  8
ADD_LINE
  6
DOT
 62
    4
 10
914.97062170843469
 20
1110.4372346812606
 40
14.870265334042461
 50
255.69613701445197
 51
292.14327258092021
  0
ARC
  8
ADD_LINE
  6
DOT
 62
    4
 10
914.97855984398961
 20
1110.4177414995506
 40
14.849217813947685
 50
292.14325249421358
 51
328.62904137457741
  0
ARC
  8
ADD_LINE
  6
DOT
 62
    4
 10
915.4866451605078
 20
1110.1079580525497
 40
14.254140950931486
 50
328.62904213684885
 51
4.3525527894748066
  0
ARC
  8
ADD_LINE
  6
DOT
 62
    4
 10
914.87807823293792
 20
1110.0616422184352
 40
14.864467799273462
 50
4.3525376965235258
 51
38.972356107783966
  0
ARC
  8
ADD_LINE
  6
DOT
 62
    4
 10
914.95823329605673
 20
1110.126477007856
 40
14.761373745089958
 50
38.972384754582172
 51
73.740024138054195
  0
ARC
  8
ADD_LINE
  6
DOT
 62
    4
 10
915.15415939736635
 20
1110.7982108647925
 40
14.061649934085526
 50
73.740050101884548
 51
109.79472536841996
  0
ARC
  8
ADD_LINE
  6
DOT
 62
    4
 10
913.37866111364905
 20
1107.8432034695933
 40
13.632506866075372
 50
48.916029110998437
 51
62.655574496596415
  0
ARC
  8
ADD_LINE
  6
DOT
 62
    4
 10
916.40590312990275
 20
1111.3153721744552
 40
9.0259734905494557
 50
30.202463704514844
 51
48.915963947263719
  0
ARC
  8
ADD_LINE
  6
DOT
 62
    4
 10
915.97532069523572
 20
1111.0647464759272
 40
9.5241847648043016
 50
12.067313179152021
 51
30.202442647284126
  0
ARC
  8
ADD_LINE
  6
DOT
 62
    4
 10
909.24265740890427
 20
1109.6254142861107
 40
16.408981935361829
 50
0.0000384976260796
 51
12.067283187516553
  0
ARC
  8
ADD_LINE
  6
DOT
 62
    4
 10
915.57015797815074
 20
1109.6254282884351
 40
10.081481366112065
 50
317.53353907253881
 51
359.99998308113418
  0
ARC
  8
ADD_LINE
  6
DOT
 62
    4
 10
915.14160124062368
 20
1110.0176721450015
 40
10.662442742005584
 50
276.80775808467677
 51
317.53351840344572
  0
ARC
  8
ADD_LINE
  6
DOT
 62
    4
 10
915.10455434000027
 20
1110.3279825376234
 40
10.974956761868677
 50
236.81487697753868
 51
276.80776850979407
  0
ARC
  8
ADD_LINE
  6
DOT
 62
    4
 10
914.83677099786632
 20
1109.9185241221125
 40
10.485708243912798
 50
195.43556679113913
 51
236.81484533462202
  0
ARC
  8
ADD_LINE
  6
DOT
 62
    4
 10
915.19521639429785
 20
1110.0174825772592
 40
10.857562890125111
 50
176.70697358216077
 51
195.43549920504736
  0
ARC
  8
ADD_LINE
  6
DOT
 62
    4
 10
914.7788012786018
 20
1110.0414363450968
 40
10.440459387934321
 50
157.42008881847866
 51
176.70694221157594
  0
ARC
  8
ADD_LINE
  6
DOT
 62
    4
 10
915.11833238300619
 20
1109.9002483559629
 40
10.808175880777261
 50
138.50105510138524
 51
157.4201158221515
  0
ARC
  8
ADD_LINE
  6
DOT
 62
    4
 10
916.26424386904182
 20
1108.8864682010571
 40
12.338163899131705
 50
121.36996369291254
 51
138.50105186360002
  0
ARC
  8
ADD_LINE
  6
DOT
 62
    4
 10
920.82110565474931
 20
1101.4123167525181
 40
21.091901912674181
 50
113.02473429684836
 51
121.36995583980198
  0
ARC
  8
ADD_LINE
  6
DOT
 62
    4
 10
915.13749493601858
 20
1114.7860073315864
 40
6.5605898416074834
 50
93.103801778473737
 51
113.02472603232911
  0
ARC
  8
ADD_LINE
  6
DOT
 62
    4
 10
915.114381996269
 20
1115.2120920235834
 40
6.1338787301303021
 50
72.322389147688951
 51
93.103720982475536
  0
ARC
  8
ADD_LINE
  6
DOT
 62
    4
 10
911.78138479341328
 20
1104.7543892241856
 40
17.109871541472458
 50
62.655615560304489
 51
72.32232322369974
  0
ARC
  8
ADD_LINE
  6
DOT
 62
    4
 10
1085.2294478718924
 20
1009.880674840208
 40
14.385106992739077
 50
116.23781191581177
 51
148.63891807521241
  0
ARC
  8
ADD_LINE
  6
DOT
 62
    4
 10
1085.4140522803756
 20
1009.7681640118785
 40
14.601295507981474
 50
148.63891855375729
 51
180.68008282230937
  0
ARC
  8
ADD_LINE
  6
DOT
 62
    4
 10
1085.6155056084276
 20
1009.7705507091427
 40
14.802762973558859
 50
180.68006500917152
 51
212.45780008725063
  0
ARC
  8
ADD_LINE
  6
DOT
 62
    4
 10
1085.6506370394934
 20
1009.7928972704198
 40
14.844399330838362
 50
212.45780572554036
 51
244.16877097844601
  0
ARC
  8
ADD_LINE
  6
DOT
 62
    4
 10
1085.8051959621502
 20
1010.1121416709934
 40
15.199089967424932
 50
244.16871863986813
 51
278.61178571037146
  0
ARC
  8
ADD_LINE
  6
DOT
 62
    4
 10
1085.9287385386326
 20
1009.2965004765338
 40
14.374145529289373
 50
278.6117194064584
 51
314.52397439859277
  0
ARC
  8
ADD_LINE
  6
DOT
 62
    4
 10
1086.0713496636697
 20
1009.1514934633087
 40
14.170761737287714
 50
314.5239922385553
 51
350.75257442664548
  0
ARC
  8
ADD_LINE
  6
DOT
 62
    4
 10
1085.455374357718
 20
1009.2517754912595
 40
14.794846717574479
 50
350.75260313208656
 51
25.831243118963634
  0
ARC
  8
ADD_LINE
  6
DOT
 62
    4
 10
1084.5082106645761
 20
1008.7932786929114
 40
15.847148183634999
 50
25.831186585573821
 51
47.469158954240235
  0
ARC
  8
ADD_LINE
  6
DOT
 62
    4
 10
1085.3082163370493
 20
1009.6654145408112
 40
14.663666027938198
 50
47.469090853182898
 51
70.403586770220201
  0
ARC
  8
ADD_LINE
  6
DOT
 62
    4
 10
1085.4043166463138
 20
1009.9353421128204
 40
14.377141747002136
 50
70.403596021863435
 51
93.597177306435156
  0
ARC
  8
ADD_LINE
  6
DOT
 62
    4
 10
1085.4338175242355
 20
1009.4660212123202
 40
14.847388926084763
 50
93.59716545310043
 51
116.23779377103487
  0
ARC
  8
ADD_LINE
  6
DOT
 62
    4
 10
1082.2370649008109
 20
1007.4288093505502
 40
14.673634892302972
 50
23.122714379429268
 51
40.700886226940454
  0
ARC
  8
ADD_LINE
  6
DOT
 62
    4
 10
1086.6992886324849
 20
1009.3342038246311
 40
9.8216282215164127
 50
359.37597839408078
 51
23.122695287693915
  0
ARC
  8
ADD_LINE
  6
DOT
 62
    4
 10
1087.2317268120027
 20
1009.3283857465927
 40
9.2891582555456739
 50
334.83905255933677
 51
359.37609521698897
  0
ARC
  8
ADD_LINE
  6
DOT
 62
    4
 10
1084.4750863866186
 20
1010.6232620784722
 40
12.334773324739751
 50
315.00004004084314
 51
334.83907761775685
  0
ARC
  8
ADD_LINE
  6
DOT
 62
    4
 10
1085.046139596674
 20
1010.0522091130867
 40
11.527182303250489
 50
284.08780868497944
 51
315.0000419861584
  0
ARC
  8
ADD_LINE
  6
DOT
 62
    4
 10
1085.4293857319844
 20
1008.525014809297
 40
9.9526347359884645
 50
249.58186067204536
 51
284.08788195067933
  0
ARC
  8
ADD_LINE
  6
DOT
 62
    4
 10
1085.5513765675559
 20
1008.8527346699469
 40
10.302323270265411
 50
215.79466059520615
 51
249.58188780048692
  0
ARC
  8
ADD_LINE
  6
DOT
 62
    4
 10
1087.2733485843305
 20
1010.0944107436594
 40
12.425280429175767
 50
186.43094462261836
 51
215.79464044302312
  0
ARC
  8
ADD_LINE
  6
DOT
 62
    4
 10
1105.6899940761149
 20
1012.1702560331564
 40
30.958546866474524
 50
181.15656693020241
 51
186.43097256327294
  0
ARC
  8
ADD_LINE
  6
DOT
 62
    4
 10
1079.2968486847
 20
1011.6374193466684
 40
4.5600234496872946
 50
159.46573479049303
 51
181.15663108063318
  0
ARC
  8
ADD_LINE
  6
DOT
 62
    4
 10
1079.7542978251856
 20
1011.466075711338
 40
5.0485092299282428
 50
139.24234481559258
 51
159.46575047377959
  0
ARC
  8
ADD_LINE
  6
DOT
 62
    4
 10
1107.8325802869414
 20
987.26575479012024
 40
42.116628668228109
 50
134.99997539450561
 51
139.24235783773173
  0
ARC
  8
ADD_LINE
  6
DOT
 62
    4
 10
1107.8326058656175
 20
987.26578036879629
 40
42.116628668228109
 50
130.75764216226826
 51
135.00002460549438
  0
ARC
  8
ADD_LINE
  6
DOT
 62
    4
 10
1083.6322849443997
 20
1015.344062830552
 40
5.0485092299282428
 50
110.53424952622042
 51
130.75765518440741
  0
ARC
  8
ADD_LINE
  6
DOT
 62
    4
 10
1083.4609413090695
 20
1015.8015119710378
 40
4.5600234496872946
 50
88.843368919366795
 51
110.53426520950694
  0
ARC
  8
ADD_LINE
  6
DOT
 62
    4
 10
1082.9281046225812
 20
989.40836657962279
 40
30.958546866474524
 50
83.569027436727097
 51
88.843433069797612
  0
ARC
  8
ADD_LINE
  6
DOT
 62
    4
 10
1084.0174095634931
 20
999.07238161574503
 40
21.233333662024573
 50
77.200122838096362
 51
83.569085932735973
  0
ARC
  8
ADD_LINE
  6
DOT
 62
    4
 10
1086.6362736621347
 20
1010.5995081080196
 40
9.4124582995191516
 50
65.500362382007708
 51
77.200070619976102
  0
ARC
  8
ADD_LINE
  6
DOT
 62
    4
 10
1087.4220991315853
 20
1012.3238955404149
 40
7.5174560078749346
 50
52.175723253230145
 51
65.500293118804663
  0
ARC
  8
ADD_LINE
  6
DOT
 62
    4
 10
1086.4052097639917
 20
1011.0140818400707
 40
9.1756706850273435
 50
40.700932893667676
 51
52.175700934848165
  0
ENDSEC
  0
EOF
